<?xml version="1.0" encoding="utf-8"?>
<!-- Generator: Adobe Illustrator 28.1.0, SVG Export Plug-In . SVG Version: 6.00 Build 0)  -->
<svg version="1.1" id="Layer_1" xmlns="http://www.w3.org/2000/svg" xmlns:xlink="http://www.w3.org/1999/xlink" x="0px" y="0px"
	 viewBox="0 0 500 500" style="enable-background:new 0 0 500 500;" xml:space="preserve">
<style type="text/css">
	.st0{fill:#EBEBEB;}
	.st1{fill:#559050;}
	.st2{fill:#3B5C42;}
	.st3{fill:#3CEE51;}
	.st4{opacity:0.1;enable-background:new    ;}
	.st5{fill:#FFFFFF;}
	.st6{opacity:0.2;enable-background:new    ;}
	.st7{opacity:0.4;fill:#FFFFFF;enable-background:new    ;}
	.st8{fill:#DBDBDB;}
</style>
<path class="st0" d="M92.6,317.1l-14.8,0.3l-7.5,0.1c-2.5,0-5,0-7.5,0h-0.4v-0.5v-12.6V304h0.5l15,0.1c5,0,10,0.1,15,0.2H93v0.3
	c0,2.1-0.1,4.3-0.1,6.4L92.6,317.1z M92.6,317.1l-0.2-6.4c0-2.1-0.1-4.2-0.1-6.3l0.3,0.3c-5,0.1-10,0.2-15,0.2l-14.9,0l0.5-0.5
	l-0.1,12.6l-0.4-0.4c2.5,0,4.9,0,7.4,0l7.4,0.1L92.6,317.1z"/>
<path class="st0" d="M76,333.1l-14.8,0.3l-7.5,0.1c-2.5,0-5,0-7.6,0h-0.4V333l-0.1-12.6v-0.5h0.5L61,320c5,0,10,0.1,14.9,0.2h0.3
	v0.3c0,2.1-0.1,4.3-0.1,6.4L76,333.1z M76,333.1l-0.1-6.4c0-2.1-0.1-4.2-0.1-6.3l0.3,0.3c-5,0.1-10,0.2-15,0.2l-15,0.1l0.5-0.5
	l0,12.6l-0.5-0.4c2.5,0,4.9,0,7.4,0l7.4,0.1L76,333.1z"/>
<path class="st0" d="M76,59.7L61.1,60l-7.5,0.1c-2.5,0-5,0-7.5,0.1h-0.4v-0.5l-0.1-12.6v-0.5h0.5l14.9,0c5,0,10,0.1,14.9,0.2h0.3
	v0.3c0,2.1-0.1,4.3-0.1,6.4L76,59.7z M76,59.7l-0.1-6.4c0-2.1-0.1-4.2-0.1-6.3l0.3,0.3c-5,0-10,0.2-15,0.2l-15,0.1l0.5-0.5l0,12.6
	l-0.5-0.4c2.5,0,4.9,0,7.4,0l7.4,0.1L76,59.7z"/>
<path class="st0" d="M453.9,59.7L439.1,60l-7.5,0.1c-2.5,0-5,0-7.5,0.1h-0.4v-0.5V47.1v-0.5h0.5l14.9,0.1c5,0,10,0.1,15,0.2h0.3v0.3
	c0,2.1-0.1,4.3-0.1,6.4L453.9,59.7z M453.9,59.7l-0.1-6.4c0-2.1-0.1-4.2-0.1-6.3l0.3,0.3c-5,0-10,0.2-15,0.2l-15,0.1l0.5-0.5l0,12.6
	l-0.5-0.4c2.5,0,4.9,0,7.4,0l7.4,0.1L453.9,59.7z"/>
<path class="st0" d="M437.3,75.6l-14.8,0.3l-7.5,0.1c-2.5,0-5,0-7.6,0.1h-0.4v-0.4L406.9,63v-0.5h0.5l15,0.1c5,0,10,0.1,15,0.2h0.3
	V63c0,2.1-0.1,4.3-0.1,6.4L437.3,75.6z M437.3,75.6l-0.1-6.4c0-2.1-0.1-4.2-0.1-6.3l0.3,0.3c-5,0-10,0.2-15,0.2l-15,0.1l0.5-0.5
	l0,12.6l-0.5-0.4c2.5,0,4.9,0,7.4,0l7.4,0.1L437.3,75.6z"/>
<path class="st0" d="M360.7,223.4l-14.8,0.3l-7.5,0.1c-2.5,0-5,0-7.5,0h-0.4v-0.4l-0.1-12.6v-0.5h0.5l14.9,0.1c5,0,10,0.1,15,0.2
	h0.3v0.3c0,2.1-0.1,4.3-0.1,6.4L360.7,223.4z M360.7,223.4l-0.1-6.4c0-2.1-0.1-4.2-0.1-6.3l0.3,0.3c-5,0-10,0.2-15,0.2l-14.9,0.1
	l0.5-0.5l-0.1,12.6l-0.4-0.4c2.5,0,4.9,0,7.4,0.1l7.4,0.1L360.7,223.4z"/>
<path class="st0" d="M344,239.4l-14.8,0.3l-7.5,0.1c-2.5,0.1-5,0-7.6,0.1h-0.4v-0.4l-0.1-12.6v-0.5h0.5l15,0.1c5,0,10,0.1,14.9,0.2
	h0.3v0.3c0,2.1-0.1,4.3-0.1,6.4L344,239.4z M344,239.4l-0.1-6.4c0-2.1-0.1-4.2-0.1-6.3l0.3,0.3c-5,0.1-10,0.2-14.9,0.2l-15,0.1
	l0.5-0.5l-0.1,12.6l-0.4-0.4c2.5,0,4.9,0,7.4,0.1l7.4,0.1L344,239.4z"/>
<path class="st0" d="M327.4,223.4l-14.8,0.3l-7.5,0.1c-2.5,0-5,0-7.5,0h-0.5v-0.4l-0.1-12.6v-0.5h0.5l14.9,0.1c5,0,10,0.1,14.9,0.2
	h0.3v0.3c0,2.1-0.1,4.3-0.1,6.4L327.4,223.4z M327.4,223.4l-0.1-6.4c0-2.1-0.1-4.2-0.1-6.3l0.3,0.3c-5,0-10,0.2-14.9,0.2l-14.9,0.1
	l0.5-0.5l0,12.6l-0.4-0.4c2.5,0,4.9,0,7.4,0.1l7.4,0.1L327.4,223.4z"/>
<path class="st0" d="M453.9,333.1l-14.8,0.3l-7.5,0.1c-2.5,0-5,0-7.5,0h-0.4V333v-12.6v-0.5h0.5L439,320c5,0,10,0.1,15,0.2h0.3v0.3
	c0,2.1-0.1,4.3-0.1,6.4L453.9,333.1z M453.9,333.1l-0.1-6.4c0-2.1-0.1-4.2-0.1-6.3l0.3,0.3c-5,0.1-10,0.2-15,0.2l-14.9,0.1l0.5-0.5
	l-0.1,12.6l-0.4-0.4c2.5,0,4.9,0,7.4,0l7.4,0.1L453.9,333.1z"/>
<path class="st0" d="M199.9,97.3l-14.8,0.3l-7.5,0.1c-2.5,0-5,0-7.6,0.1h-0.4v-0.4l-0.1-12.6v-0.5h0.5l15,0.1c5,0,10,0.1,15,0.2h0.3
	v0.3c0,2.1-0.1,4.3-0.1,6.4L199.9,97.3z M199.9,97.3l-0.1-6.4c0-2.1-0.1-4.2-0.1-6.3l0.3,0.3c-5,0-10,0.2-15,0.2L170,85.1l0.5-0.5
	l-0.1,12.6l-0.4-0.4c2.5,0,4.9,0,7.4,0l7.4,0.1L199.9,97.3z"/>
<path class="st1" d="M423.2,181l5.9-9.5l-2.9-1.8c-0.4-0.3-0.8-0.6-1-1.1c-0.2-0.4-0.3-0.9-0.3-1.4c0-0.6,0.1-1.1,0.1-1.7
	c0-0.5,0.1-1,0.3-1.4c0.2-0.4,0.6-0.8,1-1l3-1.6l-5.3-9.9l-3,1.6c-0.4,0.2-0.9,0.3-1.4,0.3c-0.5,0-1-0.2-1.4-0.5
	c-0.5-0.3-0.9-0.6-1.4-0.9c-0.4-0.2-0.8-0.6-1-1c-0.2-0.4-0.4-0.9-0.4-1.4l0.1-3.4l-11.2-0.4l-0.1,3.4c0,0.5-0.2,1-0.5,1.4
	c-0.3,0.4-0.7,0.7-1.1,0.9c-0.2,0.1-0.5,0.2-0.7,0.4s-0.5,0.3-0.7,0.4c-0.4,0.3-0.9,0.4-1.4,0.4s-1-0.1-1.4-0.4l-2.9-1.8l-5.9,9.5
	l2.9,1.8c0.4,0.3,0.8,0.6,1,1.1c0.2,0.4,0.3,0.9,0.3,1.4c-0.1,0.6-0.1,1.1,0,1.7c0,0.5-0.1,1-0.4,1.4c-0.2,0.4-0.6,0.8-1,1l-3,1.6
	l5.3,9.9l3-1.6c0.4-0.2,0.9-0.3,1.4-0.3c0.5,0,1,0.2,1.4,0.5c0.5,0.3,0.9,0.6,1.4,0.9c0.4,0.2,0.8,0.6,1,1s0.4,0.9,0.4,1.4l-0.1,3.4
	l11.2,0.3l0.1-3.4c0-0.5,0.2-1,0.5-1.4c0.3-0.4,0.7-0.7,1.1-0.9l0.7-0.4c0.2-0.1,0.5-0.3,0.7-0.4c0.4-0.3,0.9-0.4,1.4-0.4
	c0.5,0,1,0.1,1.4,0.4L423.2,181z M413.8,173.9c-1.6,0.9-3.4,1.2-5.2,1c-1.8-0.2-3.5-0.9-4.9-2c-1.4-1.1-2.4-2.7-2.9-4.4
	c-0.5-1.7-0.5-3.6,0-5.3c0.5-1.7,1.5-3.3,2.9-4.4c1.4-1.1,3.1-1.9,4.9-2c1.8-0.2,3.6,0.2,5.2,1c1.6,0.9,2.9,2.2,3.8,3.7
	c1.1,2.1,1.4,4.6,0.7,6.9S415.9,172.8,413.8,173.9L413.8,173.9z"/>
<path class="st1" d="M101.5,288.5l5.9-9.5l-2.9-1.8c-0.4-0.3-0.8-0.6-1-1.1c-0.2-0.4-0.3-0.9-0.3-1.4c0-0.6,0-1.1,0-1.7
	c0-0.5,0.1-1,0.4-1.4c0.2-0.4,0.6-0.8,1-1l3-1.6l-5.3-9.9l-3,1.6c-0.4,0.2-0.9,0.3-1.4,0.3c-0.5,0-1-0.2-1.4-0.5
	c-0.5-0.3-0.9-0.6-1.4-0.9c-0.4-0.2-0.8-0.6-1-1c-0.2-0.4-0.4-0.9-0.4-1.4l0.1-3.4l-11.2-0.4l-0.1,3.4c0,0.5-0.2,1-0.5,1.4
	c-0.3,0.4-0.7,0.7-1.1,0.9c-0.2,0.1-0.5,0.2-0.7,0.4s-0.5,0.3-0.7,0.4c-0.4,0.3-0.9,0.4-1.4,0.4c-0.5,0-1-0.1-1.4-0.4l-2.9-1.8
	l-5.9,9.5l2.9,1.8c0.4,0.3,0.8,0.6,1,1.1c0.2,0.4,0.3,0.9,0.3,1.4c0,0.6-0.1,1.1,0,1.7c0,0.5-0.1,1-0.4,1.4c-0.2,0.4-0.6,0.8-1,1
	l-3,1.6l5.3,9.9l3-1.6c0.4-0.2,0.9-0.3,1.4-0.3c0.5,0,1,0.2,1.4,0.5c0.5,0.3,0.9,0.6,1.4,0.9c0.4,0.2,0.8,0.6,1,1
	c0.2,0.4,0.4,0.9,0.4,1.4l-0.1,3.4l11.2,0.3l0.1-3.4c0-0.5,0.2-1,0.4-1.4c0.3-0.4,0.7-0.7,1.1-0.9c0.2-0.1,0.5-0.2,0.7-0.4
	s0.5-0.3,0.7-0.4c0.4-0.3,0.9-0.4,1.4-0.4c0.5,0,1,0.1,1.4,0.4L101.5,288.5z M92.1,281.5c-1.6,0.9-3.4,1.2-5.2,1
	c-1.8-0.2-3.5-0.9-4.9-2c-1.4-1.1-2.4-2.7-3-4.4c-0.5-1.7-0.5-3.6,0-5.3c0.5-1.7,1.5-3.3,2.9-4.4c1.4-1.1,3.1-1.9,4.9-2
	s3.6,0.2,5.2,1c1.6,0.9,2.9,2.2,3.8,3.8c0.6,1.1,0.9,2.2,1,3.4c0.1,1.2,0,2.4-0.3,3.6c-0.3,1.1-0.9,2.2-1.7,3.1
	S93.1,280.9,92.1,281.5z"/>
<path class="st1" d="M215.9,106.7L212,100l-2.1,1.2c-0.3,0.2-0.6,0.3-1,0.2s-0.7-0.1-1-0.3c-0.3-0.2-0.7-0.4-1-0.6
	c-0.3-0.2-0.6-0.4-0.7-0.7c-0.2-0.3-0.3-0.6-0.3-1v-2.4h-7.8v2.4c0,0.3-0.1,0.7-0.3,1c-0.2,0.3-0.4,0.5-0.7,0.7
	c-0.3,0.2-0.7,0.4-1,0.6c-0.3,0.2-0.6,0.3-1,0.3c-0.4,0-0.7-0.1-1-0.3L192,100l-3.9,6.8l2.1,1.2c0.3,0.2,0.5,0.4,0.7,0.7
	c0.2,0.3,0.2,0.6,0.2,1c0,0.2,0,0.4,0,0.6s0,0.4,0,0.6c0,0.3,0,0.7-0.2,1c-0.2,0.3-0.4,0.6-0.7,0.7l-2.1,1.2l3.9,6.8l2.1-1.2
	c0.3-0.2,0.6-0.3,1-0.2c0.3,0,0.7,0.1,1,0.3c0.3,0.2,0.7,0.4,1,0.6c0.3,0.2,0.6,0.4,0.7,0.7c0.2,0.3,0.3,0.6,0.3,1v2.3h7.8v-2.4
	c0-0.3,0.1-0.7,0.3-1c0.2-0.3,0.4-0.5,0.7-0.7c0.3-0.2,0.7-0.4,1-0.6c0.3-0.2,0.6-0.3,1-0.3s0.7,0.1,1,0.2l2.1,1.2l3.9-6.8l-2.1-1.2
	c-0.3-0.2-0.5-0.4-0.7-0.7c-0.2-0.3-0.2-0.6-0.2-1c0-0.2,0-0.4,0-0.6s0-0.4,0-0.6c0-0.3,0.1-0.7,0.2-1c0.2-0.3,0.4-0.6,0.7-0.7
	L215.9,106.7z M208.4,110.2c0,1.3-0.4,2.5-1.1,3.6c-0.7,1.1-1.7,1.9-2.9,2.4s-2.5,0.6-3.7,0.4c-1.2-0.2-2.4-0.9-3.3-1.8
	c-0.9-0.9-1.5-2-1.8-3.3c-0.2-1.2-0.1-2.5,0.4-3.7c0.5-1.2,1.3-2.2,2.4-2.9c1.1-0.7,2.3-1.1,3.6-1.1c1.7,0,3.3,0.7,4.5,1.9
	C207.7,106.9,208.4,108.5,208.4,110.2z"/>
<path class="st2" d="M88.8,303.8c-13.1,12.8-15.3,32.6-12.5,49.9c0.1,0.4,0.7,0.3,0.7-0.1c0-3.9-0.1-7.9-0.1-11.8
	c0.1-0.2,0.1-0.3,0.2-0.5c3.4-2.5,6.6-5.3,8.5-9.1c2.2-4.3,3-9.1,4.7-13.6c0.2-0.4-0.3-0.3-0.6-0.1c-8,5.9-10.5,12.2-12.8,20.6
	c0-4.4,0.5-8.8,1.4-13.1c1.7-8,5.1-15.9,10.9-21.9C89.4,304,89.1,303.6,88.8,303.8z"/>
<path class="st3" d="M91.3,305.3c2.2,0.1,3.7,3.7,5.4,4.7c0.2,0.2,0.4,0.3,0.6,0.3c0.2,0.1,0.5,0.1,0.7,0c0.2,0,0.5-0.1,0.7-0.3
	c0.2-0.1,0.4-0.3,0.5-0.5c1.7-2.4-0.6-5.4-2.9-7.1c1.6,0.7,2.9,1.8,4.6,2.1c0.2,0.1,0.5,0.1,0.7,0.1c0.2,0,0.5-0.1,0.7-0.2
	c0.2-0.1,0.4-0.3,0.5-0.5c0.1-0.2,0.2-0.4,0.3-0.6c0.8-3.3-3.4-4.8-6.2-4.8c1.4-1,5.3-3.6,3.2-4.9c-2.1-1.3-6.8,2.4-8.3,3.7
	c-2.2,1.8-4.9,4.5-5,7.3C86.7,308,89.6,306,91.3,305.3z"/>
<path class="st4" d="M91.3,305.3c2.2,0.1,3.7,3.7,5.4,4.7c0.2,0.2,0.4,0.3,0.6,0.3c0.2,0.1,0.5,0.1,0.7,0c0.2,0,0.5-0.1,0.7-0.3
	c0.2-0.1,0.4-0.3,0.5-0.5c1.7-2.4-0.6-5.4-2.9-7.1c1.6,0.7,2.9,1.8,4.6,2.1c0.2,0.1,0.5,0.1,0.7,0.1c0.2,0,0.5-0.1,0.7-0.2
	c0.2-0.1,0.4-0.3,0.5-0.5c0.1-0.2,0.2-0.4,0.3-0.6c0.8-3.3-3.4-4.8-6.2-4.8c1.4-1,5.3-3.6,3.2-4.9c-2.1-1.3-6.8,2.4-8.3,3.7
	c-2.2,1.8-4.9,4.5-5,7.3C86.7,308,89.6,306,91.3,305.3z"/>
<path class="st3" d="M90.6,305.9c2.9-1.3,8.4,0.6,8.9-0.5c0.9-2.2-3.5-3.7-5.8-4c2.2-0.6,6.4-1.5,6.3-3.6c-0.2-2.6-6.4-0.4-9.6,2.1
	c-4,3.1-4,6-3.3,6.6C87.9,307.2,90.2,306.1,90.6,305.9z"/>
<path class="st2" d="M59.1,302.6c13.6,12.3,16.5,32,14.4,49.4c-0.1,0.4-0.7,0.3-0.7-0.1c-0.2-3.9-0.2-7.9-0.3-11.8
	c-0.1-0.2-0.1-0.3-0.2-0.5c-3.5-2.4-6.8-5-8.8-8.8c-2.4-4.2-3.4-9-5.2-13.4c-0.2-0.4,0.3-0.3,0.6-0.1c8.2,5.6,10.9,11.8,13.5,20.1
	c-0.2-4.4-0.9-8.8-1.9-13.1c-2-7.9-5.7-15.7-11.7-21.4C58.5,302.7,58.8,302.4,59.1,302.6z"/>
<path class="st3" d="M56.7,304.2c-2.2,0.2-3.5,3.8-5.2,4.9c-0.2,0.2-0.4,0.3-0.6,0.3c-0.2,0.1-0.5,0.1-0.7,0.1
	c-0.2,0-0.5-0.1-0.7-0.2c-0.2-0.1-0.4-0.3-0.5-0.5c-1.8-2.4,0.4-5.4,2.6-7.2c-1.6,0.7-2.9,1.9-4.6,2.3c-0.2,0.1-0.5,0.1-0.7,0.1
	c-0.2,0-0.5-0.1-0.7-0.2s-0.4-0.3-0.5-0.5c-0.1-0.2-0.2-0.4-0.3-0.6c-0.9-3.3,3.2-4.9,6-5.1c-1.4-0.9-5.5-3.4-3.4-4.7
	c2.1-1.4,6.9,2.2,8.4,3.4c2.3,1.7,5,4.3,5.2,7.1C61.4,306.7,58.4,304.8,56.7,304.2z"/>
<path class="st4" d="M56.7,304.2c-2.2,0.2-3.5,3.8-5.2,4.9c-0.2,0.2-0.4,0.3-0.6,0.3c-0.2,0.1-0.5,0.1-0.7,0.1
	c-0.2,0-0.5-0.1-0.7-0.2c-0.2-0.1-0.4-0.3-0.5-0.5c-1.8-2.4,0.4-5.4,2.6-7.2c-1.6,0.7-2.9,1.9-4.6,2.3c-0.2,0.1-0.5,0.1-0.7,0.1
	c-0.2,0-0.5-0.1-0.7-0.2s-0.4-0.3-0.5-0.5c-0.1-0.2-0.2-0.4-0.3-0.6c-0.9-3.3,3.2-4.9,6-5.1c-1.4-0.9-5.5-3.4-3.4-4.7
	c2.1-1.4,6.9,2.2,8.4,3.4c2.3,1.7,5,4.3,5.2,7.1C61.4,306.7,58.4,304.8,56.7,304.2z"/>
<path class="st3" d="M57.3,304.7c-2.9-1.2-8.4,0.9-8.9-0.2c-1-2.2,3.3-3.9,5.7-4.2c-2.2-0.5-6.5-1.3-6.4-3.4
	c0.1-2.6,6.4-0.6,9.7,1.7c4.1,2.9,4.2,5.9,3.6,6.5C60.2,305.9,57.8,304.9,57.3,304.7z"/>
<path class="st2" d="M72.9,335c0.9,6.6,2.3,13.1,4.2,19.4c0,0.1,0.1,0.2,0.2,0.3c0.1,0.1,0.2,0.1,0.4,0.1c0.1,0,0.2-0.1,0.3-0.2
	c0.1-0.1,0.1-0.2,0.1-0.4c-0.9-6-2.5-11.9-3.4-17.9c-1-6.1-1.3-12.2-1-18.3c0.6-10.1,3.3-20.8,9.9-28.7c0.1-0.2-0.2-0.4-0.3-0.3
	C70,304.5,72.1,323.3,72.2,325c-1.9-6.4-3.8-13.6-10.9-20.1c-0.3-0.3-0.5-0.1-0.5,0.3c1.3,11.8,4.5,18,11.4,24.3
	C72.4,331.3,72.6,333.2,72.9,335z"/>
<path class="st3" d="M83.7,291.1c2.4-1.1,5.6,2,8,2.2c0.3,0.1,0.5,0.1,0.8,0c0.3-0.1,0.5-0.2,0.7-0.3c0.2-0.2,0.4-0.4,0.5-0.6
	c0.1-0.2,0.2-0.5,0.3-0.8c0.6-3.4-3.4-5.3-6.6-5.9c2-0.1,4,0.4,5.9-0.1c0.3,0,0.5-0.1,0.7-0.3c0.2-0.1,0.4-0.3,0.6-0.6
	c0.1-0.2,0.2-0.5,0.3-0.7c0-0.3,0-0.5-0.1-0.8c-0.9-3.8-5.9-3.3-8.9-1.9c0.9-1.7,3.7-6.4,0.9-6.6c-2.8-0.3-5.8,5.9-6.7,8
	c-1.4,3-2.8,7.1-1.5,10.1C80.2,296.3,82.2,292.7,83.7,291.1z"/>
<path class="st4" d="M83.7,291.1c2.4-1.1,5.6,2,8,2.2c0.3,0.1,0.5,0.1,0.8,0c0.3-0.1,0.5-0.2,0.7-0.3c0.2-0.2,0.4-0.4,0.5-0.6
	c0.1-0.2,0.2-0.5,0.3-0.8c0.6-3.4-3.4-5.3-6.6-5.9c2-0.1,4,0.4,5.9-0.1c0.3,0,0.5-0.1,0.7-0.3c0.2-0.1,0.4-0.3,0.6-0.6
	c0.1-0.2,0.2-0.5,0.3-0.7c0-0.3,0-0.5-0.1-0.8c-0.9-3.8-5.9-3.3-8.9-1.9c0.9-1.7,3.7-6.4,0.9-6.6c-2.8-0.3-5.8,5.9-6.7,8
	c-1.4,3-2.8,7.1-1.5,10.1C80.2,296.3,82.2,292.7,83.7,291.1z"/>
<path class="st3" d="M83.2,292c2.3-2.8,9-3.6,8.9-5c-0.1-2.8-5.5-2.1-8.1-1.2c2-1.7,5.9-4.8,4.7-6.9c-1.5-2.6-6.9,2.9-9,7
	c-2.6,5.2-1.1,8.3-0.1,8.6C81.1,294.8,82.9,292.5,83.2,292z"/>
<path class="st3" d="M64.2,338.6L58.4,383h35.4c-0.7-3.9-7.3-44.5-7.3-44.5L64.2,338.6z"/>
<path class="st2" d="M43.4,383.1l51.7-0.2l51.7-0.1l103.3-0.2l103.3,0.2l51.7,0.1l51.7,0.2l-51.7,0.2l-51.7,0.1L250,383.6
	l-103.3-0.2L95,383.4L43.4,383.1z"/>
<path class="st1" d="M250,470.1c82.3,0,149.1-9.4,149.1-21.1S332.3,428,250,428s-149.1,9.4-149.1,21.1S167.7,470.1,250,470.1z"/>
<path class="st5" d="M157.6,217.7l-6.2-24.4l-49,12.5l-6.5-25.5L135,90.9l19.5-4.9l18.9,74.4l15.7-4l6.5,25.6l-15.7,4l6.2,24.4
	L157.6,217.7z M124,172.9l24.3-6.2l-8-31.6L124,172.9z"/>
<path class="st5" d="M298,136.1c0.1,7.6-1.2,15.2-3.7,22.4c-2.3,6.5-5.7,12.5-10.1,17.7c-4.2,4.9-9.4,8.8-15.2,11.6
	c-5.9,2.8-12.4,4.2-19,4.1c-6.6,0.1-13.1-1.4-19.1-4.1c-5.9-2.7-11.1-6.7-15.3-11.6c-4.4-5.2-7.8-11.2-10-17.7
	c-2.5-7.2-3.7-14.8-3.6-22.4c-0.1-7.6,1.1-15.2,3.6-22.4c2.2-6.5,5.6-12.5,10-17.7c4.2-4.9,9.4-8.9,15.3-11.7
	c6-2.8,12.5-4.3,19.1-4.2c6.6-0.1,13.1,1.4,19,4.2c5.8,2.8,11,6.8,15.2,11.7c4.4,5.2,7.9,11.2,10.1,17.7
	C296.8,120.9,298.1,128.5,298,136.1z M268.4,136.1c0-8.6-1.7-15.5-5.1-20.9c-3.4-5.3-7.9-8-13.3-8c-5.6,0-10.1,2.7-13.5,8
	c-3.4,5.3-5.1,12.3-5.1,20.9s1.7,15.5,5.1,20.8c3.4,5.3,7.9,7.9,13.5,7.9c5.4,0,9.8-2.6,13.2-7.9
	C266.7,151.6,268.4,144.7,268.4,136.1L268.4,136.1z"/>
<path class="st5" d="M350.8,213l4-24.9l-49.9-8.1l4.2-26l71.5-66.3l19.8,3.2l-12.3,75.7l16,2.6l-4.2,26.1l-16-2.6l-4,24.9L350.8,213
	z M337.8,158.5l24.7,4l5.2-32.1L337.8,158.5z"/>
<path class="st1" d="M270.6,313.9h-35.5v2.9h35.5V313.9z"/>
<path class="st1" d="M270.6,317.6h-35.5v2.9h35.5V317.6z"/>
<path class="st1" d="M270.6,321.4h-35.5v2.9h35.5V321.4z"/>
<path class="st1" d="M270.6,325.2h-35.5v2.9h35.5V325.2z"/>
<path class="st1" d="M270.6,329h-35.5v2.9h35.5V329z"/>
<path class="st1" d="M286,404.6h-67.5v2.9H286V404.6z"/>
<path class="st1" d="M286,408.4h-67.5v2.9H286V408.4z"/>
<path class="st1" d="M286,412.2h-67.5v2.9H286V412.2z"/>
<path class="st1" d="M286,416h-67.5v2.9H286V416z"/>
<path class="st1" d="M286,419.8h-67.5v2.9H286V419.8z"/>
<path class="st3" d="M188.8,289.8c0-0.4-14.8-5.4-14.8-5.4l0.9-50.9l19.6-4.2L188.8,289.8z"/>
<path class="st6" d="M188.8,289.8c0-0.4-14.8-5.4-14.8-5.4l0.9-50.9l19.6-4.2L188.8,289.8z"/>
<path class="st3" d="M324.5,309.8c0.1-0.4,15.7,0.1,15.7,0.1l16.7-48.1l-17-10.7L324.5,309.8z"/>
<path class="st6" d="M324.5,309.8c0.1-0.4,15.7,0.1,15.7,0.1l16.7-48.1l-17-10.7L324.5,309.8z"/>
<path class="st3" d="M186,308.5c0,0,5.5-82.3,10.3-109.4c0,0,99.4,7.5,153.1,28c0,0-27.7,96.1-29.1,100.9
	C320.3,328.1,250.3,314.3,186,308.5z"/>
<path class="st4" d="M274.7,210.1c-1.6,9.9-3.3,19.8-4.9,29.7l-5.1,29.7l-0.3-0.4l33.3,7.9l16.6,4l16.6,4.1l-16.7-3.7l-16.7-3.8
	l-33.3-7.8l-0.3-0.1l0.1-0.3l5.3-29.7C271,229.9,272.8,220.1,274.7,210.1z"/>
<path class="st4" d="M271.1,215.8c0,0.5-0.2,0.9-0.5,1.3c-0.3,0.4-0.8,0.6-1.2,0.6c-0.3,0-0.5,0-0.8-0.1s-0.5-0.2-0.7-0.4
	c-0.2-0.2-0.4-0.4-0.5-0.7c-0.1-0.3-0.2-0.5-0.2-0.8c0-0.3,0.1-0.5,0.2-0.8c0.1-0.3,0.3-0.5,0.5-0.7c0.3-0.2,0.6-0.4,1-0.5
	c0.4-0.1,0.7,0,1.1,0.2c0.3,0.2,0.6,0.4,0.8,0.7C271,215.1,271.1,215.4,271.1,215.8z M271.1,215.8c0-0.2-0.1-0.4-0.1-0.7
	c-0.1-0.2-0.2-0.4-0.4-0.5c-0.2-0.2-0.5-0.3-0.8-0.4c-0.3,0-0.6,0-0.9,0.1c-0.3,0.1-0.5,0.3-0.7,0.6c-0.2,0.3-0.2,0.5-0.2,0.8
	c0,0.3,0.1,0.6,0.2,0.8c0.2,0.3,0.4,0.5,0.7,0.6c0.3,0.1,0.6,0.2,0.9,0.1c0.3,0,0.6-0.2,0.8-0.4c0.2-0.2,0.3-0.3,0.4-0.5
	C271,216.3,271.1,216,271.1,215.8z"/>
<path class="st4" d="M269.3,228.1c0,0.5-0.2,0.9-0.5,1.3c-0.3,0.4-0.8,0.6-1.2,0.6c-0.3,0-0.5,0-0.8-0.1c-0.3-0.1-0.5-0.2-0.7-0.4
	c-0.2-0.2-0.4-0.4-0.5-0.7c-0.1-0.2-0.2-0.5-0.2-0.8c0-0.3,0.1-0.5,0.2-0.8s0.3-0.5,0.5-0.7c0.2-0.2,0.4-0.3,0.7-0.4
	c0.3-0.1,0.5-0.1,0.8-0.1c0.5,0.1,0.9,0.3,1.2,0.6S269.3,227.6,269.3,228.1z M269.3,228.1c0-0.2-0.1-0.5-0.1-0.7
	c-0.1-0.2-0.2-0.4-0.4-0.5c-0.2-0.1-0.4-0.2-0.6-0.3c-0.2-0.1-0.4-0.1-0.6-0.1c-0.4,0-0.7,0.2-1,0.5c-0.3,0.3-0.4,0.7-0.4,1
	s0.1,0.8,0.4,1c0.3,0.3,0.6,0.5,1,0.5c0.2,0,0.4,0,0.7-0.1c0.2-0.1,0.4-0.2,0.6-0.3c0.2-0.1,0.3-0.3,0.4-0.5
	C269.3,228.5,269.3,228.3,269.3,228.1z"/>
<path class="st4" d="M267.2,241c0,0.5-0.2,0.9-0.5,1.3c-0.3,0.4-0.8,0.6-1.2,0.6c-0.4,0-0.8-0.1-1.1-0.3c-0.3-0.2-0.6-0.5-0.8-0.9
	c-0.2-0.4-0.2-0.8-0.1-1.2c0.1-0.4,0.3-0.8,0.5-1c0.2-0.2,0.4-0.3,0.7-0.4c0.3-0.1,0.5-0.1,0.8-0.1c0.5,0.1,0.9,0.3,1.2,0.6
	C267,240.1,267.2,240.5,267.2,241z M267.2,241c0-0.2-0.1-0.5-0.1-0.7c-0.1-0.2-0.2-0.4-0.4-0.5c-0.2-0.1-0.4-0.2-0.6-0.3
	c-0.2-0.1-0.4-0.1-0.6-0.1c-0.4,0-0.7,0.2-1,0.5c-0.3,0.3-0.4,0.7-0.4,1s0.1,0.8,0.4,1c0.3,0.3,0.6,0.5,1,0.5c0.2,0,0.4,0,0.6-0.1
	c0.2-0.1,0.4-0.2,0.6-0.3c0.2-0.1,0.3-0.3,0.4-0.5C267.1,241.4,267.2,241.2,267.2,241z"/>
<path class="st4" d="M265,253.9c0,0.5-0.2,0.9-0.5,1.3c-0.3,0.4-0.8,0.6-1.2,0.6c-0.3,0-0.5,0-0.8-0.1c-0.3-0.1-0.5-0.2-0.7-0.4
	c-0.2-0.2-0.4-0.4-0.5-0.6c-0.1-0.2-0.2-0.5-0.2-0.8c0-0.3,0.1-0.5,0.2-0.8c0.1-0.2,0.3-0.5,0.5-0.6c0.2-0.2,0.4-0.3,0.7-0.4
	c0.3-0.1,0.5-0.1,0.8-0.1c0.5,0,0.9,0.3,1.2,0.6C264.8,253,265,253.4,265,253.9z M265,253.9c0-0.2-0.1-0.5-0.1-0.7
	c-0.1-0.2-0.2-0.4-0.4-0.5c-0.2-0.1-0.4-0.2-0.6-0.3c-0.2-0.1-0.4-0.1-0.6-0.1c-0.4,0-0.7,0.2-1,0.5c-0.3,0.3-0.4,0.7-0.4,1
	c0,0.4,0.1,0.8,0.4,1c0.3,0.3,0.6,0.5,1,0.5c0.2,0,0.4,0,0.6-0.1c0.2-0.1,0.4-0.2,0.6-0.3c0.2-0.1,0.3-0.3,0.4-0.5
	C264.9,254.4,265,254.2,265,253.9z"/>
<path class="st4" d="M272.4,274.6c0,0.4-0.1,0.8-0.3,1.1c-0.2,0.3-0.5,0.6-0.9,0.7c-0.4,0.1-0.8,0.2-1.1,0.1c-0.4-0.1-0.7-0.3-1-0.6
	c-0.3-0.3-0.4-0.7-0.5-1c-0.1-0.4,0-0.8,0.2-1.1s0.5-0.6,0.8-0.8c0.3-0.2,0.7-0.3,1.1-0.2c0.5,0,0.9,0.3,1.2,0.6
	C272.2,273.6,272.4,274.1,272.4,274.6z M272.4,274.6c0-0.2-0.1-0.5-0.1-0.7c-0.1-0.2-0.2-0.4-0.4-0.5c-0.2-0.1-0.4-0.2-0.6-0.3
	c-0.2-0.1-0.4-0.1-0.6-0.1c-0.2,0-0.5,0.1-0.7,0.2c-0.2,0.1-0.4,0.3-0.5,0.5c-0.1,0.2-0.2,0.4-0.2,0.7c0,0.2,0,0.5,0.1,0.7
	c0.1,0.2,0.2,0.4,0.4,0.6c0.2,0.2,0.4,0.3,0.6,0.3s0.5,0.1,0.7,0c0.2-0.1,0.5-0.2,0.6-0.3c0.2-0.2,0.3-0.3,0.4-0.5
	C272.3,275,272.3,274.8,272.4,274.6z"/>
<path class="st4" d="M284.6,277.5c0,0.4-0.1,0.7-0.3,1c-0.2,0.3-0.5,0.6-0.8,0.7c-0.3,0.2-0.7,0.2-1.1,0.2c-0.4-0.1-0.7-0.2-1-0.5
	c-0.2-0.2-0.4-0.4-0.5-0.7c-0.1-0.3-0.2-0.5-0.2-0.8c0-0.3,0.1-0.6,0.2-0.8c0.1-0.3,0.3-0.5,0.5-0.7c0.2-0.2,0.4-0.3,0.7-0.4
	c0.3-0.1,0.5-0.1,0.8-0.1c0.5,0,0.9,0.3,1.2,0.6C284.4,276.6,284.6,277.1,284.6,277.5z M284.6,277.5c0-0.2-0.1-0.5-0.1-0.7
	c-0.1-0.2-0.2-0.4-0.4-0.5c-0.2-0.1-0.4-0.2-0.6-0.3c-0.2-0.1-0.4-0.1-0.6-0.1c-0.2,0-0.5,0.1-0.7,0.3c-0.2,0.1-0.4,0.3-0.5,0.5
	c-0.1,0.2-0.2,0.5-0.2,0.7c0,0.2,0,0.5,0.1,0.7c0.1,0.2,0.2,0.4,0.4,0.6c0.2,0.2,0.4,0.3,0.6,0.3c0.2,0.1,0.5,0.1,0.7,0
	c0.2-0.1,0.5-0.2,0.6-0.3c0.2-0.1,0.3-0.3,0.4-0.5C284.5,278,284.6,277.8,284.6,277.5z"/>
<path class="st4" d="M296.8,280.5c0,0.4-0.1,0.7-0.3,1c-0.2,0.3-0.5,0.6-0.8,0.7c-0.3,0.2-0.7,0.2-1.1,0.2c-0.4-0.1-0.7-0.2-1-0.5
	c-0.2-0.2-0.4-0.4-0.5-0.7c-0.1-0.3-0.2-0.5-0.2-0.8c0-0.3,0.1-0.5,0.2-0.8c0.1-0.3,0.3-0.5,0.5-0.7c0.2-0.2,0.4-0.3,0.7-0.4
	c0.3-0.1,0.5-0.1,0.8-0.1c0.5,0,0.9,0.3,1.2,0.6C296.6,279.6,296.8,280,296.8,280.5z M296.8,280.5c0-0.2,0-0.5-0.1-0.7
	c-0.1-0.2-0.2-0.4-0.4-0.5c-0.2-0.1-0.4-0.2-0.6-0.3c-0.2-0.1-0.4-0.1-0.6,0c-0.4,0-0.7,0.2-1,0.5c-0.3,0.3-0.4,0.7-0.4,1
	c0,0.4,0.1,0.8,0.4,1c0.3,0.3,0.6,0.5,1,0.5c0.2,0,0.4,0,0.6-0.1c0.2-0.1,0.4-0.2,0.6-0.3c0.2-0.2,0.3-0.3,0.4-0.6
	C296.7,281,296.8,280.8,296.8,280.5z"/>
<path class="st4" d="M309,283.5c0,0.4-0.1,0.7-0.3,1c-0.2,0.3-0.5,0.6-0.8,0.7c-0.3,0.2-0.7,0.2-1.1,0.2c-0.4-0.1-0.7-0.2-1-0.5
	c-0.2-0.2-0.4-0.4-0.5-0.7c-0.1-0.3-0.2-0.5-0.2-0.8c0-0.3,0.1-0.5,0.2-0.8c0.1-0.3,0.3-0.5,0.5-0.7c0.2-0.2,0.4-0.3,0.7-0.4
	c0.3-0.1,0.5-0.1,0.8-0.1c0.5,0.1,0.9,0.3,1.2,0.6C308.8,282.6,309,283,309,283.5z M309,283.5c0-0.2-0.1-0.5-0.1-0.7
	c-0.1-0.2-0.2-0.4-0.4-0.5c-0.2-0.2-0.4-0.3-0.6-0.3c-0.2-0.1-0.5-0.1-0.7,0c-0.2,0.1-0.5,0.2-0.6,0.3c-0.2,0.2-0.3,0.4-0.4,0.6
	c-0.1,0.2-0.1,0.5-0.1,0.7c0,0.2,0.1,0.5,0.2,0.7c0.1,0.2,0.3,0.4,0.5,0.5c0.2,0.1,0.4,0.2,0.7,0.2c0.2,0,0.4,0,0.6-0.1
	c0.2-0.1,0.4-0.2,0.6-0.3c0.2-0.2,0.3-0.3,0.4-0.5C308.9,284,309,283.7,309,283.5z"/>
<path class="st4" d="M321.2,286.6c-0.1,0.5-0.3,0.9-0.6,1.2c-0.3,0.3-0.8,0.5-1.3,0.5c-0.3,0-0.5,0-0.8-0.1
	c-0.2-0.1-0.5-0.2-0.7-0.4c-0.2-0.2-0.3-0.4-0.4-0.7s-0.1-0.5-0.1-0.8s0.1-0.5,0.2-0.8c0.1-0.2,0.3-0.5,0.5-0.6
	c0.2-0.2,0.5-0.3,0.7-0.3c0.3-0.1,0.5-0.1,0.8,0c0.5,0.1,0.9,0.4,1.2,0.7C321.1,285.7,321.2,286.1,321.2,286.6z M321.2,286.6
	c0-0.2,0-0.5-0.1-0.7c-0.1-0.2-0.2-0.4-0.4-0.6c-0.2-0.2-0.5-0.4-0.8-0.4c-0.3-0.1-0.6,0-0.9,0.1s-0.5,0.3-0.7,0.5
	c-0.2,0.2-0.3,0.5-0.3,0.8c0,0.3,0,0.6,0.2,0.9c0.1,0.3,0.4,0.5,0.6,0.6c0.3,0.1,0.6,0.2,0.9,0.2c0.3,0,0.6-0.1,0.8-0.3
	c0.2-0.1,0.3-0.3,0.4-0.5C321.1,287.1,321.2,286.8,321.2,286.6z"/>
<path class="st4" d="M262.9,266.9c0,0.5-0.2,0.9-0.5,1.3c-0.3,0.4-0.8,0.6-1.2,0.6c-0.5,0-1.1-0.1-1.5-0.5c-0.3-0.3-0.5-0.6-0.6-1
	c-0.1-0.4-0.1-0.8,0.1-1.2c0.2-0.4,0.4-0.7,0.8-0.9c0.4-0.2,0.8-0.3,1.2-0.3c0.5,0.1,0.9,0.3,1.2,0.6
	C262.7,265.9,262.9,266.4,262.9,266.9z M262.9,266.9c0-0.2-0.1-0.4-0.1-0.7c-0.1-0.2-0.2-0.4-0.4-0.5c-0.2-0.2-0.5-0.3-0.8-0.4
	c-0.3,0-0.6,0-0.9,0.1c-0.3,0.1-0.5,0.3-0.7,0.6c-0.2,0.3-0.2,0.5-0.2,0.8c0,0.3,0.1,0.6,0.2,0.8c0.2,0.3,0.4,0.5,0.7,0.6
	c0.3,0.1,0.6,0.2,0.9,0.1c0.3,0,0.6-0.2,0.8-0.4c0.2-0.1,0.3-0.3,0.4-0.5C262.8,267.3,262.9,267.1,262.9,266.9z"/>
<path class="st6" d="M242.3,288.3c11.6-10.4,12.5-28.3,2.1-39.9c-10.4-11.6-28.3-12.5-39.9-2.1c-11.6,10.4-12.5,28.3-2.1,39.9
	C212.9,297.8,230.7,298.7,242.3,288.3z"/>
<path class="st2" d="M244.6,275.3c4.4-11.7-1.5-24.8-13.2-29.2c-11.7-4.4-24.8,1.5-29.2,13.2c-4.4,11.7,1.5,24.8,13.2,29.2
	C227.1,292.9,240.2,287,244.6,275.3z"/>
<path class="st3" d="M222.1,259l-5.3-0.9l-0.9,5.3l5.3,0.9L222.1,259z"/>
<path class="st3" d="M217.6,252.8l-5.3-0.9l-0.9,5.3l5.3,0.9L217.6,252.8z"/>
<path class="st3" d="M238.8,256.3l-5.3-0.9l-0.9,5.3l5.3,0.9L238.8,256.3z"/>
<path class="st3" d="M214.2,273.9l-5.3-0.9l-0.9,5.3l5.3,0.9L214.2,273.9z"/>
<path class="st3" d="M235.4,277.3l-5.3-0.9l-0.9,5.3l5.3,0.9L235.4,277.3z"/>
<path class="st3" d="M220.4,269.5l-5.3-0.9l-0.9,5.3l5.3,0.9L220.4,269.5z"/>
<path class="st3" d="M226.5,265.1l-5.3-0.9l-0.9,5.3l5.3,0.9L226.5,265.1z"/>
<path class="st3" d="M232.7,260.7l-5.3-0.9l-0.9,5.3l5.3,0.9L232.7,260.7z"/>
<path class="st3" d="M231,271.2l-5.3-0.9l-0.9,5.3l5.3,0.9L231,271.2z"/>
<path class="st3" d="M321,297c9.9-12.1,8.1-29.8-3.9-39.7c-12.1-9.9-29.8-8.1-39.7,3.9c-9.9,12.1-8.1,29.8,3.9,39.7
	C293.4,310.8,311.1,309.1,321,297z"/>
<path class="st6" d="M321,297c9.9-12.1,8.1-29.8-3.9-39.7c-12.1-9.9-29.8-8.1-39.7,3.9c-9.9,12.1-8.1,29.8,3.9,39.7
	C293.4,310.8,311.1,309.1,321,297z"/>
<path class="st6" d="M326.7,285.7c-0.1,0.6-0.3,1.1-0.4,1.6l-55-11.7c0.1-1,0.3-2,0.5-3c0.8-3.7,2.3-7.1,4.5-10.2s4.9-5.7,8.1-7.7
	c3.2-2,6.7-3.3,10.4-3.9c3.7-0.6,7.5-0.5,11.1,0.4c3.6,0.9,7.1,2.5,10.1,4.7c3,2.2,5.6,5,7.5,8.2c1.9,3.2,3.2,6.8,3.8,10.5
	C327.8,278.3,327.6,282,326.7,285.7L326.7,285.7z"/>
<path class="st2" d="M307.9,300c11.5-4.8,17-18.1,12.2-29.6c-4.8-11.5-18.1-17-29.6-12.2c-11.5,4.8-17,18.1-12.2,29.6
	C283.1,299.4,296.4,304.8,307.9,300z"/>
<path class="st3" d="M304.9,266.8l-5.2-1.2l-6.2,26l5.2,1.2L304.9,266.8z"/>
<path class="st3" d="M328.3,285.1l-57.8-13.7c1.9-7.5,6.8-14,13.4-18.1c6.7-4,14.6-5.3,22.2-3.5c7.6,1.8,14.1,6.5,18.3,13.1
	C328.6,269.6,330,277.5,328.3,285.1z"/>
<path class="st6" d="M328.3,285.1l-57.8-13.7c1.9-7.5,6.8-14,13.4-18.1c6.7-4,14.6-5.3,22.2-3.5c7.6,1.8,14.1,6.5,18.3,13.1
	C328.6,269.6,330,277.5,328.3,285.1z"/>
<path class="st4" d="M250.1,295.9c0.1-2.3,1.1-4.6,2.6-6.4c0.8-0.9,1.9-1.6,3.1-2.1c1.2-0.4,2.5-0.5,3.7-0.4
	c1.3,0.1,2.5,0.6,3.5,1.3c1,0.8,1.8,1.8,2.3,3c0.9,2.2,1.1,4.6,0.6,6.8c-0.3-2.1-1-4.2-2-6.1c-0.5-0.8-1.1-1.6-1.9-2.1
	c-0.8-0.5-1.7-0.9-2.7-1c-1-0.1-2-0.1-2.9,0.2c-0.9,0.3-1.8,0.8-2.6,1.4C252.1,292.1,250.9,293.9,250.1,295.9z"/>
<path class="st5" d="M193.7,238.3c0.2-3,0.6-6,0.9-9c0.3-3,0.6-6,1-9c0.3-3,0.7-6,1.1-9c0.4-3,0.8-6,1.2-9l0.1-0.8l0.8,0.1
	c6.5,0.4,13,0.9,19.5,1.6c3.2,0.3,6.5,0.7,9.7,1.1c3.2,0.4,6.5,0.9,9.7,1.5l-19.5-1.2l-19.5-1.3l0.9-0.7c-0.4,3-0.9,6-1.3,9
	c-0.5,3-0.9,6-1.4,8.9c-0.5,3-1,6-1.5,8.9C194.9,232.4,194.3,235.4,193.7,238.3z"/>
<path class="st5" d="M198.4,261.2c0.7-3.7,2.3-7.1,4.5-10.1c0.6-0.8,1.2-1.5,1.8-2.2c0.6-0.7,1.3-1.3,2-2c0.7-0.7,1.5-1.2,2.2-1.8
	c0.8-0.6,1.6-1,2.4-1.5c0.8-0.5,1.7-0.8,2.6-1.2l2.7-0.9l2.8-0.6c0.9-0.1,1.9-0.2,2.8-0.2c3.7,0,7.4,0.7,10.8,2.1
	c-3.5-0.7-7.2-1-10.8-0.7c-3.5,0.3-7,1.4-10.1,3.1c-3.1,1.7-5.9,4-8.2,6.8C201.6,254.7,199.7,257.8,198.4,261.2z"/>
<path class="st5" d="M276.3,268.8c1.2-3.5,3.2-6.7,5.9-9.4c0.6-0.7,1.4-1.3,2.1-1.9s1.5-1.1,2.3-1.7c0.8-0.6,1.6-1,2.4-1.4
	c0.8-0.4,1.7-0.8,2.6-1.2c0.9-0.4,1.8-0.6,2.7-0.9l2.8-0.6l2.8-0.2c0.9,0,1.9,0.1,2.8,0.2c3.7,0.5,7.3,1.7,10.5,3.6
	c-3.4-1.2-7-2-10.6-2.2c-3.5-0.2-7.1,0.4-10.4,1.7c-3.3,1.3-6.4,3.2-9,5.5C280.4,262.8,278.1,265.6,276.3,268.8z"/>
<path class="st3" d="M189.1,359.2c-7.2,0-23.1-1.6-33.2-14.7c-13-16.8-8.3-48.9-8.1-50.3l5.7,0.9c0,0.3-4.5,31.1,7,45.9
	c11.3,14.5,31.7,12.4,31.9,12.4l0.6,5.7C192.7,359.1,191.3,359.2,189.1,359.2z"/>
<path class="st7" d="M189.1,359.2c-7.2,0-23.1-1.6-33.2-14.7c-13-16.8-8.3-48.9-8.1-50.3l5.7,0.9c0,0.3-4.5,31.1,7,45.9
	c11.3,14.5,31.7,12.4,31.9,12.4l0.6,5.7C192.7,359.1,191.3,359.2,189.1,359.2z"/>
<path class="st3" d="M155.1,299c-1.1,0-2.1-0.1-3.2-0.2c-9.6-1.5-13.8-7.3-15.6-11.8c-1.9-4.5-2.3-10-1.3-16.3l12.1,2
	c-0.6,3.9-0.4,7.3,0.5,9.6c0.7,1.7,2,3.7,6.3,4.4c1.9,0.3,4,0.1,6.2-3.2c1.5-2.5,2.6-5.3,3.1-8.2l12.1,2c-0.8,4.6-2.5,9-5,13
	C166.6,296,161.2,299,155.1,299z"/>
<path class="st3" d="M201.1,375.6c0-0.3-10.3-1.9-10.3-1.9l-5-33.4l12.4-4.9L201.1,375.6z"/>
<path class="st6" d="M201.1,375.6c0-0.3-10.3-1.9-10.3-1.9l-5-33.4l12.4-4.9L201.1,375.6z"/>
<path class="st3" d="M302.3,375.7c0-0.3,10.3-1.7,10.3-1.7l5.7-33.3l-12.3-5.2L302.3,375.7z"/>
<path class="st6" d="M302.3,375.7c0-0.3,10.3-1.7,10.3-1.7l5.7-33.3l-12.3-5.2L302.3,375.7z"/>
<path class="st3" d="M196.8,328c0,0,82.8-3.5,110.8,1.1c0,0-8.2,80.1-8.6,81.7c0,0-82.4-0.2-95.2,0
	C203.7,410.7,196.7,357.5,196.8,328z"/>
<path class="st6" d="M222,349.9c0,0,45.2-1.8,60.5,0.6c0,0-4.5,40.4-4.7,41.2c0,0-45-0.1-52,0C225.7,391.6,222.6,364,222,349.9z"/>
<path class="st6" d="M228.2,391.6h-2.4c0,0-3.1-27.6-3.7-41.7l2.8-0.1L228.2,391.6z"/>
<path class="st3" d="M241.5,359.9c-0.9-0.3-1.9-0.3-2.8,0c-0.9,0.3-1.7,0.8-2.3,1.5c-0.6,0.7-1,1.6-1.1,2.6
	c-0.1,0.9,0.1,1.9,0.5,2.7c0.4,0.8,1.1,1.5,2,2c0.8,0.5,1.8,0.7,2.7,0.6c0.9-0.1,1.9-0.5,2.6-1.1c0.7-0.6,1.3-1.4,1.6-2.3
	c0.4-1.2,0.3-2.5-0.3-3.6S242.7,360.3,241.5,359.9z M244.1,365.7c-0.3,0.8-0.7,1.5-1.4,2c-0.7,0.5-1.4,0.8-2.3,0.9
	c-0.8,0.1-1.7-0.1-2.4-0.5c-0.7-0.4-1.3-1-1.7-1.8c-0.4-0.7-0.5-1.6-0.4-2.4c0.1-0.8,0.4-1.6,1-2.3c0.5-0.6,1.3-1.1,2.1-1.3
	c0.8-0.2,1.7-0.2,2.4,0c0.5,0.2,1,0.4,1.4,0.8c0.4,0.4,0.8,0.8,1,1.3c0.3,0.5,0.4,1,0.5,1.6C244.3,364.6,244.2,365.2,244.1,365.7z
	 M241.5,359.9c-0.9-0.3-1.9-0.3-2.8,0c-0.9,0.3-1.7,0.8-2.3,1.5c-0.6,0.7-1,1.6-1.1,2.6c-0.1,0.9,0.1,1.9,0.5,2.7
	c0.4,0.8,1.1,1.5,2,2c0.8,0.5,1.8,0.7,2.7,0.6c0.9-0.1,1.9-0.5,2.6-1.1c0.7-0.6,1.3-1.4,1.6-2.3c0.4-1.2,0.3-2.5-0.3-3.6
	S242.7,360.3,241.5,359.9z M244.1,365.7c-0.3,0.8-0.7,1.5-1.4,2c-0.7,0.5-1.4,0.8-2.3,0.9c-0.8,0.1-1.7-0.1-2.4-0.5
	c-0.7-0.4-1.3-1-1.7-1.8c-0.4-0.7-0.5-1.6-0.4-2.4c0.1-0.8,0.4-1.6,1-2.3c0.5-0.6,1.3-1.1,2.1-1.3c0.8-0.2,1.7-0.2,2.4,0
	c0.5,0.2,1,0.4,1.4,0.8c0.4,0.4,0.8,0.8,1,1.3c0.3,0.5,0.4,1,0.5,1.6C244.3,364.6,244.2,365.2,244.1,365.7z M241.5,359.9
	c-0.9-0.3-1.9-0.3-2.8,0c-0.9,0.3-1.7,0.8-2.3,1.5c-0.6,0.7-1,1.6-1.1,2.6c-0.1,0.9,0.1,1.9,0.5,2.7c0.4,0.8,1.1,1.5,2,2
	c0.8,0.5,1.8,0.7,2.7,0.6c0.9-0.1,1.9-0.5,2.6-1.1c0.7-0.6,1.3-1.4,1.6-2.3c0.4-1.2,0.3-2.5-0.3-3.6S242.7,360.3,241.5,359.9z
	 M244.1,365.7c-0.3,0.8-0.7,1.5-1.4,2c-0.7,0.5-1.4,0.8-2.3,0.9c-0.8,0.1-1.7-0.1-2.4-0.5c-0.7-0.4-1.3-1-1.7-1.8
	c-0.4-0.7-0.5-1.6-0.4-2.4c0.1-0.8,0.4-1.6,1-2.3c0.5-0.6,1.3-1.1,2.1-1.3c0.8-0.2,1.7-0.2,2.4,0c0.5,0.2,1,0.4,1.4,0.8
	c0.4,0.4,0.8,0.8,1,1.3c0.3,0.5,0.4,1,0.5,1.6C244.3,364.6,244.2,365.2,244.1,365.7z M243.1,354.8c-1.9-0.6-4-0.6-5.9-0.1
	c-1.9,0.6-3.6,1.7-4.9,3.2c-1.3,1.5-2.1,3.4-2.3,5.4c-0.2,2,0.2,4,1.1,5.8c0.9,1.8,2.4,3.2,4.1,4.2c1.8,1,3.8,1.4,5.8,1.2
	c2-0.2,3.9-0.9,5.5-2.2s2.7-2.9,3.3-4.9c0.8-2.6,0.6-5.3-0.7-7.7C247.8,357.4,245.7,355.6,243.1,354.8L243.1,354.8z M245.3,366.1
	c-0.3,1-1,2-1.8,2.7c-0.9,0.7-1.9,1.1-3,1.2c-1.1,0.1-2.2-0.1-3.2-0.7c-1-0.5-1.7-1.3-2.2-2.3c-0.5-1-0.7-2.1-0.6-3.2
	c0.1-1.1,0.6-2.1,1.3-3c0.7-0.8,1.6-1.5,2.7-1.8c1.1-0.3,2.2-0.3,3.2,0c0.7,0.2,1.4,0.6,1.9,1s1,1,1.4,1.7c0.3,0.7,0.5,1.4,0.6,2.1
	C245.7,364.7,245.6,365.4,245.3,366.1L245.3,366.1z M244.6,365.9c0.3-0.9,0.3-1.9,0-2.8c-0.3-0.9-0.8-1.7-1.5-2.3s-1.6-1-2.6-1.1
	c-0.9-0.1-1.9,0.1-2.7,0.5c-0.8,0.4-1.5,1.1-2,2c-0.5,0.8-0.7,1.8-0.6,2.7c0.1,0.9,0.5,1.9,1.1,2.6c0.6,0.7,1.4,1.3,2.3,1.6
	c0.6,0.2,1.2,0.3,1.9,0.2c0.6-0.1,1.2-0.2,1.8-0.5c0.6-0.3,1.1-0.7,1.5-1.2C244.1,367.1,244.4,366.5,244.6,365.9L244.6,365.9z
	 M244,365.7c-0.3,0.8-0.7,1.5-1.4,2c-0.7,0.5-1.4,0.8-2.3,0.9c-0.8,0.1-1.7-0.1-2.4-0.5c-0.7-0.4-1.3-1-1.7-1.8
	c-0.4-0.7-0.5-1.6-0.4-2.4c0.1-0.8,0.4-1.6,1-2.3c0.5-0.6,1.3-1.1,2.1-1.3c0.8-0.2,1.7-0.2,2.4,0c0.5,0.2,1,0.4,1.5,0.8
	c0.4,0.4,0.8,0.8,1,1.3c0.3,0.5,0.4,1,0.5,1.6C244.3,364.6,244.2,365.2,244,365.7L244,365.7z M241.5,359.9c-0.9-0.3-1.9-0.3-2.8,0
	c-0.9,0.3-1.7,0.8-2.3,1.5c-0.6,0.7-1,1.6-1.1,2.6c-0.1,0.9,0.1,1.9,0.5,2.7c0.4,0.8,1.1,1.5,2,2c0.8,0.5,1.8,0.7,2.7,0.6
	c1-0.1,1.9-0.5,2.6-1.1c0.7-0.6,1.3-1.4,1.6-2.3c0.4-1.2,0.3-2.5-0.3-3.6C243.7,361.1,242.7,360.3,241.5,359.9L241.5,359.9z
	 M244,365.7c-0.3,0.8-0.7,1.5-1.4,2c-0.7,0.5-1.4,0.8-2.3,0.9c-0.8,0.1-1.7-0.1-2.4-0.5c-0.7-0.4-1.3-1-1.7-1.8
	c-0.4-0.7-0.5-1.6-0.4-2.4c0.1-0.8,0.4-1.6,1-2.3c0.5-0.6,1.3-1.1,2.1-1.3c0.8-0.2,1.7-0.2,2.4,0c0.5,0.2,1,0.4,1.5,0.8
	c0.4,0.4,0.8,0.8,1,1.3c0.3,0.5,0.4,1,0.5,1.6C244.3,364.6,244.2,365.2,244,365.7L244,365.7z M241.5,359.9c-0.9-0.3-1.9-0.3-2.8,0
	c-0.9,0.3-1.7,0.8-2.3,1.5c-0.6,0.7-1,1.6-1.1,2.6c-0.1,0.9,0.1,1.9,0.5,2.7c0.4,0.8,1.1,1.5,2,2c0.8,0.5,1.8,0.7,2.7,0.6
	c1-0.1,1.9-0.5,2.6-1.1c0.7-0.6,1.3-1.4,1.6-2.3c0.4-1.2,0.3-2.5-0.3-3.6C243.7,361.1,242.7,360.3,241.5,359.9L241.5,359.9z
	 M244,365.7c-0.3,0.8-0.7,1.5-1.4,2c-0.7,0.5-1.4,0.8-2.3,0.9c-0.8,0.1-1.7-0.1-2.4-0.5c-0.7-0.4-1.3-1-1.7-1.8
	c-0.4-0.7-0.5-1.6-0.4-2.4c0.1-0.8,0.4-1.6,1-2.3c0.5-0.6,1.3-1.1,2.1-1.3c0.8-0.2,1.7-0.2,2.4,0c0.5,0.2,1,0.4,1.5,0.8
	c0.4,0.4,0.8,0.8,1,1.3c0.3,0.5,0.4,1,0.5,1.6C244.3,364.6,244.2,365.2,244,365.7L244,365.7z"/>
<path class="st3" d="M239,374.3l-3.7-1.2l-0.6,2.7l3.3,1L239,374.3z"/>
<path class="st3" d="M232.3,370.8l-1.8-3.5l-2.3,1.5l1.6,3.1L232.3,370.8z"/>
<path class="st3" d="M230.1,363.6l1.2-3.7l-2.7-0.6l-1.1,3.3L230.1,363.6z"/>
<path class="st3" d="M233.5,357l3.5-1.8l-1.5-2.4l-3.1,1.6L233.5,357z"/>
<path class="st3" d="M240.7,354.7l3.7,1.2l0.6-2.7l-3.3-1L240.7,354.7z"/>
<path class="st3" d="M247.4,358.2l1.8,3.5l2.3-1.5l-1.6-3.1L247.4,358.2z"/>
<path class="st3" d="M249.6,365.4l-1.2,3.7l2.7,0.6l1-3.3L249.6,365.4z"/>
<path class="st3" d="M246.2,372l-3.4,1.8l1.5,2.4l3.1-1.6L246.2,372z"/>
<path class="st8" d="M257.8,374c-0.5-0.4-1.2-0.5-1.8-0.5c-0.6,0-1.3,0.2-1.8,0.6c-0.5,0.4-0.9,0.9-1.2,1.5
	c-0.2,0.6-0.3,1.2-0.2,1.9c0.1,0.6,0.4,1.2,0.9,1.6c0.5,0.4,1,0.8,1.7,0.9c0.6,0.1,1.3,0,1.9-0.2c0.6-0.3,1.1-0.7,1.4-1.2
	c0.5-0.7,0.6-1.6,0.5-2.4C259.1,375.2,258.6,374.5,257.8,374z M258.5,378.3c-0.3,0.5-0.7,0.8-1.3,1.1c-0.5,0.2-1.1,0.3-1.6,0.2
	c-0.6-0.1-1.1-0.4-1.5-0.8c-0.4-0.4-0.7-0.9-0.8-1.4c-0.1-0.5-0.1-1.1,0.1-1.6c0.2-0.5,0.6-1,1-1.3c0.5-0.3,1-0.5,1.6-0.5
	c0.6,0,1.1,0.2,1.6,0.5c0.3,0.2,0.6,0.5,0.8,0.8c0.2,0.3,0.4,0.7,0.4,1s0.1,0.7,0,1.1C258.8,377.6,258.7,378,258.5,378.3
	L258.5,378.3z M257.8,374c-0.5-0.4-1.2-0.5-1.8-0.5c-0.6,0-1.3,0.2-1.8,0.6c-0.5,0.4-0.9,0.9-1.2,1.5c-0.2,0.6-0.3,1.2-0.2,1.9
	c0.1,0.6,0.4,1.2,0.9,1.6c0.5,0.4,1,0.8,1.7,0.9c0.6,0.1,1.3,0,1.9-0.2c0.6-0.3,1.1-0.7,1.4-1.2c0.5-0.7,0.6-1.6,0.5-2.4
	C259.1,375.2,258.6,374.5,257.8,374z M258.5,378.3c-0.3,0.5-0.7,0.8-1.3,1.1c-0.5,0.2-1.1,0.3-1.6,0.2c-0.6-0.1-1.1-0.4-1.5-0.8
	c-0.4-0.4-0.7-0.9-0.8-1.4c-0.1-0.5-0.1-1.1,0.1-1.6c0.2-0.5,0.6-1,1-1.3c0.5-0.3,1-0.5,1.6-0.5c0.6,0,1.1,0.2,1.6,0.5
	c0.3,0.2,0.6,0.5,0.8,0.8c0.2,0.3,0.4,0.7,0.4,1s0.1,0.7,0,1.1C258.8,377.6,258.7,378,258.5,378.3L258.5,378.3z M257.8,374
	c-0.5-0.4-1.2-0.5-1.8-0.5c-0.6,0-1.3,0.2-1.8,0.6c-0.5,0.4-0.9,0.9-1.2,1.5c-0.2,0.6-0.3,1.2-0.2,1.9c0.1,0.6,0.4,1.2,0.9,1.6
	c0.5,0.4,1,0.8,1.7,0.9c0.6,0.1,1.3,0,1.9-0.2c0.6-0.3,1.1-0.7,1.4-1.2c0.5-0.7,0.6-1.6,0.5-2.4C259.1,375.2,258.6,374.5,257.8,374z
	 M258.5,378.3c-0.3,0.5-0.7,0.8-1.3,1.1c-0.5,0.2-1.1,0.3-1.6,0.2c-0.6-0.1-1.1-0.4-1.5-0.8c-0.4-0.4-0.7-0.9-0.8-1.4
	c-0.1-0.5-0.1-1.1,0.1-1.6c0.2-0.5,0.6-1,1-1.3c0.5-0.3,1-0.5,1.6-0.5c0.6,0,1.1,0.2,1.6,0.5c0.3,0.2,0.6,0.5,0.8,0.8
	c0.2,0.3,0.4,0.7,0.4,1s0.1,0.7,0,1.1C258.8,377.6,258.7,378,258.5,378.3L258.5,378.3z M259.8,371c-1.1-0.7-2.5-1.1-3.8-1.1
	c-1.3,0-2.7,0.4-3.8,1.2c-1.1,0.8-2,1.8-2.5,3.1c-0.5,1.3-0.6,2.6-0.3,3.9c0.3,1.3,0.9,2.5,1.9,3.5c1,0.9,2.2,1.6,3.5,1.8
	c1.3,0.2,2.7,0.1,3.9-0.4c1.2-0.5,2.3-1.4,3-2.5c0.5-0.8,0.8-1.6,1-2.5c0.2-0.9,0.2-1.8,0-2.7c-0.2-0.9-0.5-1.7-1-2.4
	C261.2,372.1,260.5,371.5,259.8,371z M259.2,378.8c-0.4,0.6-1,1.1-1.7,1.4c-0.7,0.3-1.4,0.4-2.2,0.2c-0.7-0.1-1.4-0.5-1.9-1
	c-0.5-0.5-0.9-1.2-1-1.9s-0.1-1.5,0.2-2.2c0.3-0.7,0.7-1.3,1.4-1.7c0.6-0.4,1.3-0.6,2.1-0.7c0.7,0,1.5,0.2,2.1,0.6
	c0.4,0.3,0.8,0.6,1,1c0.3,0.4,0.5,0.9,0.6,1.3c0.1,0.5,0.1,1,0,1.5S259.5,378.3,259.2,378.8L259.2,378.8z M258.8,378.5
	c0.3-0.5,0.5-1.2,0.5-1.8s-0.2-1.3-0.6-1.8c-0.4-0.5-0.9-0.9-1.5-1.2c-0.6-0.2-1.2-0.3-1.9-0.2c-0.6,0.1-1.2,0.4-1.6,0.9
	c-0.4,0.5-0.7,1-0.9,1.7c-0.1,0.6,0,1.3,0.2,1.9c0.2,0.6,0.7,1.1,1.2,1.4c0.7,0.5,1.6,0.6,2.4,0.5
	C257.6,379.7,258.3,379.2,258.8,378.5L258.8,378.5z M258.5,378.3c-0.3,0.5-0.7,0.8-1.3,1.1c-0.5,0.2-1.1,0.3-1.6,0.2
	c-0.6-0.1-1.1-0.4-1.5-0.8c-0.4-0.4-0.7-0.9-0.8-1.4c-0.1-0.5-0.1-1.1,0.1-1.6c0.2-0.5,0.6-1,1-1.3c0.5-0.3,1-0.5,1.6-0.5
	c0.6,0,1.1,0.2,1.6,0.5c0.3,0.2,0.6,0.5,0.8,0.8c0.2,0.3,0.4,0.7,0.4,1s0.1,0.7,0,1.1C258.8,377.6,258.7,378,258.5,378.3
	L258.5,378.3z M257.8,374c-0.5-0.4-1.2-0.5-1.8-0.5c-0.6,0-1.3,0.2-1.8,0.6c-0.5,0.4-0.9,0.9-1.2,1.5c-0.2,0.6-0.3,1.2-0.2,1.9
	c0.1,0.6,0.4,1.2,0.9,1.6c0.5,0.4,1,0.8,1.7,0.9c0.6,0.1,1.3,0,1.9-0.2c0.6-0.3,1.1-0.7,1.4-1.2c0.5-0.7,0.6-1.6,0.5-2.4
	C259.1,375.2,258.6,374.5,257.8,374z M258.5,378.3c-0.3,0.5-0.7,0.8-1.3,1.1c-0.5,0.2-1.1,0.3-1.6,0.2c-0.6-0.1-1.1-0.4-1.5-0.8
	c-0.4-0.4-0.7-0.9-0.8-1.4c-0.1-0.5-0.1-1.1,0.1-1.6c0.2-0.5,0.6-1,1-1.3c0.5-0.3,1-0.5,1.6-0.5c0.6,0,1.1,0.2,1.6,0.5
	c0.3,0.2,0.6,0.5,0.8,0.8c0.2,0.3,0.4,0.7,0.4,1s0.1,0.7,0,1.1C258.8,377.6,258.7,378,258.5,378.3L258.5,378.3z M257.8,374
	c-0.5-0.4-1.2-0.5-1.8-0.5c-0.6,0-1.3,0.2-1.8,0.6c-0.5,0.4-0.9,0.9-1.2,1.5c-0.2,0.6-0.3,1.2-0.2,1.9c0.1,0.6,0.4,1.2,0.9,1.6
	c0.5,0.4,1,0.8,1.7,0.9c0.6,0.1,1.3,0,1.9-0.2c0.6-0.3,1.1-0.7,1.4-1.2c0.5-0.7,0.6-1.6,0.5-2.4C259.1,375.2,258.6,374.5,257.8,374z
	 M258.5,378.3c-0.3,0.5-0.7,0.8-1.3,1.1c-0.5,0.2-1.1,0.3-1.6,0.2c-0.6-0.1-1.1-0.4-1.5-0.8c-0.4-0.4-0.7-0.9-0.8-1.4
	c-0.1-0.5-0.1-1.1,0.1-1.6c0.2-0.5,0.6-1,1-1.3c0.5-0.3,1-0.5,1.6-0.5c0.6,0,1.1,0.2,1.6,0.5c0.3,0.2,0.6,0.5,0.8,0.8
	c0.2,0.3,0.4,0.7,0.4,1s0.1,0.7,0,1.1C258.8,377.6,258.7,378,258.5,378.3L258.5,378.3z"/>
<path class="st8" d="M253.6,382.9l-2.2-1.4l-0.9,1.6l2,1.3L253.6,382.9z"/>
<path class="st8" d="M249.9,379.5l-0.5-2.6l-1.8,0.5l0.5,2.3L249.9,379.5z"/>
<path class="st8" d="M249.7,374.4l1.4-2.2l-1.6-0.9l-1.3,2L249.7,374.4z"/>
<path class="st8" d="M253.2,370.7l2.6-0.5l-0.5-1.8l-2.3,0.5L253.2,370.7z"/>
<path class="st8" d="M258.3,370.5l2.2,1.4l0.9-1.6l-2-1.3L258.3,370.5z"/>
<path class="st8" d="M262,374l0.6,2.6l1.8-0.5l-0.5-2.3L262,374z"/>
<path class="st8" d="M262.1,379l-1.4,2.2l1.6,0.9l1.3-2L262.1,379z"/>
<path class="st8" d="M258.7,382.8l-2.6,0.5l0.5,1.8l2.3-0.5L258.7,382.8z"/>
<path class="st3" d="M305.6,401.4l3.2,0.6l9.1-61.6l-3.6-0.7L305.6,401.4z"/>
<path class="st3" d="M277.7,391.6l4.7-41.2l31.8-10.8c0,0-8.7,62.4-8.7,61.7L277.7,391.6z"/>
<path class="st7" d="M277.7,391.6l4.7-41.2l31.8-10.8c0,0-8.7,62.4-8.7,61.7L277.7,391.6z"/>
<path class="st5" d="M200.6,352.1c-0.5-3.4-0.8-6.9-1-10.3c-0.1-1.7-0.1-3.5-0.2-5.2c0-1.7-0.1-3.4,0-5.2V331h0.4
	c6.3-0.3,12.6-0.8,19-1c6.4-0.2,12.6-0.6,19-0.8c-6.3,0.6-12.6,1.1-18.9,1.5c-6.3,0.5-12.6,0.8-18.9,1.3l0.5-0.5v5.1l0.1,5.1
	c0,1.7,0,3.4,0.1,5.1L200.6,352.1z"/>
<path class="st5" d="M286.9,351.1c2-0.9,4-1.8,6-2.6s4-1.6,6.1-2.3c2.1-0.7,4.1-1.4,6.2-2c2.1-0.6,4.2-1.1,6.4-1.5l0.5-0.1l-0.1,0.5
	c-0.5,2.7-1,5.3-1.6,8c0.2-2.7,0.6-5.4,0.9-8.1l0.4,0.4c-2.1,0.5-4.2,1.1-6.3,1.7c-2.1,0.6-4.2,1.3-6.2,1.9L286.9,351.1z"/>
<path class="st4" d="M214.4,328.1l0.5,10.3l0.5,10.3l0.8,20.6l0.6,20.6l0.2,10.3l0.2,10.3l-0.5-10.3l-0.4-10.3l-0.8-20.6l-0.6-20.6
	l-0.2-10.3L214.4,328.1z"/>
<path class="st4" d="M211.4,334.3c0.1,0.4,0,0.7-0.1,1.1c-0.1,0.3-0.4,0.6-0.7,0.9c-0.3,0.2-0.7,0.3-1,0.4c-0.4,0-0.7-0.1-1.1-0.3
	c-0.2-0.1-0.4-0.3-0.6-0.6c-0.2-0.2-0.3-0.5-0.3-0.8c-0.1-0.3,0-0.5,0-0.8c0.1-0.3,0.2-0.5,0.3-0.7c0.2-0.2,0.4-0.4,0.6-0.5
	c0.2-0.1,0.5-0.2,0.7-0.2c0.5,0,1,0.1,1.3,0.4C211.1,333.4,211.4,333.9,211.4,334.3z M211.4,334.3c-0.1-0.3-0.3-0.7-0.5-0.9
	c-0.3-0.2-0.6-0.4-1-0.4c-0.4,0-0.7,0.1-1,0.3c-0.3,0.2-0.5,0.5-0.6,0.9c-0.1,0.3,0,0.7,0.1,1c0.2,0.3,0.4,0.6,0.7,0.7
	c0.3,0.2,0.7,0.2,1,0.1c0.3-0.1,0.7-0.3,0.9-0.6c0.1-0.2,0.2-0.4,0.3-0.6C211.5,334.8,211.5,334.6,211.4,334.3z"/>
<path class="st4" d="M212.2,346.7c0.1,0.5,0,1-0.2,1.4c-0.2,0.4-0.6,0.7-1.1,0.9c-0.3,0.1-0.5,0.1-0.8,0.1c-0.3,0-0.5-0.1-0.8-0.3
	c-0.2-0.1-0.4-0.3-0.6-0.5c-0.2-0.2-0.3-0.5-0.3-0.7c-0.1-0.3,0-0.5,0-0.8c0.1-0.3,0.2-0.5,0.3-0.7c0.2-0.2,0.4-0.4,0.6-0.5
	c0.2-0.1,0.5-0.2,0.7-0.2c0.5,0,1,0.1,1.3,0.4C211.8,345.8,212.1,346.2,212.2,346.7z M212.2,346.7c0-0.2-0.1-0.4-0.3-0.6
	c-0.1-0.2-0.3-0.3-0.5-0.4c-0.2-0.1-0.4-0.2-0.6-0.2c-0.2,0-0.4,0-0.6,0.1c-0.3,0.1-0.5,0.3-0.7,0.5c-0.2,0.2-0.3,0.5-0.4,0.8
	c0,0.3,0,0.6,0.2,0.9c0.1,0.3,0.3,0.5,0.6,0.7c0.3,0.2,0.6,0.2,0.9,0.2c0.3,0,0.6-0.1,0.8-0.3c0.2-0.2,0.4-0.4,0.5-0.7
	C212.2,347.3,212.2,347,212.2,346.7z"/>
<path class="st4" d="M212.6,359.8c0.1,0.5,0,1-0.2,1.4c-0.2,0.4-0.6,0.7-1.1,0.9c-0.5,0.1-1.1,0.1-1.5-0.2c-0.2-0.1-0.4-0.3-0.6-0.6
	c-0.2-0.2-0.3-0.5-0.3-0.8c-0.1-0.3,0-0.5,0-0.8c0.1-0.3,0.2-0.5,0.3-0.7c0.2-0.3,0.5-0.5,0.9-0.6c0.4-0.1,0.7-0.1,1.1-0.1
	c0.4,0.1,0.7,0.3,1,0.5C212.4,359.1,212.5,359.4,212.6,359.8z M212.6,359.8c0-0.2-0.1-0.4-0.3-0.6c-0.1-0.2-0.3-0.3-0.5-0.4
	c-0.2-0.1-0.4-0.2-0.6-0.2c-0.2,0-0.4,0-0.6,0.1c-0.3,0.1-0.5,0.3-0.7,0.5c-0.2,0.2-0.3,0.5-0.4,0.8c0,0.3,0,0.6,0.2,0.9
	c0.1,0.3,0.3,0.5,0.6,0.7c0.3,0.2,0.6,0.2,0.9,0.2c0.3,0,0.6-0.1,0.8-0.3c0.2-0.2,0.4-0.4,0.5-0.7
	C212.6,360.4,212.7,360.1,212.6,359.8z"/>
<path class="st4" d="M213.1,372.9c0.1,0.5,0,1-0.2,1.4c-0.2,0.4-0.6,0.7-1.1,0.9c-0.3,0.1-0.5,0.1-0.8,0c-0.3,0-0.5-0.1-0.7-0.3
	s-0.4-0.3-0.6-0.5c-0.2-0.2-0.3-0.5-0.3-0.7c-0.1-0.3,0-0.5,0-0.8c0.1-0.3,0.2-0.5,0.3-0.7c0.2-0.3,0.5-0.5,0.9-0.6
	c0.4-0.1,0.7-0.1,1.1-0.1c0.4,0.1,0.7,0.3,1,0.5C212.8,372.2,213,372.5,213.1,372.9z M213.1,372.9c0-0.2-0.1-0.4-0.3-0.6
	c-0.1-0.2-0.3-0.3-0.5-0.5c-0.4-0.2-0.8-0.2-1.2-0.1c-0.4,0.1-0.7,0.4-0.9,0.7c-0.2,0.3-0.3,0.7-0.2,1.1c0.1,0.4,0.3,0.7,0.6,0.9
	c0.3,0.2,0.7,0.3,1.1,0.3c0.2,0,0.4-0.1,0.6-0.2c0.2-0.1,0.4-0.2,0.5-0.4c0.1-0.2,0.2-0.4,0.3-0.6
	C213.1,373.4,213.1,373.1,213.1,372.9z"/>
<path class="st4" d="M213.5,386c0.1,0.4,0,0.7-0.1,1.1c-0.1,0.3-0.4,0.6-0.7,0.9c-0.3,0.2-0.7,0.3-1,0.4c-0.4,0-0.7-0.1-1.1-0.3
	c-0.2-0.1-0.4-0.3-0.6-0.6c-0.2-0.2-0.3-0.5-0.3-0.7c-0.1-0.3,0-0.6,0-0.8c0.1-0.3,0.2-0.5,0.3-0.7c0.2-0.2,0.4-0.4,0.6-0.5
	c0.2-0.1,0.5-0.2,0.7-0.2c0.5,0,0.9,0.1,1.3,0.4C213.1,385.1,213.4,385.5,213.5,386z M213.5,386c0-0.2-0.1-0.4-0.3-0.6
	c-0.1-0.2-0.3-0.3-0.5-0.4c-0.2-0.1-0.4-0.2-0.6-0.2c-0.2,0-0.4,0-0.6,0.1c-0.4,0.1-0.7,0.4-0.9,0.7c-0.2,0.3-0.3,0.7-0.2,1.1
	c0.1,0.4,0.3,0.7,0.6,0.9c0.3,0.2,0.7,0.3,1.1,0.3c0.2,0,0.4-0.1,0.6-0.2c0.2-0.1,0.4-0.3,0.5-0.4c0.1-0.2,0.2-0.4,0.3-0.6
	C213.6,386.4,213.6,386.2,213.5,386L213.5,386z"/>
<path class="st4" d="M214,399.1c0.1,0.2,0.1,0.5,0,0.8c0,0.2-0.1,0.5-0.3,0.7c-0.1,0.2-0.3,0.4-0.5,0.5c-0.2,0.1-0.4,0.2-0.7,0.3
	c-0.2,0.1-0.5,0.1-0.8,0c-0.2,0-0.5-0.1-0.7-0.3c-0.2-0.1-0.4-0.3-0.5-0.5s-0.2-0.4-0.3-0.7c-0.1-0.3-0.1-0.5,0-0.8
	c0.1-0.3,0.2-0.5,0.3-0.7c0.2-0.2,0.4-0.4,0.6-0.5c0.2-0.1,0.5-0.2,0.8-0.2c0.5,0,0.9,0.1,1.3,0.4
	C213.6,398.2,213.9,398.6,214,399.1z M214,399.1c0-0.2-0.1-0.4-0.3-0.6c-0.1-0.2-0.3-0.3-0.5-0.4c-0.2-0.1-0.4-0.2-0.6-0.2
	c-0.2,0-0.4,0-0.6,0.1c-0.4,0.1-0.7,0.4-0.9,0.7c-0.2,0.3-0.3,0.7-0.2,1.1c0.1,0.4,0.3,0.7,0.6,0.9c0.3,0.2,0.7,0.3,1.1,0.3
	c0.2,0,0.4-0.1,0.6-0.2c0.2-0.1,0.4-0.3,0.5-0.4c0.1-0.2,0.2-0.4,0.3-0.6C214,399.6,214,399.3,214,399.1z"/>
<path class="st3" d="M218,419.2l-46.9,14.2l1.7,5.5l46.9-14.2L218,419.2z"/>
<path class="st7" d="M218,419.2l-46.9,14.2l1.7,5.5l46.9-14.2L218,419.2z"/>
<path class="st3" d="M195.6,424.1l-5.5,1.7l2.6,8.1l5.5-1.7L195.6,424.1z"/>
<path class="st3" d="M172.4,446.9l-12.1-52.4l-36.5,8.7l18,51L172.4,446.9z"/>
<path class="st3" d="M180.5,444.2l-8.1,2.7l-12.1-52.4l11.6,2.8L180.5,444.2z"/>
<path class="st6" d="M180.5,444.2l-8.1,2.7l-12.1-52.4l11.6,2.8L180.5,444.2z"/>
<path class="st3" d="M218.9,428.1c3.4,0,6.2-2.8,6.2-6.2c0-3.4-2.8-6.2-6.2-6.2c-3.4,0-6.2,2.8-6.2,6.2
	C212.6,425.3,215.4,428.1,218.9,428.1z"/>
<path class="st3" d="M282.8,419l-1.7,5.5l46.8,14.3l1.7-5.5L282.8,419z"/>
<path class="st7" d="M282.8,419l-1.7,5.5l46.8,14.3l1.7-5.5L282.8,419z"/>
<path class="st3" d="M305.3,424l-2.6,8.1l5.4,1.7l2.6-8.1L305.3,424z"/>
<path class="st3" d="M328.4,446.8l12.2-52.4l36.5,8.7l-18.1,51L328.4,446.8z"/>
<path class="st3" d="M320.3,444.1l8.1,2.7l12.2-52.4l-11.6,2.8L320.3,444.1z"/>
<path class="st6" d="M320.3,444.1l8.1,2.7l12.2-52.4l-11.6,2.8L320.3,444.1z"/>
<path class="st3" d="M275.8,421.7c0,1.2,0.4,2.4,1,3.5c0.7,1,1.6,1.8,2.8,2.3c1.1,0.5,2.4,0.6,3.6,0.4c1.2-0.2,2.3-0.8,3.2-1.7
	c0.9-0.9,1.5-2,1.7-3.2s0.1-2.5-0.3-3.6c-0.5-1.1-1.3-2.1-2.3-2.8c-1-0.7-2.2-1.1-3.5-1.1c-0.8,0-1.6,0.2-2.4,0.5
	c-0.8,0.3-1.4,0.8-2,1.3c-0.6,0.6-1,1.3-1.4,2C275.9,420.1,275.8,420.9,275.8,421.7z"/>
<path class="st3" d="M322.7,357.1c0.1-0.1,15.2-14.1,32.9-9.3c18.1,4.9,33.1,32.2,33.2,32.4l5-2.7c-0.7-1.2-16.3-29.7-36.8-35.2
	c-20.9-5.6-37.6,10-38.4,10.7L322.7,357.1z"/>
<path class="st7" d="M322.7,357.1c0.1-0.1,15.2-14.1,32.9-9.3c18.1,4.9,33.1,32.2,33.2,32.4l5-2.7c-0.7-1.2-16.3-29.7-36.8-35.2
	c-20.9-5.6-37.6,10-38.4,10.7L322.7,357.1z"/>
<path class="st3" d="M382.1,407.7L393,402c-1.4-2.6-2.2-5.5-2.5-8.4c-0.2-4,1.3-5.4,3.1-6.3c3.8-2,6.1-1.2,7.6-0.3
	c2.2,1.3,4.4,3.9,6.2,7.4l10.9-5.7c-3-5.6-6.6-9.7-10.8-12.2s-11-4.5-19.6,0c-6.7,3.5-10.1,9.9-9.6,17.9
	C378.6,399,380,403.5,382.1,407.7z"/>
<path class="st2" d="M325,338c2.4-1.6,4.8-3.1,7.2-4.7c2.4-1.5,4.9-3,7.3-4.4c2.4-1.4,4.9-2.9,7.4-4.2l3.8-2c1.3-0.6,2.5-1.3,3.8-2
	c-1.2,0.8-2.4,1.6-3.6,2.4l-3.6,2.3c-2.4,1.5-4.9,3-7.3,4.4c-2.4,1.4-4.9,2.9-7.4,4.2C330.1,335.3,327.5,336.8,325,338z"/>
<path class="st2" d="M318.7,361.4c3.4,1.9,6.6,4.1,9.7,6.3s6.2,4.6,9.1,7.1c-3.3-1.9-6.6-4-9.7-6.3
	C324.7,366.3,321.6,364,318.7,361.4z"/>
<path class="st2" d="M324.2,358.5c2.6,0.8,5.2,1.7,7.7,2.6c2.6,0.9,5,1.9,7.6,2.9s5,2,7.5,3l3.7,1.6c1.2,0.6,2.5,1.1,3.7,1.7
	c-1.3-0.4-2.6-0.8-3.9-1.2l-3.8-1.3c-2.6-0.9-5.1-1.9-7.6-2.8c-2.5-1-5-2-7.5-3S326.7,359.7,324.2,358.5z"/>
<path class="st2" d="M331.6,340.2c2.5-0.6,5-1.2,7.5-1.7c2.5-0.5,5-1,7.6-1.5s5-0.9,7.6-1.2l3.8-0.5c1.3-0.1,2.5-0.3,3.8-0.4
	c-1.2,0.3-2.5,0.6-3.8,0.9l-3.8,0.8c-2.5,0.5-5,1-7.6,1.4c-2.6,0.5-5.1,0.9-7.6,1.2C336.7,339.6,334.2,340,331.6,340.2z"/>
<path class="st2" d="M271.6,355.8c0.4-2,1.1-4,2-5.9c0.9-1.9,2-3.7,3.3-5.3c1.3-1.6,3-2.9,5-3.8c2-0.8,4.3-0.7,6.3,0.1
	c2,0.8,3.6,2.4,4.5,4.5c0.4,1,0.7,2,0.8,3.1c0.1,1.1,0,2.2-0.4,3.3c-0.2,0.6-0.6,1.1-1.1,1.4c-0.3,0.2-0.6,0.3-0.9,0.3
	c-0.3,0.1-0.7,0-1-0.1c-0.6-0.3-1-0.7-1.3-1.3c-0.3-0.5-0.5-1-0.6-1.5c-0.5-2.1-0.7-4.2-0.5-6.3c0.2-4.2,1.5-8.4,3.6-12
	c1.1-1.8,2.6-3.4,4.3-4.6c1.7-1.2,3.8-2,5.9-2.3c1-0.2,2.1-0.3,3.1-0.3c0.5,0,1.1,0,1.6,0.1c0.5,0,1,0.1,1.6,0.2
	c2.1,0.4,4,1.2,5.9,2.2c1.8,1.1,3.4,2.4,4.9,3.9c1.5,1.5,2.8,3.1,3.9,4.9c-2.3-3.4-5.4-6.2-9-8.3c-1.8-1-3.7-1.6-5.7-2
	c-1-0.1-2-0.2-3-0.2c-1,0-2,0.1-3,0.3c-2,0.3-3.9,1.1-5.5,2.2c-1.6,1.2-3,2.7-4.1,4.4c-2.1,3.5-3.2,7.5-3.4,11.5c-0.2,2,0,4,0.5,6
	c0.2,0.9,0.7,2,1.3,2.2c0.1,0,0.2,0,0.2,0c0.1,0,0.2,0,0.3,0c0.2,0,0.4-0.1,0.5-0.2c0.3-0.2,0.6-0.6,0.8-1c0.3-0.9,0.4-1.9,0.3-2.8
	c-0.1-1-0.4-1.9-0.8-2.9c-0.8-1.8-2.2-3.3-4-4.1c-1.8-0.8-3.9-0.8-5.8-0.2c-1.9,0.7-3.6,1.9-4.9,3.5
	C274.6,348.1,272.7,351.8,271.6,355.8z"/>
<path class="st2" d="M179.2,381.7c1-1.8,2.3-3.4,4-4.6c1.7-1.3,3.6-2.2,5.6-2.7c2.1-0.5,4.2-0.5,6.2,0.1c2,0.6,3.9,1.8,5.3,3.3
	c1.5,1.5,2.6,3.3,3.3,5.3c0.8,2,1.1,4.1,1,6.2c0,1.1-0.4,2.2-1.2,3.1c-0.4,0.5-1,0.7-1.7,0.8c-0.6,0-1.2-0.1-1.7-0.4
	c-0.5-0.3-1-0.8-1.2-1.3c-0.2-0.5-0.4-1.1-0.4-1.7c0-1.1,0.2-2.2,0.5-3.2c0.7-2,1.7-3.9,3.1-5.5c1.3-1.7,2.8-3.1,4.5-4.4
	c3.4-2.6,7.7-3.7,11.9-3.3c2.1,0.2,4.1,0.9,5.9,1.9c1.8,1,3.4,2.4,4.7,4.1c1.3,1.6,2.3,3.5,3.1,5.4c0.8,1.9,1.3,3.9,1.6,6
	c-0.8-4-2.5-7.8-5.1-11c-1.3-1.6-2.9-2.9-4.6-3.8c-1.8-0.9-3.7-1.5-5.7-1.7c-4-0.4-8.1,0.8-11.3,3.2c-3.3,2.4-5.8,5.6-7.2,9.4
	c-0.3,0.9-0.5,1.9-0.5,2.9c0,0.4,0.1,0.9,0.2,1.2c0.2,0.4,0.5,0.7,0.8,0.9c0.4,0.2,0.8,0.3,1.2,0.3c0.2,0,0.4,0,0.6-0.1
	c0.2-0.1,0.3-0.2,0.5-0.3c0.6-0.7,0.9-1.6,0.9-2.6c0.1-2-0.2-4-1-5.8c-0.7-1.9-1.8-3.6-3.1-5.1c-1.4-1.5-3.1-2.6-5-3.2
	c-1.9-0.6-4-0.7-5.9-0.3C184.8,375.8,181.4,378.3,179.2,381.7z"/>
<path class="st2" d="M133,140.2c0-4.1-1-8.2-2.9-11.9c-0.9-1.8-2.2-3.4-3.9-4.5c-1.7-1.1-3.7-1.5-5.7-1.2c-1.9,0.3-3.7,1.4-4.9,3
	c-0.6,0.8-1.1,1.6-1.4,2.6c-0.3,0.9-0.5,1.9-0.4,2.8c0,0.4,0.2,0.8,0.5,1.1c0.1,0.1,0.3,0.3,0.5,0.3c0.1,0,0.2,0.1,0.3,0.1
	c0.1,0,0.2,0,0.2,0c0.7-0.1,1.4-1,1.8-1.9c0.9-1.8,1.5-3.7,1.8-5.7c0.8-4,0.6-8.1-0.6-12c-0.6-1.9-1.6-3.7-2.9-5.2
	c-1.3-1.5-3-2.7-4.8-3.5c-0.9-0.4-1.9-0.8-2.8-1c-1-0.2-2-0.4-3-0.5c-2-0.1-4,0.1-6,0.6c-4,1.1-7.6,3.1-10.7,5.9
	c1.5-1.5,3.1-2.7,4.9-3.8c1.8-1.1,3.7-1.9,5.7-2.6c2-0.6,4.1-0.8,6.2-0.8c1,0.1,2.1,0.2,3.1,0.4c1,0.2,2,0.6,3,1
	c2,0.8,3.8,2,5.2,3.6c1.4,1.6,2.5,3.5,3.1,5.5c1.2,4,1.5,8.3,0.7,12.5c-0.3,2.1-1,4.1-2,6c-0.3,0.5-0.6,0.9-0.9,1.4
	c-0.4,0.5-0.9,0.9-1.6,1c-0.3,0-0.7,0-1-0.2c-0.3-0.1-0.6-0.3-0.8-0.5c-0.4-0.5-0.7-1-0.7-1.6c-0.1-1.1,0-2.2,0.4-3.3
	c0.4-1,0.9-2,1.6-2.8c1.3-1.8,3.3-2.9,5.4-3.3c2.2-0.3,4.3,0.2,6.1,1.4c1.7,1.3,3.1,2.9,4,4.8c0.9,1.9,1.6,3.9,2,5.9
	C132.9,136.1,133.1,138.2,133,140.2z"/>
<path class="st2" d="M353.8,192.4c-4-0.9-8.2-0.9-12.2,0c-2,0.5-3.8,1.4-5.3,2.7c-1.5,1.4-2.3,3.2-2.5,5.2c-0.1,2,0.5,3.9,1.8,5.4
	c0.6,0.8,1.4,1.5,2.2,2c0.8,0.5,1.7,0.9,2.7,1c0.4,0,0.9,0,1.2-0.2c0.2-0.1,0.3-0.2,0.4-0.4c0.1-0.1,0.1-0.2,0.1-0.3s0-0.2,0.1-0.2
	c0-0.7-0.7-1.6-1.4-2.2c-1.5-1.3-3.3-2.4-5.1-3.1c-3.7-1.7-7.8-2.5-11.8-2.2c-2,0.1-4,0.7-5.8,1.6c-1.8,0.9-3.3,2.3-4.5,3.9
	c-0.6,0.8-1.2,1.6-1.7,2.5c-0.2,0.4-0.5,0.9-0.6,1.4c-0.2,0.5-0.4,0.9-0.5,1.4c-0.6,1.9-0.9,4-0.8,6c0.2,4.1,1.3,8.2,3.2,11.8
	c-1.1-1.8-1.9-3.7-2.6-5.6c-0.6-2-1-4-1.2-6.1c-0.1-2.1,0.1-4.2,0.7-6.2c0.1-0.5,0.3-1,0.5-1.5c0.2-0.5,0.4-1,0.6-1.4
	c0.5-0.9,1-1.8,1.7-2.7c1.2-1.8,2.8-3.2,4.7-4.2c1.9-1,4-1.6,6.1-1.7c4.2-0.3,8.4,0.5,12.3,2.2c2,0.8,3.8,2,5.4,3.4
	c0.4,0.4,0.8,0.8,1.1,1.2c0.4,0.5,0.6,1.1,0.6,1.8c0,0.3-0.2,0.7-0.4,0.9c-0.2,0.3-0.4,0.5-0.7,0.6c-0.5,0.3-1.2,0.4-1.8,0.3
	c-1.1-0.1-2.2-0.5-3.1-1.2c-0.9-0.6-1.7-1.3-2.4-2.2c-1.4-1.7-2.1-3.8-1.9-6c0.2-2.2,1.2-4.2,2.8-5.6c1.6-1.4,3.6-2.3,5.6-2.7
	c2-0.4,4.1-0.6,6.2-0.5C349.7,191.5,351.8,191.8,353.8,192.4z"/>
<path class="st2" d="M291.9,127.7c-0.7-2.4-0.8-4.9-0.4-7.3c0.4-2.5,1.2-4.9,2.6-7c1.3-2.2,3.2-3.9,5.4-5.1c2.3-1.2,4.8-1.7,7.3-1.6
	c2.5,0.1,5,0.7,7.3,1.8c2.3,1,4.4,2.5,6.1,4.5c0.9,1,1.5,2.2,1.6,3.6c0,0.7-0.3,1.5-0.8,2c-0.5,0.5-1.1,0.9-1.8,1.1
	c-0.7,0.2-1.4,0.2-2.1-0.1c-0.6-0.3-1.2-0.6-1.7-1.1c-0.9-0.9-1.7-2-2.2-3.2c-1.1-2.3-1.8-4.7-2-7.2c-0.3-2.5-0.2-5,0.2-7.5
	c0.8-5,3.4-9.6,7.4-12.7c2-1.5,4.3-2.7,6.7-3.3c2.4-0.6,4.9-0.8,7.4-0.5c2.5,0.3,4.9,1,7.1,2c2.3,1,4.4,2.2,6.4,3.7
	c-4-2.8-8.7-4.6-13.5-5.2c-2.4-0.3-4.9-0.1-7.2,0.6c-4.7,1.4-8.6,4.5-11,8.8c-1.2,2.1-2,4.4-2.4,6.8c-0.8,4.8-0.2,9.7,1.7,14.2
	c0.5,1.1,1.2,2.1,2,2.9c0.3,0.4,0.8,0.7,1.3,0.9c0.5,0.2,1.1,0.2,1.6,0.1c0.5-0.2,1-0.4,1.4-0.8c0.2-0.2,0.3-0.4,0.4-0.6
	c0.1-0.2,0.1-0.5,0.1-0.7c-0.1-1.1-0.6-2.2-1.4-3c-1.6-1.8-3.5-3.3-5.7-4.2c-2.2-1-4.6-1.6-7-1.7c-2.4-0.1-4.8,0.4-7,1.4
	c-2.2,1.1-4,2.7-5.3,4.8c-1.4,2-2.3,4.3-2.7,6.7S291.4,125.3,291.9,127.7z"/>
<path class="st1" d="M175.9,381.9c-0.8-0.3-1.7-0.3-2.5,0s-1.5,0.7-2.1,1.3c-0.5,0.6-0.9,1.4-1,2.3c-0.1,0.8,0.1,1.7,0.5,2.4
	c0.4,0.7,1,1.4,1.7,1.8c0.7,0.4,1.6,0.6,2.4,0.5c0.8-0.1,1.6-0.4,2.3-0.9c0.7-0.5,1.1-1.2,1.4-2c0.3-1.1,0.2-2.2-0.3-3.2
	C177.8,383,176.9,382.3,175.9,381.9z M178.2,387.1c-0.2,0.7-0.6,1.3-1.2,1.8s-1.3,0.7-2,0.8c-0.7,0.1-1.5-0.1-2.1-0.4
	c-0.6-0.4-1.2-0.9-1.5-1.5s-0.5-1.4-0.4-2.1c0.1-0.7,0.4-1.4,0.8-2c0.5-0.6,1.1-1,1.8-1.2c0.7-0.2,1.5-0.2,2.2,0
	c0.9,0.3,1.7,1,2.2,1.8C178.4,385.1,178.5,386.2,178.2,387.1z M175.9,381.9c-0.8-0.3-1.7-0.3-2.5,0s-1.5,0.7-2.1,1.3
	c-0.5,0.6-0.9,1.4-1,2.3c-0.1,0.8,0.1,1.7,0.5,2.4c0.4,0.7,1,1.4,1.7,1.8c0.7,0.4,1.6,0.6,2.4,0.5c0.8-0.1,1.6-0.4,2.3-0.9
	c0.7-0.5,1.1-1.2,1.4-2c0.3-1.1,0.2-2.2-0.3-3.2C177.8,383,176.9,382.3,175.9,381.9z M178.2,387.1c-0.2,0.7-0.6,1.3-1.2,1.8
	s-1.3,0.7-2,0.8c-0.7,0.1-1.5-0.1-2.1-0.4c-0.6-0.4-1.2-0.9-1.5-1.5s-0.5-1.4-0.4-2.1c0.1-0.7,0.4-1.4,0.8-2c0.5-0.6,1.1-1,1.8-1.2
	c0.7-0.2,1.5-0.2,2.2,0c0.9,0.3,1.7,1,2.2,1.8C178.4,385.1,178.5,386.2,178.2,387.1z M175.9,381.9c-0.8-0.3-1.7-0.3-2.5,0
	s-1.5,0.7-2.1,1.3c-0.5,0.6-0.9,1.4-1,2.3c-0.1,0.8,0.1,1.7,0.5,2.4c0.4,0.7,1,1.4,1.7,1.8c0.7,0.4,1.6,0.6,2.4,0.5
	c0.8-0.1,1.6-0.4,2.3-0.9c0.7-0.5,1.1-1.2,1.4-2c0.3-1.1,0.2-2.2-0.3-3.2C177.8,383,176.9,382.3,175.9,381.9z M178.2,387.1
	c-0.2,0.7-0.6,1.3-1.2,1.8s-1.3,0.7-2,0.8c-0.7,0.1-1.5-0.1-2.1-0.4c-0.6-0.4-1.2-0.9-1.5-1.5s-0.5-1.4-0.4-2.1
	c0.1-0.7,0.4-1.4,0.8-2c0.5-0.6,1.1-1,1.8-1.2c0.7-0.2,1.5-0.2,2.2,0c0.9,0.3,1.7,1,2.2,1.8C178.4,385.1,178.5,386.2,178.2,387.1z
	 M177.3,377.4c-1.7-0.5-3.5-0.6-5.2-0.1c-1.7,0.5-3.2,1.5-4.4,2.8c-1.1,1.4-1.9,3-2.1,4.8c-0.2,1.8,0.1,3.6,1,5.1
	c0.8,1.6,2.1,2.9,3.7,3.7c1.6,0.9,3.3,1.2,5.1,1.1c1.8-0.2,3.5-0.8,4.9-2c1.4-1.1,2.4-2.6,2.9-4.3c0.7-2.3,0.5-4.7-0.6-6.8
	C181.4,379.7,179.6,378.2,177.3,377.4z M179.3,387.4c-0.3,0.9-0.9,1.7-1.6,2.4c-0.8,0.6-1.7,1-2.6,1.1c-1,0.1-1.9-0.1-2.8-0.6
	c-0.9-0.5-1.5-1.2-2-2c-0.4-0.9-0.6-1.8-0.5-2.8c0.1-1,0.5-1.9,1.1-2.6c0.6-0.7,1.5-1.3,2.4-1.6c0.9-0.3,1.9-0.3,2.9,0
	c0.6,0.2,1.2,0.5,1.7,0.9c0.5,0.4,0.9,0.9,1.2,1.5s0.5,1.2,0.5,1.8C179.6,386.2,179.5,386.8,179.3,387.4L179.3,387.4z M178.7,387.2
	c0.3-0.8,0.3-1.7,0-2.5c-0.2-0.8-0.7-1.5-1.3-2.1c-0.6-0.5-1.4-0.9-2.3-1c-0.8-0.1-1.7,0.1-2.4,0.5c-0.7,0.4-1.4,1-1.8,1.7
	c-0.4,0.7-0.6,1.6-0.5,2.4c0.1,0.8,0.4,1.6,0.9,2.3s1.2,1.1,2,1.4c1.1,0.3,2.2,0.2,3.2-0.3C177.6,389.2,178.3,388.3,178.7,387.2
	L178.7,387.2z M178.2,387.1c-0.2,0.7-0.6,1.3-1.2,1.8s-1.3,0.7-2,0.8c-0.7,0.1-1.5-0.1-2.1-0.4c-0.6-0.4-1.2-0.9-1.5-1.5
	c-0.3-0.7-0.5-1.4-0.4-2.1c0.1-0.7,0.4-1.4,0.8-2c0.5-0.6,1.1-1,1.8-1.2c0.7-0.2,1.5-0.2,2.2,0c0.5,0.1,0.9,0.4,1.3,0.7
	c0.4,0.3,0.7,0.7,0.9,1.1c0.2,0.4,0.4,0.9,0.4,1.4C178.4,386.1,178.3,386.6,178.2,387.1L178.2,387.1z M175.9,381.9
	c-0.8-0.3-1.7-0.3-2.5,0c-0.8,0.2-1.5,0.7-2.1,1.3c-0.5,0.6-0.9,1.4-1,2.3c-0.1,0.8,0.1,1.7,0.5,2.4s1,1.4,1.7,1.8
	c0.7,0.4,1.6,0.6,2.4,0.5c0.8-0.1,1.6-0.4,2.3-0.9c0.7-0.5,1.1-1.2,1.4-2c0.3-1.1,0.2-2.2-0.3-3.2
	C177.8,383,176.9,382.3,175.9,381.9L175.9,381.9z M178.2,387.1c-0.2,0.7-0.6,1.3-1.2,1.8s-1.3,0.7-2,0.8c-0.7,0.1-1.5-0.1-2.1-0.4
	c-0.6-0.4-1.2-0.9-1.5-1.5c-0.3-0.7-0.5-1.4-0.4-2.1c0.1-0.7,0.4-1.4,0.8-2c0.5-0.6,1.1-1,1.8-1.2c0.7-0.2,1.5-0.2,2.2,0
	c0.5,0.1,0.9,0.4,1.3,0.7c0.4,0.3,0.7,0.7,0.9,1.1c0.2,0.4,0.4,0.9,0.4,1.4C178.4,386.1,178.3,386.6,178.2,387.1L178.2,387.1z
	 M175.9,381.9c-0.8-0.3-1.7-0.3-2.5,0c-0.8,0.2-1.5,0.7-2.1,1.3c-0.5,0.6-0.9,1.4-1,2.3c-0.1,0.8,0.1,1.7,0.5,2.4s1,1.4,1.7,1.8
	c0.7,0.4,1.6,0.6,2.4,0.5c0.8-0.1,1.6-0.4,2.3-0.9c0.7-0.5,1.1-1.2,1.4-2c0.3-1.1,0.2-2.2-0.3-3.2
	C177.8,383,176.9,382.3,175.9,381.9L175.9,381.9z M178.2,387.1c-0.2,0.7-0.6,1.3-1.2,1.8s-1.3,0.7-2,0.8c-0.7,0.1-1.5-0.1-2.1-0.4
	c-0.6-0.4-1.2-0.9-1.5-1.5c-0.3-0.7-0.5-1.4-0.4-2.1c0.1-0.7,0.4-1.4,0.8-2c0.5-0.6,1.1-1,1.8-1.2c0.7-0.2,1.5-0.2,2.2,0
	c0.5,0.1,0.9,0.4,1.3,0.7c0.4,0.3,0.7,0.7,0.9,1.1c0.2,0.4,0.4,0.9,0.4,1.4C178.4,386.1,178.3,386.6,178.2,387.1L178.2,387.1z"/>
<path class="st1" d="M173.7,394.7l-3.3-1l-0.5,2.4l2.9,0.9L173.7,394.7z"/>
<path class="st1" d="M167.8,391.6l-1.6-3.1l-2.1,1.3l1.4,2.7L167.8,391.6z"/>
<path class="st1" d="M165.8,385.3l1-3.3l-2.4-0.5l-0.9,2.9L165.8,385.3z"/>
<path class="st1" d="M168.8,379.4l3.1-1.6l-1.3-2.1l-2.7,1.4L168.8,379.4z"/>
<path class="st1" d="M175.2,377.4l3.3,1l0.6-2.4l-2.9-0.9L175.2,377.4z"/>
<path class="st1" d="M181.1,380.4l1.6,3.1l2.1-1.3l-1.4-2.7L181.1,380.4z"/>
<path class="st1" d="M183.1,386.8l-1,3.3l2.4,0.5l0.9-2.9L183.1,386.8z"/>
<path class="st1" d="M180,392.7l-3.1,1.6l1.3,2.1l2.7-1.4L180,392.7z"/>
<path class="st2" d="M341.7,353.4c1.6-2.2,2.5-4.8,2.7-7.5c0.1-2.7-0.5-5.4-1.9-7.7c-1.4-2.3-3.4-4.2-5.9-5.3
	c-2.4-1.2-5.2-1.6-7.9-1.2c-2.7,0.4-5.2,1.6-7.2,3.4c-2,1.8-3.4,4.2-4.1,6.8c-0.7,2.6-0.5,5.4,0.4,7.9c0.9,2.6,2.6,4.8,4.7,6.4
	c2.9,2.2,6.6,3.1,10.2,2.5C336.3,358.2,339.5,356.3,341.7,353.4z M335.8,349c-0.8,1-1.8,1.8-3,2.2c-1.2,0.4-2.5,0.5-3.7,0.2
	c-1.2-0.3-2.3-1-3.2-1.9c-0.9-0.9-1.4-2.1-1.6-3.4c-0.2-1.3,0-2.5,0.5-3.7c0.5-1.1,1.4-2.1,2.5-2.8c1.1-0.6,2.3-1,3.6-0.9
	c1.3,0.1,2.5,0.5,3.5,1.3c0.7,0.5,1.2,1.1,1.7,1.9s0.7,1.5,0.8,2.4c0.1,0.8,0.1,1.7-0.1,2.5C336.7,347.6,336.3,348.3,335.8,349z"/>
<path class="st2" d="M325,357.3l-4.2-3.1l-2,3.2l3.8,2.8L325,357.3z"/>
<path class="st2" d="M318,349.9l-0.8-5.2l-3.7,0.8l0.7,4.6L318,349.9z"/>
<path class="st2" d="M318.3,339.7l3.1-4.2l-3.2-2l-2.8,3.8L318.3,339.7z"/>
<path class="st2" d="M325.7,332.7l5.2-0.8l-0.8-3.6l-4.6,0.7L325.7,332.7z"/>
<path class="st2" d="M335.8,333l4.2,3.1l2-3.2l-3.8-2.8L335.8,333z"/>
<path class="st2" d="M342.8,340.4l0.8,5.2l3.6-0.8l-0.7-4.6L342.8,340.4z"/>
<path class="st2" d="M342.5,350.6l-3.1,4.2l3.2,2l2.8-3.8L342.5,350.6z"/>
<path class="st2" d="M335.1,357.6l-5.2,0.8l0.8,3.6l4.6-0.7L335.1,357.6z"/>
<path class="st2" d="M325.8,345.8l2.9,3.7l4.6-0.7l1.7-4.4l-2.9-3.7l-4.6,0.7L325.8,345.8z M331.3,344c0.2,0.1,0.3,0.3,0.4,0.4
	c0.1,0.2,0.2,0.4,0.2,0.5c0,0.2,0,0.4,0,0.6c0,0.2-0.1,0.4-0.2,0.5c-0.1,0.2-0.3,0.3-0.4,0.4c-0.2,0.1-0.4,0.2-0.5,0.2
	c-0.2,0-0.4,0-0.6,0c-0.2,0-0.4-0.1-0.5-0.2c-0.3-0.2-0.5-0.6-0.6-1c-0.1-0.4,0-0.8,0.3-1.1c0.1-0.2,0.3-0.3,0.4-0.4
	c0.2-0.1,0.4-0.2,0.5-0.2c0.2,0,0.4,0,0.6,0C331,343.8,331.1,343.9,331.3,344L331.3,344z"/>
<path class="st2" d="M351.9,86.6c-0.7-0.2-1.5-0.2-2.2,0c-0.7,0.2-1.3,0.6-1.8,1.2c-0.5,0.6-0.8,1.3-0.8,2c-0.1,0.7,0.1,1.5,0.4,2.1
	c0.3,0.7,0.9,1.2,1.5,1.5c0.6,0.4,1.4,0.5,2.1,0.4c0.7-0.1,1.4-0.3,2-0.8s1-1.1,1.2-1.8c0.1-0.5,0.2-1,0.2-1.4c0-0.5-0.2-1-0.4-1.4
	c-0.2-0.4-0.5-0.8-0.9-1.1C352.8,87,352.4,86.7,351.9,86.6z M353.9,91.1c-0.2,0.6-0.6,1.2-1.1,1.6c-0.5,0.4-1.1,0.7-1.8,0.7
	c-0.6,0.1-1.3-0.1-1.9-0.4c-0.6-0.3-1-0.8-1.3-1.4c-0.3-0.6-0.4-1.2-0.3-1.9c0.1-0.6,0.3-1.3,0.7-1.7c0.4-0.5,1-0.9,1.6-1
	c0.6-0.2,1.3-0.2,1.9,0c0.8,0.3,1.5,0.8,1.9,1.6C354.1,89.4,354.2,90.3,353.9,91.1z M351.9,86.6c-0.7-0.2-1.5-0.2-2.2,0
	c-0.7,0.2-1.3,0.6-1.8,1.2c-0.5,0.6-0.8,1.3-0.8,2c-0.1,0.7,0.1,1.5,0.4,2.1c0.3,0.7,0.9,1.2,1.5,1.5c0.6,0.4,1.4,0.5,2.1,0.4
	c0.7-0.1,1.4-0.3,2-0.8s1-1.1,1.2-1.8c0.1-0.5,0.2-1,0.2-1.4c0-0.5-0.2-1-0.4-1.4c-0.2-0.4-0.5-0.8-0.9-1.1
	C352.8,87,352.4,86.7,351.9,86.6z M353.9,91.1c-0.2,0.6-0.6,1.2-1.1,1.6c-0.5,0.4-1.1,0.7-1.8,0.7c-0.6,0.1-1.3-0.1-1.9-0.4
	c-0.6-0.3-1-0.8-1.3-1.4c-0.3-0.6-0.4-1.2-0.3-1.9c0.1-0.6,0.3-1.3,0.7-1.7c0.4-0.5,1-0.9,1.6-1c0.6-0.2,1.3-0.2,1.9,0
	c0.8,0.3,1.5,0.8,1.9,1.6C354.1,89.4,354.2,90.3,353.9,91.1z M351.9,86.6c-0.7-0.2-1.5-0.2-2.2,0c-0.7,0.2-1.3,0.6-1.8,1.2
	c-0.5,0.6-0.8,1.3-0.8,2c-0.1,0.7,0.1,1.5,0.4,2.1c0.3,0.7,0.9,1.2,1.5,1.5c0.6,0.4,1.4,0.5,2.1,0.4c0.7-0.1,1.4-0.3,2-0.8
	s1-1.1,1.2-1.8c0.1-0.5,0.2-1,0.2-1.4c0-0.5-0.2-1-0.4-1.4c-0.2-0.4-0.5-0.8-0.9-1.1C352.8,87,352.4,86.7,351.9,86.6z M353.9,91.1
	c-0.2,0.6-0.6,1.2-1.1,1.6c-0.5,0.4-1.1,0.7-1.8,0.7c-0.6,0.1-1.3-0.1-1.9-0.4c-0.6-0.3-1-0.8-1.3-1.4c-0.3-0.6-0.4-1.2-0.3-1.9
	c0.1-0.6,0.3-1.3,0.7-1.7c0.4-0.5,1-0.9,1.6-1c0.6-0.2,1.3-0.2,1.9,0c0.8,0.3,1.5,0.8,1.9,1.6C354.1,89.4,354.2,90.3,353.9,91.1z
	 M353.2,82.7c-1.5-0.5-3.1-0.5-4.6,0c-1.5,0.4-2.8,1.3-3.8,2.5c-1,1.2-1.6,2.6-1.8,4.2s0.1,3.1,0.8,4.5c0.7,1.4,1.8,2.5,3.2,3.3
	c1.4,0.7,2.9,1.1,4.5,0.9c1.5-0.1,3-0.7,4.2-1.7c1.2-1,2.1-2.3,2.6-3.8c0.6-2,0.4-4.1-0.5-6C356.8,84.7,355.2,83.3,353.2,82.7z
	 M354.9,91.4c-0.3,0.8-0.7,1.5-1.4,2.1c-0.7,0.5-1.5,0.9-2.3,0.9c-0.8,0.1-1.7-0.1-2.4-0.5c-0.7-0.4-1.4-1-1.7-1.8
	c-0.4-0.8-0.6-1.6-0.5-2.5c0.1-0.8,0.4-1.6,1-2.3c0.5-0.7,1.3-1.1,2.1-1.4c0.8-0.2,1.7-0.2,2.5,0c1.1,0.3,2,1.1,2.5,2.1
	C355.2,89.2,355.3,90.4,354.9,91.4z M354.4,91.3c0.2-0.7,0.2-1.5,0-2.2c-0.2-0.7-0.6-1.3-1.2-1.8c-0.6-0.5-1.3-0.8-2-0.8
	c-0.7-0.1-1.5,0.1-2.1,0.4c-0.7,0.3-1.2,0.9-1.5,1.5c-0.4,0.6-0.5,1.4-0.4,2.1c0.1,0.7,0.3,1.4,0.8,2c0.5,0.6,1.1,1,1.8,1.2
	c0.9,0.3,2,0.2,2.8-0.3C353.4,93,354.1,92.2,354.4,91.3z M353.9,91.1c-0.2,0.6-0.6,1.2-1.1,1.6c-0.5,0.4-1.1,0.7-1.8,0.7
	c-0.6,0.1-1.3-0.1-1.9-0.4c-0.6-0.3-1-0.8-1.3-1.4c-0.3-0.6-0.4-1.2-0.3-1.9c0.1-0.6,0.3-1.3,0.7-1.7c0.4-0.5,1-0.9,1.6-1
	c0.6-0.2,1.3-0.2,1.9,0c0.8,0.3,1.5,0.8,1.9,1.6C354.1,89.4,354.2,90.3,353.9,91.1z M351.9,86.6c-0.7-0.2-1.5-0.2-2.2,0
	c-0.7,0.2-1.3,0.6-1.8,1.2c-0.5,0.6-0.8,1.3-0.8,2c-0.1,0.7,0.1,1.5,0.4,2.1c0.3,0.7,0.9,1.2,1.5,1.5c0.6,0.4,1.4,0.5,2.1,0.4
	c0.7-0.1,1.4-0.3,2-0.8s1-1.1,1.2-1.8c0.1-0.5,0.2-1,0.2-1.4c0-0.5-0.2-1-0.4-1.4c-0.2-0.4-0.5-0.8-0.9-1.1
	C352.8,87,352.4,86.7,351.9,86.6z M353.9,91.1c-0.2,0.6-0.6,1.2-1.1,1.6c-0.5,0.4-1.1,0.7-1.8,0.7c-0.6,0.1-1.3-0.1-1.9-0.4
	c-0.6-0.3-1-0.8-1.3-1.4c-0.3-0.6-0.4-1.2-0.3-1.9c0.1-0.6,0.3-1.3,0.7-1.7c0.4-0.5,1-0.9,1.6-1c0.6-0.2,1.3-0.2,1.9,0
	c0.8,0.3,1.5,0.8,1.9,1.6C354.1,89.4,354.2,90.3,353.9,91.1z M351.9,86.6c-0.7-0.2-1.5-0.2-2.2,0c-0.7,0.2-1.3,0.6-1.8,1.2
	c-0.5,0.6-0.8,1.3-0.8,2c-0.1,0.7,0.1,1.5,0.4,2.1c0.3,0.7,0.9,1.2,1.5,1.5c0.6,0.4,1.4,0.5,2.1,0.4c0.7-0.1,1.4-0.3,2-0.8
	s1-1.1,1.2-1.8c0.1-0.5,0.2-1,0.2-1.4c0-0.5-0.2-1-0.4-1.4c-0.2-0.4-0.5-0.8-0.9-1.1C352.8,87,352.4,86.7,351.9,86.6z M353.9,91.1
	c-0.2,0.6-0.6,1.2-1.1,1.6c-0.5,0.4-1.1,0.7-1.8,0.7c-0.6,0.1-1.3-0.1-1.9-0.4c-0.6-0.3-1-0.8-1.3-1.4c-0.3-0.6-0.4-1.2-0.3-1.9
	c0.1-0.6,0.3-1.3,0.7-1.7c0.4-0.5,1-0.9,1.6-1c0.6-0.2,1.3-0.2,1.9,0c0.8,0.3,1.5,0.8,1.9,1.6C354.1,89.4,354.2,90.3,353.9,91.1z"/>
<path class="st2" d="M350,97.8l-2.9-0.9l-0.5,2.1l2.6,0.8L350,97.8z"/>
<path class="st2" d="M344.8,95.1l-1.4-2.7l-1.8,1.1l1.2,2.4L344.8,95.1z"/>
<path class="st2" d="M343.1,89.5l0.9-2.9l-2.1-0.5l-0.8,2.6L343.1,89.5z"/>
<path class="st2" d="M345.8,84.3l2.7-1.4l-1.1-1.8l-2.4,1.2L345.8,84.3z"/>
<path class="st2" d="M351.3,82.6l2.9,0.9l0.5-2.1l-2.6-0.8L351.3,82.6z"/>
<path class="st2" d="M356.5,85.3l1.4,2.7l1.8-1.1l-1.2-2.4L356.5,85.3z"/>
<path class="st2" d="M358.3,90.9l-0.9,2.9l2.1,0.5l0.8-2.6L358.3,90.9z"/>
<path class="st2" d="M355.6,96l-2.7,1.4l1.1,1.8l2.4-1.2L355.6,96z"/>
<path class="st2" d="M313.7,229.5c-0.7-0.2-1.5-0.2-2.2,0c-0.7,0.2-1.3,0.6-1.8,1.2c-0.5,0.6-0.8,1.3-0.8,2
	c-0.1,0.7,0.1,1.5,0.4,2.1c0.3,0.7,0.9,1.2,1.5,1.5c0.6,0.4,1.4,0.5,2.1,0.4c0.7-0.1,1.4-0.3,2-0.8c0.6-0.5,1-1.1,1.2-1.8
	c0.3-0.9,0.2-2-0.3-2.8C315.5,230.4,314.7,229.8,313.7,229.5z M315.7,234c-0.2,0.6-0.6,1.2-1.1,1.6c-0.5,0.4-1.1,0.7-1.8,0.7
	c-0.6,0.1-1.3-0.1-1.9-0.4c-0.6-0.3-1-0.8-1.3-1.4c-0.3-0.6-0.4-1.2-0.3-1.9c0.1-0.6,0.3-1.2,0.7-1.7c0.4-0.5,1-0.9,1.6-1
	c0.6-0.2,1.3-0.2,1.9,0c0.4,0.1,0.8,0.3,1.1,0.6c0.3,0.3,0.6,0.6,0.8,1c0.2,0.4,0.3,0.8,0.4,1.2C315.9,233.2,315.9,233.6,315.7,234
	L315.7,234z M313.7,229.5c-0.7-0.2-1.5-0.2-2.2,0c-0.7,0.2-1.3,0.6-1.8,1.2c-0.5,0.6-0.8,1.3-0.8,2c-0.1,0.7,0.1,1.5,0.4,2.1
	c0.3,0.7,0.9,1.2,1.5,1.5c0.6,0.4,1.4,0.5,2.1,0.4c0.7-0.1,1.4-0.3,2-0.8c0.6-0.5,1-1.1,1.2-1.8c0.3-0.9,0.2-2-0.3-2.8
	C315.5,230.4,314.7,229.8,313.7,229.5z M315.7,234c-0.2,0.6-0.6,1.2-1.1,1.6c-0.5,0.4-1.1,0.7-1.8,0.7c-0.6,0.1-1.3-0.1-1.9-0.4
	c-0.6-0.3-1-0.8-1.3-1.4c-0.3-0.6-0.4-1.2-0.3-1.9c0.1-0.6,0.3-1.2,0.7-1.7c0.4-0.5,1-0.9,1.6-1c0.6-0.2,1.3-0.2,1.9,0
	c0.4,0.1,0.8,0.3,1.1,0.6c0.3,0.3,0.6,0.6,0.8,1c0.2,0.4,0.3,0.8,0.4,1.2C315.9,233.2,315.9,233.6,315.7,234L315.7,234z
	 M313.7,229.5c-0.7-0.2-1.5-0.2-2.2,0c-0.7,0.2-1.3,0.6-1.8,1.2c-0.5,0.6-0.8,1.3-0.8,2c-0.1,0.7,0.1,1.5,0.4,2.1
	c0.3,0.7,0.9,1.2,1.5,1.5c0.6,0.4,1.4,0.5,2.1,0.4c0.7-0.1,1.4-0.3,2-0.8c0.6-0.5,1-1.1,1.2-1.8c0.3-0.9,0.2-2-0.3-2.8
	C315.5,230.4,314.7,229.8,313.7,229.5z M315.7,234c-0.2,0.6-0.6,1.2-1.1,1.6c-0.5,0.4-1.1,0.7-1.8,0.7c-0.6,0.1-1.3-0.1-1.9-0.4
	c-0.6-0.3-1-0.8-1.3-1.4c-0.3-0.6-0.4-1.2-0.3-1.9c0.1-0.6,0.3-1.2,0.7-1.7c0.4-0.5,1-0.9,1.6-1c0.6-0.2,1.3-0.2,1.9,0
	c0.4,0.1,0.8,0.3,1.1,0.6c0.3,0.3,0.6,0.6,0.8,1c0.2,0.4,0.3,0.8,0.4,1.2C315.9,233.2,315.9,233.6,315.7,234L315.7,234z M315,225.5
	c-1.5-0.5-3.1-0.5-4.6,0c-1.5,0.4-2.8,1.3-3.8,2.5c-1,1.2-1.6,2.6-1.8,4.2s0.1,3.1,0.8,4.5c0.7,1.4,1.8,2.5,3.2,3.3
	c1.4,0.7,2.9,1.1,4.5,0.9c1.5-0.1,3-0.7,4.2-1.7c1.2-1,2.1-2.3,2.6-3.8c0.6-2,0.4-4.1-0.5-6C318.6,227.6,317,226.2,315,225.5
	L315,225.5z M316.7,234.3c-0.3,0.8-0.7,1.5-1.4,2.1c-0.7,0.5-1.5,0.9-2.3,0.9c-0.8,0.1-1.7-0.1-2.4-0.5c-0.7-0.4-1.4-1-1.7-1.8
	s-0.6-1.6-0.5-2.5c0.1-0.8,0.4-1.6,1-2.3c0.5-0.7,1.3-1.1,2.1-1.4c0.8-0.2,1.7-0.2,2.5,0c1.1,0.3,2,1.1,2.5,2.1
	C316.9,232,317.1,233.2,316.7,234.3L316.7,234.3z M316.2,234.1c0.2-0.7,0.2-1.5,0-2.2c-0.2-0.7-0.6-1.3-1.2-1.8
	c-0.6-0.5-1.3-0.8-2-0.8c-0.7-0.1-1.5,0.1-2.1,0.4c-0.7,0.3-1.2,0.9-1.5,1.5c-0.4,0.6-0.5,1.4-0.4,2.1c0.1,0.7,0.3,1.4,0.8,2
	c0.5,0.6,1.1,1,1.8,1.2c0.9,0.3,2,0.2,2.8-0.3C315.2,235.9,315.9,235.1,316.2,234.1L316.2,234.1z M315.7,234
	c-0.2,0.6-0.6,1.2-1.1,1.6c-0.5,0.4-1.1,0.7-1.8,0.7c-0.6,0.1-1.3-0.1-1.9-0.4c-0.6-0.3-1-0.8-1.3-1.4c-0.3-0.6-0.4-1.2-0.3-1.9
	c0.1-0.6,0.3-1.2,0.7-1.7c0.4-0.5,1-0.9,1.6-1c0.6-0.2,1.3-0.2,1.9,0c0.4,0.1,0.8,0.3,1.1,0.6c0.3,0.3,0.6,0.6,0.8,1
	c0.2,0.4,0.3,0.8,0.4,1.2C315.9,233.2,315.9,233.6,315.7,234L315.7,234z M313.7,229.5c-0.7-0.2-1.5-0.2-2.2,0
	c-0.7,0.2-1.3,0.6-1.8,1.2c-0.5,0.6-0.8,1.3-0.8,2c-0.1,0.7,0.1,1.5,0.4,2.1c0.3,0.7,0.9,1.2,1.5,1.5c0.6,0.4,1.4,0.5,2.1,0.4
	c0.7-0.1,1.4-0.3,2-0.8c0.6-0.5,1-1.1,1.2-1.8c0.3-0.9,0.2-2-0.3-2.8C315.5,230.4,314.7,229.8,313.7,229.5z M315.7,234
	c-0.2,0.6-0.6,1.2-1.1,1.6c-0.5,0.4-1.1,0.7-1.8,0.7c-0.6,0.1-1.3-0.1-1.9-0.4c-0.6-0.3-1-0.8-1.3-1.4c-0.3-0.6-0.4-1.2-0.3-1.9
	c0.1-0.6,0.3-1.2,0.7-1.7c0.4-0.5,1-0.9,1.6-1c0.6-0.2,1.3-0.2,1.9,0c0.4,0.1,0.8,0.3,1.1,0.6c0.3,0.3,0.6,0.6,0.8,1
	c0.2,0.4,0.3,0.8,0.4,1.2C315.9,233.2,315.9,233.6,315.7,234L315.7,234z M313.7,229.5c-0.7-0.2-1.5-0.2-2.2,0
	c-0.7,0.2-1.3,0.6-1.8,1.2c-0.5,0.6-0.8,1.3-0.8,2c-0.1,0.7,0.1,1.5,0.4,2.1c0.3,0.7,0.9,1.2,1.5,1.5c0.6,0.4,1.4,0.5,2.1,0.4
	c0.7-0.1,1.4-0.3,2-0.8c0.6-0.5,1-1.1,1.2-1.8c0.3-0.9,0.2-2-0.3-2.8C315.5,230.4,314.7,229.8,313.7,229.5z M315.7,234
	c-0.2,0.6-0.6,1.2-1.1,1.6c-0.5,0.4-1.1,0.7-1.8,0.7c-0.6,0.1-1.3-0.1-1.9-0.4c-0.6-0.3-1-0.8-1.3-1.4c-0.3-0.6-0.4-1.2-0.3-1.9
	c0.1-0.6,0.3-1.2,0.7-1.7c0.4-0.5,1-0.9,1.6-1c0.6-0.2,1.3-0.2,1.9,0c0.4,0.1,0.8,0.3,1.1,0.6c0.3,0.3,0.6,0.6,0.8,1
	c0.2,0.4,0.3,0.8,0.4,1.2C315.9,233.2,315.9,233.6,315.7,234L315.7,234z"/>
<path class="st2" d="M311.8,240.6l-2.9-0.9l-0.5,2.1l2.6,0.8L311.8,240.6z"/>
<path class="st2" d="M306.6,237.9l-1.4-2.7l-1.8,1.1l1.2,2.4L306.6,237.9z"/>
<path class="st2" d="M304.9,232.4l0.9-2.9l-2.1-0.5l-0.8,2.6L304.9,232.4z"/>
<path class="st2" d="M307.6,227.2l2.7-1.4l-1.1-1.8l-2.4,1.2L307.6,227.2z"/>
<path class="st2" d="M313.1,225.5l2.9,0.9l0.5-2.1l-2.6-0.8L313.1,225.5z"/>
<path class="st2" d="M318.3,228.2l1.4,2.7l1.8-1.1l-1.2-2.4L318.3,228.2z"/>
<path class="st2" d="M320,233.7l-0.9,2.9l2.1,0.5l0.8-2.6L320,233.7z"/>
<path class="st2" d="M317.4,238.9l-2.7,1.4l1.1,1.8l2.4-1.2L317.4,238.9z"/>
<path class="st2" d="M95,117c0.6-2.3,0.4-4.6-0.4-6.8s-2.2-4.1-4.1-5.5c-1.9-1.4-4.1-2.2-6.5-2.3c-2.3-0.1-4.6,0.5-6.6,1.7
	c-2,1.2-3.6,3-4.6,5.1c-1,2.1-1.3,4.5-1,6.8c0.4,2.3,1.4,4.4,3,6.2c1.6,1.7,3.6,2.9,5.9,3.5c3,0.7,6.2,0.2,8.9-1.4
	C92.3,122.7,94.3,120,95,117z M88.9,115.5c-0.3,1.1-0.8,2-1.6,2.8c-0.8,0.7-1.8,1.2-2.9,1.4s-2.2,0-3.2-0.5c-1-0.5-1.8-1.2-2.4-2.1
	c-0.6-0.9-0.8-2-0.8-3.1c0.1-1.1,0.4-2.1,1.1-3c0.7-0.9,1.5-1.5,2.6-1.9c1-0.4,2.1-0.4,3.2-0.2c1.4,0.3,2.6,1.2,3.4,2.5
	C89,112.6,89.3,114.1,88.9,115.5L88.9,115.5z"/>
<path class="st2" d="M83.1,125.7l-4.4-1.1l-0.5,3.2l3.9,0.9L83.1,125.7z"/>
<path class="st2" d="M75.1,122.2l-2.4-3.9l-2.6,1.9l2.1,3.5L75.1,122.2z"/>
<path class="st2" d="M71.9,114l1.1-4.4l-3.2-0.5l-1,3.9L71.9,114z"/>
<path class="st2" d="M75.4,106l3.9-2.4l-1.9-2.6l-3.4,2.1L75.4,106z"/>
<path class="st2" d="M83.6,102.8l4.4,1.1l0.5-3.2l-3.9-1L83.6,102.8z"/>
<path class="st2" d="M91.6,106.3l2.3,3.9l2.6-1.9l-2.1-3.4L91.6,106.3z"/>
<path class="st2" d="M94.8,114.5l-1.1,4.4l3.2,0.5l1-3.9L94.8,114.5z"/>
<path class="st2" d="M91.3,122.5l-3.9,2.4l1.9,2.6l3.4-2.1L91.3,122.5z"/>
<path class="st2" d="M79.9,116.4l3.5,1.9l3.4-2.1l-0.1-4l-3.5-1.9l-3.4,2.1L79.9,116.4z M83.6,113c0.2,0.1,0.5,0.2,0.6,0.4
	c0.2,0.2,0.3,0.4,0.3,0.7c0,0.2,0,0.5-0.1,0.7c-0.1,0.2-0.3,0.4-0.5,0.6c-0.2,0.1-0.5,0.2-0.7,0.2c-0.3,0-0.5-0.1-0.7-0.2
	c-0.2-0.1-0.4-0.4-0.4-0.6c-0.1-0.2-0.1-0.5,0-0.7c0.1-0.3,0.3-0.6,0.6-0.8C83,113,83.3,112.9,83.6,113z"/>
<path class="st1" d="M361.6,238.9c-2.7-4-4.2-8.7-4.2-13.6c0-17.2,18.9-31.1,42.2-31.1s42.1,13.9,42.1,31.1s-18.9,31.1-42.1,31.1
	c-11.3,0-21.5-3.3-29.1-8.6l-14.5,3.7L361.6,238.9z"/>
<path class="st2" d="M361.6,238.9c-2.6-3.8-4.1-8.2-4.3-12.9c-0.2-4.6,1-9.2,3.4-13.1c2.4-4,5.5-7.4,9.3-10.1
	c3.7-2.7,7.9-4.8,12.2-6.2c4.4-1.4,8.9-2.3,13.5-2.6c4.6-0.3,9.2-0.1,13.7,0.7c1.1,0.2,2.3,0.4,3.4,0.7l3.3,0.9l3.2,1.1
	c1.1,0.4,2.1,0.9,3.2,1.4c4.2,2,8,4.6,11.3,7.8c3.3,3.2,5.8,7.3,7.3,11.7c1.4,4.5,1.5,9.3,0.1,13.8c-1.4,4.4-3.8,8.5-7.1,11.8
	c-3.3,3.3-7,6-11.2,8c-4.2,2-8.6,3.4-13.1,4.2c-4.5,0.8-9.1,1.1-13.7,0.8c-4.6-0.3-9.1-1.1-13.5-2.6c-4.4-1.4-8.5-3.5-12.3-6.1h0.2
	l-14.5,3.5l-0.2,0.1l0.1-0.2L361.6,238.9z M361.6,238.9l-5.5,12.7l-0.1-0.1l14.5-3.8h0.1l0.1,0.1c7.6,5,16.4,7.9,25.5,8.3
	c4.5,0.2,9.1-0.1,13.5-0.9c4.5-0.8,8.8-2.1,12.9-4.1c4.1-2,7.8-4.6,11-7.8c3.2-3.2,5.5-7.1,6.8-11.4c1.3-4.3,1.2-8.9-0.2-13.2
	c-1.4-4.3-3.8-8.2-7-11.3c-3.2-3.2-6.9-5.8-11-7.7c-1-0.4-2-1-3.1-1.4l-3.2-1.1l-3.3-0.9c-1.1-0.3-2.2-0.4-3.3-0.7
	c-4.5-0.8-9-1-13.5-0.7c-4.5,0.3-9,1.2-13.3,2.5c-4.3,1.4-8.4,3.4-12.1,6c-3.7,2.6-6.9,5.9-9.2,9.8c-2.4,3.9-3.6,8.4-3.5,12.9
	C357.7,230.7,359.1,235.1,361.6,238.9z"/>
<path class="st5" d="M377.9,230.5v2.3h-9.4v-13.6h9.3v2.3h-6.6v3.3h5.7v2.1h-5.7v3.5H377.9z"/>
<path class="st5" d="M379.9,232.8v-13.6h6c0.6,0,1.2,0.1,1.7,0.4c0.5,0.2,1,0.6,1.4,1c0.4,0.4,0.7,0.9,0.9,1.4
	c0.3,0.6,0.4,1.3,0.3,2c-0.1,0.7-0.3,1.4-0.6,2c-0.4,0.7-1,1.2-1.8,1.6l3.1,5.1h-3l-2.8-4.6h-2.6v4.6L379.9,232.8z M382.6,225.9h3.3
	c0.2,0,0.5-0.1,0.7-0.2c0.2-0.1,0.4-0.3,0.5-0.5c0.2-0.2,0.3-0.4,0.4-0.7c0.1-0.3,0.1-0.6,0.1-0.9c0-0.3,0-0.6-0.1-0.9
	c-0.1-0.3-0.2-0.5-0.4-0.7c-0.2-0.2-0.4-0.3-0.6-0.5c-0.2-0.1-0.4-0.2-0.7-0.2h-3.2V225.9z"/>
<path class="st5" d="M392.6,232.8v-13.6h6c0.6,0,1.2,0.1,1.7,0.4c0.5,0.2,1,0.6,1.4,1c0.4,0.4,0.7,0.9,0.9,1.4
	c0.2,0.5,0.3,1.1,0.3,1.6c0,0.8-0.2,1.7-0.7,2.4c-0.4,0.7-1,1.2-1.8,1.6l3.1,5.1h-3l-2.8-4.6h-2.6v4.6L392.6,232.8z M395.3,225.9
	h3.3c0.2,0,0.5-0.1,0.7-0.2c0.2-0.1,0.4-0.3,0.5-0.5c0.2-0.2,0.3-0.4,0.4-0.7c0.1-0.3,0.1-0.6,0.1-0.9c0-0.3,0-0.6-0.1-0.9
	c-0.1-0.3-0.2-0.5-0.4-0.7c-0.2-0.2-0.4-0.3-0.6-0.5c-0.2-0.1-0.4-0.2-0.7-0.2h-3.2V225.9z"/>
<path class="st5" d="M411.2,232.9c-0.9,0-1.9-0.2-2.7-0.6c-0.8-0.4-1.5-0.9-2.1-1.5c-0.6-0.6-1-1.4-1.4-2.2
	c-0.3-0.8-0.5-1.7-0.5-2.6c0-0.9,0.2-1.8,0.5-2.6c0.3-0.8,0.8-1.6,1.4-2.2c0.6-0.6,1.3-1.2,2.1-1.5c0.8-0.4,1.7-0.6,2.7-0.6
	c0.9,0,1.9,0.2,2.7,0.6c0.8,0.4,1.5,0.9,2.1,1.6c0.6,0.7,1,1.4,1.3,2.2c0.7,1.6,0.7,3.5,0,5.1c-0.3,0.8-0.8,1.5-1.3,2.2
	c-0.6,0.6-1.3,1.1-2.1,1.5C413,232.7,412.1,232.9,411.2,232.9z M407.2,226c0,0.6,0.1,1.2,0.3,1.7c0.2,0.5,0.4,1,0.8,1.4
	c0.3,0.4,0.8,0.8,1.2,1c0.5,0.3,1.1,0.4,1.7,0.4c0.6,0,1.2-0.1,1.7-0.4c0.5-0.3,0.9-0.6,1.2-1c0.3-0.4,0.6-0.9,0.8-1.5
	c0.2-0.5,0.3-1.1,0.3-1.7c0-0.6-0.1-1.2-0.3-1.7c-0.2-0.5-0.4-1-0.8-1.4c-0.3-0.4-0.8-0.8-1.2-1c-0.5-0.3-1.1-0.4-1.7-0.4
	c-0.6,0-1.2,0.1-1.7,0.4c-0.5,0.2-0.9,0.6-1.2,1c-0.3,0.4-0.6,0.9-0.8,1.4C407.3,224.8,407.2,225.4,407.2,226z"/>
<path class="st5" d="M419.9,232.8v-13.6h6c0.6,0,1.2,0.1,1.7,0.4c0.5,0.2,1,0.6,1.4,1c0.4,0.4,0.7,0.9,0.9,1.4
	c0.3,0.6,0.4,1.3,0.3,2c-0.1,0.7-0.3,1.4-0.6,2c-0.4,0.7-1,1.2-1.8,1.6l3.1,5.1h-3l-2.8-4.6h-2.6v4.6L419.9,232.8z M422.5,225.9h3.3
	c0.2,0,0.5-0.1,0.7-0.2c0.2-0.1,0.4-0.3,0.5-0.5c0.2-0.2,0.3-0.4,0.4-0.7c0.1-0.3,0.1-0.6,0.1-0.9c0-0.3,0-0.6-0.1-0.9
	c-0.1-0.3-0.2-0.5-0.4-0.7c-0.2-0.2-0.4-0.3-0.6-0.5c-0.2-0.1-0.4-0.2-0.7-0.2h-3.2V225.9z"/>
</svg>
