<?xml version="1.0" encoding="UTF-8"?>
<svg id="Layer_2" data-name="Layer 2" xmlns="http://www.w3.org/2000/svg" viewBox="0 0 876.19 807.51">
  <defs>
    <style>
      .cls-1 {
        fill: #d6d7d9;
      }

      .cls-1, .cls-2, .cls-3 {
        stroke-width: 0px;
      }

      .cls-2 {
        fill: #009245;
      }

      .cls-3 {
        fill: #363634;
      }
    </style>
  </defs>
  <g id="Layer_2-2" data-name="Layer 2">
    <g>
      <path class="cls-2" d="M694.09,92.81c-35.28,0-63.88,28.6-63.88,63.88s28.6,63.88,63.88,63.88,63.88-28.6,63.88-63.88-28.6-63.88-63.88-63.88ZM730.16,137.77l-41.87,41.86c-2.26,2.27-5.23,3.41-8.2,3.41s-5.95-1.14-8.22-3.41l-13.85-13.85c-2.26-2.25-2.26-5.92,0-8.16,2.25-2.26,5.91-2.26,8.17,0l13.85,13.85,41.96-41.86c2.25-2.26,5.91-2.26,8.16,0,2.25,2.25,2.25,5.9,0,8.16h0Z"/>
      <path class="cls-3" d="M694.09,308.12c-1.28,0-2.56-.11-3.82-.33h0c-140.46-24.12-147.01-180.6-145.68-227.98.25-8.75,5.62-16.58,13.7-19.93l127.26-52.92c5.43-2.26,11.66-2.26,17.09,0l127.26,52.92c8.08,3.36,13.45,11.18,13.7,19.93,1.33,47.38-5.23,203.86-145.69,227.98-1.27.22-2.55.33-3.82.33h0ZM694.09,11.25c-2.13,0-4.26.41-6.24,1.24l-127.26,52.92c-5.9,2.45-9.83,8.17-10.01,14.56-1.3,46.16,5,198.6,140.7,221.9h0c1.86.32,3.75.32,5.62,0,135.7-23.3,142-175.74,140.7-221.9-.18-6.39-4.11-12.11-10.01-14.56l-127.26-52.92c-1.98-.83-4.11-1.24-6.24-1.24Z"/>
      <path class="cls-3" d="M694.09,292.11c-.35,0-.72-.03-1.11-.1-54.36-9.33-92.75-41.69-114.12-96.19-18.11-46.18-18.81-96.2-18.27-115.56.07-2.46,1.58-4.67,3.85-5.61l127.25-52.91c1.46-.63,3.29-.64,4.82.01l127.24,52.9c2.26.95,3.77,3.14,3.83,5.6h0c.55,19.33-.13,69.29-18.27,115.57-21.37,54.49-59.77,86.85-114.11,96.18-.4.07-.76.1-1.11.1h0ZM693.99,27.29l-127.26,52.92c-.09.04-.15.13-.15.23-.53,19,.15,68.05,17.86,113.2,20.55,52.41,57.41,83.52,109.54,92.46.03,0,.07.01.11.01.02,0,.06,0,.1-.02,52.12-8.94,88.97-40.05,109.53-92.45,17.74-45.25,18.4-94.24,17.86-113.21h0c0-.12-.07-.2-.14-.23l-127.26-52.91h-.19Z"/>
    </g>
    <g>
      <path class="cls-3" d="M370.42,493.73H66.57c-36.71,0-66.57-29.87-66.57-66.57v-229.69c0-36.71,29.87-66.57,66.57-66.57h303.86c36.71,0,66.57,29.87,66.57,66.57v229.69c0,36.71-29.87,66.57-66.57,66.57h0ZM66.57,136.9c-33.4,0-60.57,27.17-60.57,60.57v229.69c0,33.4,27.17,60.57,60.57,60.57h303.86c33.4,0,60.57-27.17,60.57-60.57v-229.69c0-33.4-27.17-60.57-60.57-60.57H66.57Z"/>
      <g>
        <path class="cls-3" d="M257.47,462.1l-11.11-27.93c-4.16-2.01-18.23-9.51-22.98-21.09-4.68-11.41-1.67-28.53-.67-33.39-5.37-8.05-7.75-13.46-7.09-16.11.72-2.88,5.4-6.98,9.09-9.83-.51-1.66-.86-3.99-.19-6.55,1.06-4.07,7.17-5.91,11.58-6.71.07-1.03.32-2.2.92-3.36.78-1.54,2.46-3.6,6.02-4.73,4.28-1.36,14.3,1.68,23.66,5.25-5.11-5.46-10.65-11.37-11.48-12.28-1.88-2.07-6.86-11.5-5.24-16.58.61-1.92,1.95-2.64,2.69-2.89,2.62-.89,5.17.87,9.04,3.54,2.14,1.48,4.57,3.15,7.3,4.6,1.03.54,2.15,1.13,3.33,1.75,8.3,4.34,19.67,10.27,24.57,15.33,1.5,1.55,4.31,4.43-.4,36.46-1.93,13.17-4.38,25.98-5.01,29.24l16.26,47.46-50.3,17.84v-.02ZM221.53,364.93c.36,1.79,3.45,7.42,6.88,12.46l.74,1.09-.3,1.29c-.05.2-4.56,19.71.09,31.04,4.55,11.09,20.81,18.33,20.97,18.4l1.13.5,9.87,24.82,39.26-13.92-14.86-43.37.16-.79c5.2-26.23,9.36-57,7.06-61.24-4.3-4.36-15.52-10.22-22.97-14.11-1.19-.62-2.32-1.21-3.36-1.76-3.04-1.61-5.73-3.47-7.9-4.96-.8-.55-1.7-1.17-2.48-1.68.66,2.93,2.78,7.47,3.84,8.64,1.31,1.44,15.22,16.27,20.46,21.86,1.02,1.09,1.13,2.75.27,3.96-.86,1.21-2.48,1.65-3.83,1.05-15.16-6.67-28.8-11.01-31.71-10.09-2.9.92-3.04,2.69-2.65,4.02l1.17,3.5-3.68.38c-4.05.47-8.54,1.83-9.39,2.83-.53,2.27.65,4.35.66,4.37l1.35,2.33-2.15,1.62c-3.93,2.89-7.81,6.39-8.63,7.77h0ZM278.98,342.7h.02-.02Z"/>
        <path class="cls-2" d="M309.24,807.51l37.95-180.22s-45.5,20.12-65.61-4.38c-20.12-24.49-36.31-187.66-36.31-187.66,0,0,49.87-20.12,56.43-19.69,6.57.45,24.07,99.3,24.07,99.3,0,0,27.99-79.61,36.3-95.36s86.32-58.47,86.32-58.47c0,0,1.75-11.08,4.67-15.16,2.92-4.09,72.9-5.83,80.49-4.96,7.58.87,11.08,20.12,11.08,20.12,0,0,51.32,10.49,63.57,20.41,2.75,2.23,7.65,10.69,13.67,22.73h-18.66c-25.07,0-47.05,16.74-53.69,40.91l-99.5,362.12h182.35l.03.3h-323.16Z"/>
        <g>
          <path class="cls-3" d="M347.2,630.28c-1.17,0-2.28-.68-2.76-1.83-.65-1.52.06-3.29,1.58-3.94,24.7-10.52,50.35-50.08,76.24-117.59,15.47-40.33-10.88-71.9-11.14-72.22-1.07-1.26-.93-3.15.33-4.23,1.26-1.08,3.15-.93,4.23.33,1.19,1.39,28.97,34.52,12.19,78.27-26.5,69.08-53.24,109.78-79.49,120.96-.38.16-.78.24-1.17.24h0Z"/>
          <path class="cls-3" d="M319.49,539c-.28,0-.57-.04-.85-.12-1.59-.47-2.49-2.14-2.02-3.73l6.27-21.14c.47-1.59,2.14-2.5,3.73-2.02,1.59.47,2.49,2.14,2.02,3.73l-6.27,21.14c-.39,1.3-1.58,2.15-2.87,2.15h-.01Z"/>
          <path class="cls-3" d="M494.18,367.89c-14.42,0-30.51-.98-46.34-3.91-1.63-.3-2.71-1.87-2.4-3.5.3-1.63,1.87-2.71,3.5-2.4,46.13,8.54,94.68.08,95.16,0,1.63-.3,3.19.8,3.48,2.43s-.79,3.19-2.43,3.48c-.33.06-22.36,3.9-50.97,3.9h0Z"/>
          <path class="cls-3" d="M401.14,734.39c-.55,0-1.11-.15-1.61-.47-29.44-18.84-53.91-61.07-54.93-62.86-.83-1.44-.33-3.27,1.11-4.1,1.44-.83,3.27-.33,4.1,1.11.24.42,24.77,42.75,52.97,60.79,1.4.89,1.8,2.75.91,4.14-.57.89-1.54,1.38-2.53,1.38h-.02Z"/>
        </g>
        <path class="cls-3" d="M323.29,504.35c-1.4,0-2.65-.98-2.94-2.41-7.5-37.1-16.8-78.56-19.42-83.02-1.56-1.34-3.14-.3-3.76.23-1.26,1.06-3.15.92-4.22-.33-1.07-1.24-.96-3.1.27-4.19,2.48-2.2,7.73-3.99,11.99.08,1.14,1.09,3.05,2.91,12.37,45.12,4.51,20.45,8.62,40.72,8.66,40.92.33,1.62-.72,3.21-2.35,3.54-.2.04-.4.06-.6.06h0Z"/>
        <path class="cls-3" d="M261.23,555.67c-1.41,0-2.66-1-2.94-2.43-2.46-12.69-17.4-111.33-15.87-116.13,1.34-4.2,3.81-5.62,4.29-5.86l2.68,5.37s.06-.02.15-.09c-.03.02-.76.53-1.33,2.15-.21,6.7,11.69,91.34,15.96,113.41.31,1.63-.75,3.2-2.38,3.52-.19.04-.38.06-.57.06h.01Z"/>
        <path class="cls-3" d="M621.03,755.39h-61.24c-1.66,0-3-1.34-3-3s1.34-3,3-3h61.24c1.66,0,3,1.34,3,3s-1.34,3-3,3Z"/>
      </g>
      <g>
        <path class="cls-3" d="M748.86,410.17l-41.98,106.68-.42,1.08v1.16l1.87,282.11h-250.43l97.41-354.53c5.91-21.49,25.6-36.5,47.9-36.5h145.66M757.68,404.17h-154.46c-25.07,0-47.05,16.74-53.69,40.91l-99.5,362.12h264.34l-1.9-288.15,45.21-114.88h0Z"/>
        <path class="cls-3" d="M788.01,410.17c15.77,0,30.24,7.23,39.71,19.83,9.47,12.6,12.38,28.51,7.99,43.66l-94.9,327.55h-20.5l-1.84-281.03,43.28-110h26.26M788.01,404.18h-30.34l-45.2,114.88,1.89,288.15h30.97l96.15-331.88c10.32-35.61-16.39-71.16-53.47-71.16h0Z"/>
        <path class="cls-3" d="M873.97,475.33l-96.16,331.88h-295.31l99.5-362.12c5.46-19.85,21.27-34.71,40.63-39.38,3.84-.92,7.82-1.45,11.88-1.54.39-.01.78-.01,1.17-.01h184.81c37.07,0,63.79,35.56,53.47,71.17h.01Z"/>
      </g>
      <path class="cls-3" d="M365.74,299.6H80.44c-10.66,0-19.34-8.68-19.34-19.34v-57.41c0-10.67,8.68-19.34,19.34-19.34h285.3c10.66,0,19.34,8.68,19.34,19.34v57.41c0,10.67-8.68,19.34-19.34,19.34h0ZM80.44,209.5c-7.36,0-13.34,5.98-13.34,13.34v57.41c0,7.36,5.98,13.34,13.34,13.34h285.3c7.36,0,13.34-5.98,13.34-13.34v-57.41c0-7.36-5.98-13.34-13.34-13.34H80.44h0Z"/>
      <path class="cls-3" d="M211.43,431.83h-123.09c-15.02,0-27.25-13.88-27.25-30.94v-24.41c0-17.06,12.22-30.94,27.25-30.94h111.43c1.66,0,3,1.34,3,3s-1.34,3-3,3h-111.43c-11.72,0-21.25,11.19-21.25,24.94v24.41c0,13.75,9.53,24.94,21.25,24.94h123.09c1.66,0,3,1.34,3,3s-1.34,3-3,3Z"/>
      <path class="cls-3" d="M382.08,391.81c-1.66,0-3-1.34-3-3v-12.33c0-13.75-9.53-24.94-21.25-24.94h-48.59c-1.66,0-3-1.34-3-3s1.34-3,3-3h48.59c15.02,0,27.25,13.88,27.25,30.94v12.33c0,1.66-1.34,3-3,3Z"/>
      <path class="cls-3" d="M345.67,136.9c-1.66,0-3-1.34-3-3v-45.05c0-45.69-37.17-82.85-82.86-82.85h-78.05c-45.69,0-82.86,37.17-82.86,82.85v45.05c0,1.66-1.34,3-3,3s-3-1.34-3-3v-45.05C92.9,39.86,132.76,0,181.76,0h78.05c49,0,88.86,39.86,88.86,88.85v45.05c0,1.66-1.34,3-3,3Z"/>
      <path class="cls-3" d="M308.25,136.37c-1.66,0-3-1.34-3-3v-33.47c0-33.52-25.63-60.78-57.13-60.78h-54.67c-31.5,0-57.13,27.27-57.13,60.78v33.47c0,1.66-1.34,3-3,3s-3-1.34-3-3v-33.47c0-36.82,28.32-66.78,63.13-66.78h54.67c34.81,0,63.13,29.96,63.13,66.78v33.47c0,1.66-1.34,3-3,3Z"/>
      <g>
        <path class="cls-3" d="M117.56,253.56l-12.52-3.45,2.5-7.25,12.25,5.03-.96-13.51h8.22l-1,13.78,11.91-4.91,2.5,7.33-12.68,3.45,8.41,10.18-6.65,4.53-7.03-11.29-7.07,10.91-6.65-4.34,8.76-10.45h.01Z"/>
        <path class="cls-3" d="M154.12,253.56l-12.52-3.45,2.5-7.25,12.25,5.03-.96-13.51h8.22l-1,13.78,11.91-4.91,2.5,7.33-12.68,3.45,8.41,10.18-6.65,4.53-7.03-11.29-7.07,10.91-6.65-4.34,8.76-10.45h.01Z"/>
        <path class="cls-3" d="M190.69,253.56l-12.52-3.45,2.5-7.25,12.25,5.03-.96-13.51h8.22l-1,13.78,11.91-4.91,2.5,7.33-12.68,3.45,8.41,10.18-6.65,4.53-7.03-11.29-7.07,10.91-6.65-4.34,8.76-10.45h0Z"/>
        <path class="cls-1" d="M227.26,253.56l-12.52-3.45,2.5-7.25,12.25,5.03-.96-13.51h8.22l-1,13.78,11.91-4.91,2.5,7.33-12.68,3.45,8.41,10.18-6.65,4.53-7.03-11.29-7.07,10.91-6.65-4.34,8.76-10.45h0Z"/>
        <path class="cls-1" d="M263.83,253.56l-12.52-3.45,2.5-7.25,12.25,5.03-.96-13.51h8.22l-1,13.78,11.91-4.91,2.5,7.33-12.68,3.45,8.41,10.18-6.65,4.53-7.03-11.29-7.07,10.91-6.65-4.34,8.76-10.45h0Z"/>
        <path class="cls-1" d="M300.4,253.56l-12.52-3.45,2.5-7.25,12.25,5.03-.96-13.51h8.22l-1,13.78,11.91-4.91,2.5,7.33-12.68,3.45,8.41,10.18-6.65,4.53-7.03-11.29-7.07,10.91-6.65-4.34,8.76-10.45h0Z"/>
      </g>
    </g>
    <g>
      <path class="cls-3" d="M478.75,343.04c-1.59,0-2.92-1.25-2.99-2.86l-.41-8.52c-6.05.44-20-.05-24.56-12.97-4.42-12.52.42-35.79,2.78-45.45l-10.41-4.32c-1.84-.77-3.13-2.41-3.46-4.37s.37-3.93,1.86-5.25l17.39-15.38c-.35-3.72-.91-11.15-.82-20.12.09-9.78,4.54-17.57,7.19-21.35.81-1.15,2-1.96,3.37-2.28l.19-.04c.9-.19,1.85-.15,2.76.11,1.59.46,2.51,2.12,2.05,3.72-.45,1.54-2.01,2.45-3.56,2.09-1.86,2.7-5.91,9.51-5.99,17.81-.09,8.81.47,16.08.81,19.62.18,1.82-.54,3.64-1.92,4.86l-17.17,15.19,10.24,4.25c2.64,1.1,4.06,3.91,3.37,6.69-1.72,7.02-7.01,30.82-2.99,42.22,3.12,8.84,13.04,9.41,18.68,8.96,1.61-.12,3.2.43,4.37,1.52,1.15,1.06,1.81,2.57,1.83,4.13l.41,8.58c.08,1.66-1.2,3.06-2.85,3.14h-.15l-.02.02Z"/>
      <path class="cls-3" d="M476.62,331.82c-1.61,0-2.61-.08-2.8-.1-1.65-.15-2.86-1.61-2.71-3.26.15-1.65,1.61-2.87,3.26-2.71h0c.21.02,21.49,1.71,37.8-14.28,1.18-1.16,3.08-1.14,4.24.04,1.16,1.18,1.14,3.08-.04,4.24-14.85,14.56-32.9,16.07-39.75,16.07Z"/>
      <path class="cls-3" d="M569.44,343.04c-1.66,0-3-1.34-3-3v-18.14c0-1.66,1.34-3,3-3s3,1.34,3,3v18.14c0,1.66-1.34,3-3,3h0Z"/>
      <path class="cls-3" d="M488.69,178.14s-40.73,14.07-17.54,48.32c23.18,34.25,57.65,32.42,35.09,73.39s-6.89,109.48,73.31,100.3c80.2-9.17,107.15-43.42,68.92-79.51-38.22-36.08-44.49-50.15-36.97-105.81,7.52-55.66-96.25-78.4-122.81-36.7h0Z"/>
    </g>
    <path class="cls-3" d="M303.97,691.93H109.35c-15.62,0-29.2-11.11-32.29-26.41l-17.26-85.31c-1.52-7.52.39-15.25,5.25-21.19,4.86-5.94,12.05-9.35,19.73-9.35h160.44c1.66,0,3,1.34,3,3s-1.34,3-3,3H84.78c-5.87,0-11.37,2.61-15.09,7.15s-5.18,10.45-4.02,16.2l17.26,85.31c2.53,12.52,13.64,21.6,26.41,21.6h194.62c1.66,0,3,1.34,3,3s-1.34,3-3,3h.01Z"/>
    <path class="cls-3" d="M26.64,791.5c-1.66,0-3-1.34-3-3v-51.7c0-12.42,10.11-22.53,22.53-22.53h263.07c1.66,0,3,1.34,3,3s-1.34,3-3,3H46.17c-9.12,0-16.53,7.42-16.53,16.53v51.7c0,1.66-1.34,3-3,3Z"/>
    <path class="cls-3" d="M81.79,791.5c-1.66,0-3-1.34-3-3v-51.7c0-12.42,8.4-22.53,18.72-22.53h211.73c1.66,0,3,1.34,3,3s-1.34,3-3,3H97.51c-7.01,0-12.72,7.42-12.72,16.53v51.7c0,1.66-1.34,3-3,3h0Z"/>
    <rect class="cls-1" x="112.43" y="737.95" width="110.66" height="36" rx="6.69" ry="6.69"/>
    <path class="cls-2" d="M97.57,586.49l19.13,72.61c1.14,4.34,5.07,7.36,9.55,7.36h103.37c6.46,0,11.18-6.1,9.57-12.35l-18.78-72.61c-1.13-4.36-5.06-7.41-9.57-7.41h-103.72c-6.48,0-11.21,6.13-9.55,12.4h0Z"/>
  </g>
</svg>