<?xml version="1.0" encoding="utf-8"?>
<!-- Generator: Adobe Illustrator 28.1.0, SVG Export Plug-In . SVG Version: 6.00 Build 0)  -->
<svg version="1.1" id="Layer_1" xmlns="http://www.w3.org/2000/svg" xmlns:xlink="http://www.w3.org/1999/xlink" x="0px" y="0px"
	 viewBox="0 0 522 522" style="enable-background:new 0 0 522 522;" xml:space="preserve">
<style type="text/css">
	.st0{fill:#14260E;}
	.st1{fill:#EFFFEA;}
	.st2{fill:#15ED0A;}
	.st3{opacity:0.4;fill:#EFFFEA;enable-background:new    ;}
	.st4{fill:#F0FCE6;}
	.st5{fill:#FF1C16;}
	.st6{fill:#FFFFFF;}
	.st7{opacity:0.4;}
</style>
<path class="st0" d="M469,466h-411c-0.5,0-0.8-0.4-0.8-0.8c0-0.5,0.4-0.8,0.8-0.8h411c0.5,0,0.8,0.4,0.8,0.8
	C469.8,465.7,469.4,466,469,466z"/>
<path class="st0" d="M350.1,139.4c0,0-13.6,2.6-21.3,14.4c-7.7,11.8-7.8,22-14.7,25.4c-6.9,3.4-11.6,3.1-16.6,10.7
	c-4.9,7.6,1.4,16.2-2.3,20.8c-3.7,4.6-18.8,7.1-19.8,26.9c-1,19.7,9.3,35.5,27.2,42.8c17.9,7.3,72.1-20.3,72.1-20.3l-15.9-94.2
	L350.1,139.4z"/>
<path class="st1" d="M263.4,275.8l-29,23.3l-29-113.2l-59,10L183.7,343c3.7,14.6,14.2,26.6,28.3,32c16.2,6.3,34.5,3.1,47.5-8.3
	l49.2-42.8"/>
<path class="st0" d="M229,379.1c-5.8,0-11.6-1.1-17.2-3.2c-14.3-5.6-25.1-17.7-28.8-32.6L145.7,196c-0.1-0.2,0-0.5,0.1-0.7
	c0.1-0.2,0.3-0.3,0.6-0.4l59-10c0.4-0.1,0.8,0.2,0.9,0.6l28.7,111.9l28-22.5c0.4-0.3,0.9-0.2,1.2,0.1c0.3,0.4,0.2,0.9-0.1,1.2
	l-29,23.3c-0.2,0.2-0.5,0.2-0.8,0.1c-0.3-0.1-0.5-0.3-0.5-0.6l-28.8-112.4l-57.3,9.7l37,146.3c3.6,14.3,14,26.1,27.8,31.5
	c15.9,6.2,33.8,3.1,46.7-8.1l49.2-42.8c0.3-0.3,0.9-0.3,1.2,0.1c0.3,0.3,0.3,0.9-0.1,1.2l-49.2,42.8
	C251.3,375.1,240.2,379.1,229,379.1z"/>
<path class="st2" d="M327.2,285.9l-31.5,63.3l-28.5-32l-10.1-11.3l-15.8-17.7l39.1-30c5.7-4.7,13.2-6.8,20.6-5.7l14.2,2.2
	L327.2,285.9z"/>
<path class="st3" d="M273.3,309.2c0,3.9-2.6,7.1-6.1,8.1L257.1,306c1.3-3.1,4.3-5.2,7.8-5.2C269.5,300.7,273.3,304.5,273.3,309.2z"
	/>
<path class="st0" d="M295.7,350.1c-0.2,0-0.5-0.1-0.6-0.3l-54.5-61c-0.2-0.2-0.2-0.4-0.2-0.6c0-0.2,0.1-0.4,0.3-0.6l39.1-30
	c0.4-0.3,0.9-0.2,1.2,0.2c0.3,0.4,0.2,0.9-0.2,1.2l-38.4,29.5l53,59.4l30.9-62.2c0.2-0.4,0.7-0.6,1.1-0.4c0.4,0.2,0.6,0.7,0.4,1.1
	l-31.5,63.3c-0.1,0.2-0.4,0.4-0.6,0.5C295.8,350.1,295.7,350.1,295.7,350.1z"/>
<path class="st0" d="M251.3,465.2l17.1-78.4l127.9,15.3l-5.8,63.1H251.3z"/>
<path class="st2" d="M312.1,254.7l84.4,2.7c12,0.4,21,11,19.5,22.9l-17.3,135.1l-138.3-12.3L312.1,254.7z"/>
<path class="st3" d="M382.5,398.6c5.6,0,10.1-4.5,10.1-10.1c0-5.6-4.5-10.1-10.1-10.1c-5.6,0-10.1,4.5-10.1,10.1
	C372.4,394.1,377,398.6,382.5,398.6z"/>
<path class="st0" d="M260.3,404c-0.1,0-0.2,0-0.3,0c-0.4-0.2-0.7-0.6-0.5-1.1l43-123.4c0.2-0.4,0.6-0.7,1.1-0.5
	c0.4,0.2,0.7,0.6,0.5,1.1l-43,123.4C261,403.8,260.7,404,260.3,404z"/>
<path class="st1" d="M339.7,259.7l1.7-38.1l35.5-7.4l1.3,40.5c0.1,3.5-1.2,7-3.7,9.5c-4.1,4.1-11.4,9.3-21.6,8.7
	C339.7,272.2,339.7,259.7,339.7,259.7z"/>
<path class="st0" d="M354.5,273.8c-0.5,0-1,0-1.6,0c-13.8-0.8-14-13.9-14-14c0,0,0,0,0,0l1.7-38.1c0-0.4,0.3-0.7,0.7-0.8l35.5-7.4
	c0.2-0.1,0.5,0,0.7,0.2c0.2,0.2,0.3,0.4,0.3,0.6l1.3,40.5c0.1,3.8-1.3,7.5-4,10.1C370.9,269,363.9,273.8,354.5,273.8z M340.6,259.8
	c0,0.7,0.3,11.7,12.4,12.4c9.7,0.5,16.7-4.3,20.9-8.5c2.3-2.3,3.6-5.5,3.5-8.9l-1.3-39.5l-33.9,7.1L340.6,259.8z"/>
<path class="st1" d="M377.3,219.4c16.8-18.2,13-47.9,13-47.9l-50.4-21.1c-0.9,0.8-20,16.2-23.2,47.4c-2.7,25.7,21.9,40.1,48.2,30.4"
	/>
<path class="st0" d="M348.6,232.1c-8.2,0-15.8-2.4-21.8-7c-8.2-6.4-12.1-16.1-10.9-27.4c3.2-30.5,21.4-46.2,23.5-47.9
	c0.2-0.2,0.6-0.3,0.9-0.1l50.4,21.1c0.3,0.1,0.5,0.4,0.5,0.7c0,0.3,3.6,30.3-13.3,48.6c-0.3,0.3-0.8,0.4-1.2,0
	c-0.3-0.3-0.4-0.8,0-1.2c15.2-16.4,13.3-42.9,12.9-46.8l-49.5-20.7c-3.3,2.8-19.6,18.1-22.5,46.5c-1.1,10.7,2.5,19.9,10.3,25.9
	c9.4,7.3,23.2,8.7,36.8,3.7c0.4-0.2,0.9,0.1,1.1,0.5c0.2,0.4-0.1,0.9-0.5,1.1C359.6,231.1,353.9,232.1,348.6,232.1z"/>
<path class="st0" d="M379.5,190.8c0,0-26.6-17.7-37-35.1c0,0-9.6,1.6-12,5.2c0,0-3-16.7,14-21.4c17-4.7,56,8.3,61.9,31.7
	c3.9,15.4,3.5,49.5,2.7,71c-0.4,10.5-8.3,15.6-18.7,15l-12-0.3l-2.2-36.1C385.6,212.2,383.2,201.6,379.5,190.8z"/>
<path class="st0" d="M334,185.9c0.6-1.8,0.1-3.6-1.1-4c-1.2-0.4-2.7,0.8-3.3,2.6c-0.6,1.8-0.1,3.6,1.1,4
	C332,188.9,333.4,187.7,334,185.9z"/>
<path class="st1" d="M330.5,178.2c2.4-0.7,5,0.2,6.7,2.4L330.5,178.2z"/>
<path class="st0" d="M337.2,181.4c-0.2,0-0.5-0.1-0.7-0.3c-1.5-1.9-3.8-2.7-5.8-2.1c-0.4,0.1-0.9-0.1-1-0.6c-0.1-0.4,0.1-0.9,0.6-1
	c2.7-0.8,5.7,0.3,7.6,2.6c0.3,0.4,0.2,0.9-0.1,1.2C337.5,181.3,337.3,181.4,337.2,181.4z"/>
<path class="st0" d="M353.9,194.3c0.3-1.9-0.5-3.6-1.7-3.8c-1.3-0.2-2.5,1.2-2.8,3c-0.3,1.9,0.5,3.6,1.8,3.8
	C352.4,197.5,353.6,196.2,353.9,194.3z"/>
<path class="st1" d="M350.1,187c2.3-0.8,5,0.1,6.7,2.2L350.1,187z"/>
<path class="st0" d="M356.8,190c-0.2,0-0.5-0.1-0.6-0.3c-1.5-1.8-3.8-2.6-5.8-1.9c-0.4,0.1-0.9-0.1-1-0.5c-0.1-0.4,0.1-0.9,0.5-1.1
	c2.7-0.9,5.7,0.1,7.6,2.4c0.3,0.4,0.3,0.9-0.1,1.2C357.2,189.9,357,190,356.8,190z"/>
<path class="st1" d="M377.7,192.2c0,0,11.6-9.5,17.3-6.9c5.7,2.7,1.4,23.3-5.8,24.5c-7.2,1.3-12.6-2.1-12.6-2.1"/>
<path class="st0" d="M385.9,211c-5.6,0-9.5-2.4-9.7-2.5c-0.4-0.2-0.5-0.8-0.3-1.1c0.2-0.4,0.8-0.5,1.1-0.3c0.1,0,5.2,3.1,12,2
	c3.7-0.6,6.7-7.4,7.5-13.6c0.6-4.8-0.1-8.5-1.9-9.3c-4.3-2-13.3,4.2-16.4,6.7c-0.4,0.3-0.9,0.2-1.2-0.1c-0.3-0.4-0.2-0.9,0.1-1.2
	c0.5-0.4,12.1-9.8,18.2-7c2.6,1.2,3.6,5.3,2.9,11.1c-0.9,6.9-4.2,14.2-8.9,15C388.1,210.9,387,211,385.9,211z"/>
<path class="st0" d="M389.3,200.8c-0.1,0-0.3,0-0.4-0.1c-0.4-0.2-0.5-0.7-0.3-1.1c0.7-1.1,1.1-2.4,1.2-3.7c0.1-0.7,0-1.3-0.2-1.5
	c-0.2-0.2-0.5-0.3-0.8-0.3c-0.3,0-0.7,0.2-1.2,0.4c-0.6,0.4-1.2,0.9-1.6,1.6c-0.3,0.4-0.8,0.5-1.2,0.2c-0.4-0.3-0.5-0.8-0.2-1.2
	c0.6-0.8,1.3-1.5,2.1-2c0.7-0.4,1.3-0.6,1.9-0.7c0.8-0.1,1.7,0.2,2.2,0.7c0.6,0.6,0.9,1.6,0.7,2.9c-0.2,1.5-0.7,3-1.4,4.3
	C389.9,200.6,389.6,200.8,389.3,200.8z"/>
<path class="st1" d="M339.7,191.5c-1.5,2.3-2.9,4.6-4.4,7c-0.9,1.4-1.8,2.9-1.9,4.5s1,3.4,2.8,3.9"/>
<path class="st0" d="M336.3,207.7c-0.1,0-0.2,0-0.2,0c-2.4-0.7-3.5-2.9-3.4-4.8c0.1-1.9,1.1-3.5,2-4.9l4.4-7
	c0.2-0.4,0.8-0.5,1.1-0.3c0.4,0.2,0.5,0.8,0.3,1.1l-4.4,7c-0.8,1.2-1.7,2.6-1.7,4.1c0,1.2,0.7,2.7,2.2,3.1c0.4,0.1,0.7,0.6,0.6,1
	C337,207.5,336.7,207.7,336.3,207.7z"/>
<path class="st0" d="M343.2,217.9c-1.5,0-3-0.3-4.3-1c-0.4-0.2-0.6-0.7-0.4-1.1c0.2-0.4,0.7-0.6,1.1-0.4c2,0.9,4.3,1.1,6.4,0.3
	c2.1-0.7,3.8-2.3,4.8-4.2c0.2-0.4,0.7-0.6,1.1-0.4c0.4,0.2,0.6,0.7,0.4,1.1c-1.1,2.4-3.2,4.2-5.7,5.1
	C345.5,217.7,344.4,217.9,343.2,217.9z"/>
<path class="st1" d="M247.7,164H66.5c-7.4,0-13.4,6-13.4,13.4v231.8c0,7.4,6,13.4,13.4,13.4h181.2c7.4,0,13.4-6,13.4-13.4V177.4
	C261.1,170,255.1,164,247.7,164z"/>
<path class="st0" d="M247.7,423.6H66.5c-7.9,0-14.3-6.4-14.3-14.3V177.4c0-7.9,6.4-14.3,14.3-14.3h181.2c7.9,0,14.3,6.4,14.3,14.3
	v231.8C261.9,417.2,255.5,423.6,247.7,423.6z M66.5,164.8c-7,0-12.6,5.7-12.6,12.6v231.8c0,7,5.7,12.6,12.6,12.6h181.2
	c7,0,12.6-5.7,12.6-12.6V177.4c0-7-5.7-12.6-12.6-12.6L66.5,164.8L66.5,164.8z"/>
<path class="st4" d="M246.5,164H67.6c-8.1,0-14.6,6.5-14.6,14.6v10.8h208.1v-10.8C261.1,170.6,254.6,164,246.5,164z"/>
<path class="st0" d="M261.1,190.3H53c-0.5,0-0.8-0.4-0.8-0.8v-10.8c0-8.5,6.9-15.4,15.4-15.4h178.8c8.5,0,15.4,6.9,15.4,15.4v10.8
	C261.9,189.9,261.6,190.3,261.1,190.3z M53.9,188.6h206.4v-10c0-7.6-6.2-13.8-13.8-13.8H67.6c-7.6,0-13.8,6.2-13.8,13.8V188.6z"/>
<path class="st0" d="M73.2,181.5c2.1,0,3.8-1.7,3.8-3.8s-1.7-3.8-3.8-3.8c-2.1,0-3.8,1.7-3.8,3.8S71.1,181.5,73.2,181.5z"/>
<path class="st0" d="M85.8,181.5c2.1,0,3.8-1.7,3.8-3.8s-1.7-3.8-3.8-3.8c-2.1,0-3.8,1.7-3.8,3.8S83.7,181.5,85.8,181.5z"/>
<path class="st0" d="M98.3,181.5c2.1,0,3.8-1.7,3.8-3.8s-1.7-3.8-3.8-3.8c-2.1,0-3.8,1.7-3.8,3.8S96.2,181.5,98.3,181.5z"/>
<path class="st5" d="M153.1,298.3c24.1,0,43.6-19.5,43.6-43.6s-19.5-43.6-43.6-43.6c-24.1,0-43.6,19.5-43.6,43.6
	S129,298.3,153.1,298.3z"/>
<path class="st1" d="M153.1,250.2c5.5,0,10-4.5,10-10c0-5.5-4.5-10-10-10c-5.5,0-10,4.5-10,10C143.1,245.7,147.6,250.2,153.1,250.2z
	"/>
<path class="st1" d="M168.3,277.6c4.8,0,8-5,5.9-9.4c-3.7-8-11.8-13.5-21.1-13.5c-9.4,0-17.4,5.5-21.1,13.5c-2,4.4,1.1,9.4,5.9,9.4
	H168.3z"/>
<path class="st1" d="M212.9,313.2H101.2c-5.1,0-9.2,4.1-9.2,9.2v10.3c0,5.1,4.1,9.2,9.2,9.2h111.7c5.1,0,9.2-4.1,9.2-9.2v-10.3
	C222.1,317.3,218,313.2,212.9,313.2z"/>
<path class="st0" d="M212.9,342.8H101.2c-5.5,0-10-4.5-10-10v-10.3c0-5.5,4.5-10,10-10h111.7c5.5,0,10,4.5,10,10v10.3
	C223,338.3,218.4,342.8,212.9,342.8z M101.2,314c-4.6,0-8.4,3.8-8.4,8.4v10.3c0,4.6,3.8,8.4,8.4,8.4h111.7c4.6,0,8.4-3.8,8.4-8.4
	v-10.3c0-4.6-3.8-8.4-8.4-8.4H101.2z"/>
<path class="st0" d="M188.4,359.8h-62.6c-5.1,0-9.2,4.1-9.2,9.2v16.4c0,5.1,4.1,9.2,9.2,9.2h62.6c5.1,0,9.2-4.1,9.2-9.2V369
	C197.6,363.9,193.4,359.8,188.4,359.8z"/>
<path class="st6" d="M136.1,382.2c-0.5,0-0.9,0-1.4-0.1c-0.5-0.1-0.9-0.2-1.3-0.3c-0.4-0.1-0.8-0.3-1.1-0.5
	c-0.2-0.1-0.3-0.3-0.4-0.5s-0.1-0.4-0.1-0.5c0-0.2,0.1-0.3,0.2-0.5c0.1-0.1,0.3-0.2,0.4-0.3c0.2,0,0.4,0,0.6,0.1
	c0.5,0.3,1,0.5,1.5,0.6c0.5,0.1,1.1,0.2,1.6,0.2c0.8,0,1.5-0.1,1.8-0.4c0.4-0.3,0.6-0.7,0.6-1.1c0-0.4-0.1-0.7-0.4-0.9
	c-0.3-0.2-0.7-0.4-1.4-0.5l-1.8-0.4c-1-0.2-1.8-0.6-2.3-1.1c-0.5-0.5-0.7-1.2-0.7-2c0-0.5,0.1-1,0.3-1.4s0.5-0.8,0.9-1.1
	c0.4-0.3,0.9-0.5,1.4-0.7c0.5-0.2,1.1-0.3,1.8-0.3c0.6,0,1.2,0.1,1.8,0.2c0.6,0.2,1.1,0.4,1.6,0.7c0.2,0.1,0.3,0.3,0.3,0.4
	c0.1,0.2,0.1,0.3,0,0.5c0,0.2-0.1,0.3-0.2,0.4c-0.1,0.1-0.3,0.2-0.4,0.2c-0.2,0-0.4,0-0.6-0.2c-0.4-0.2-0.8-0.4-1.2-0.5
	s-0.8-0.1-1.3-0.1c-0.5,0-0.9,0.1-1.3,0.2s-0.6,0.3-0.8,0.6c-0.2,0.2-0.3,0.5-0.3,0.9c0,0.4,0.1,0.7,0.4,0.9
	c0.3,0.2,0.7,0.4,1.3,0.5l1.7,0.4c1.1,0.2,1.8,0.6,2.4,1.1c0.5,0.5,0.8,1.1,0.8,1.9c0,0.5-0.1,1-0.3,1.4c-0.2,0.4-0.5,0.8-0.9,1.1
	c-0.4,0.3-0.8,0.5-1.4,0.7C137.4,382.1,136.8,382.2,136.1,382.2z"/>
<path class="st6" d="M143.1,382.1c-0.3,0-0.6-0.1-0.7-0.3c-0.2-0.2-0.3-0.5-0.3-0.8v-5.9c0-0.4,0.1-0.6,0.3-0.8
	c0.2-0.2,0.4-0.3,0.7-0.3c0.3,0,0.6,0.1,0.7,0.3c0.2,0.2,0.3,0.4,0.3,0.8v5.9c0,0.3-0.1,0.6-0.3,0.8
	C143.7,382,143.5,382.1,143.1,382.1z M143.1,372.6c-0.4,0-0.7-0.1-0.9-0.3c-0.2-0.2-0.3-0.5-0.3-0.8c0-0.3,0.1-0.6,0.3-0.8
	c0.2-0.2,0.5-0.3,0.9-0.3c0.4,0,0.7,0.1,0.9,0.3c0.2,0.2,0.3,0.4,0.3,0.8c0,0.3-0.1,0.6-0.3,0.8
	C143.8,372.5,143.5,372.6,143.1,372.6z"/>
<path class="st6" d="M149.9,385c-0.6,0-1.1-0.1-1.7-0.2c-0.5-0.1-1-0.3-1.5-0.5c-0.2-0.1-0.3-0.2-0.4-0.4c-0.1-0.1-0.1-0.3-0.1-0.5
	c0-0.1,0.1-0.3,0.2-0.4c0.1-0.1,0.2-0.2,0.4-0.2c0.1,0,0.3,0,0.5,0.1c0.5,0.2,0.9,0.4,1.3,0.4c0.4,0.1,0.8,0.1,1.1,0.1
	c0.7,0,1.2-0.2,1.6-0.5c0.4-0.3,0.5-0.9,0.5-1.5V380h0.1c-0.2,0.5-0.5,1-1,1.3c-0.5,0.3-1.1,0.5-1.7,0.5c-0.7,0-1.3-0.2-1.8-0.5
	c-0.5-0.3-0.9-0.8-1.2-1.4c-0.3-0.6-0.4-1.3-0.4-2c0-0.6,0.1-1.1,0.2-1.6c0.2-0.5,0.4-0.9,0.7-1.2c0.3-0.3,0.7-0.6,1.1-0.8
	c0.4-0.2,0.9-0.3,1.4-0.3c0.7,0,1.2,0.2,1.7,0.5c0.5,0.3,0.8,0.7,1,1.3l-0.2,0.4v-1.1c0-0.3,0.1-0.6,0.3-0.8
	c0.2-0.2,0.4-0.3,0.7-0.3c0.3,0,0.6,0.1,0.7,0.3c0.2,0.2,0.3,0.4,0.3,0.8v6.2c0,1.3-0.3,2.2-1,2.9C152.1,384.7,151.1,385,149.9,385z
	 M149.8,380.3c0.4,0,0.8-0.1,1.1-0.3s0.5-0.5,0.7-0.8c0.2-0.4,0.3-0.8,0.3-1.3c0-0.7-0.2-1.3-0.5-1.7c-0.4-0.4-0.9-0.6-1.5-0.6
	c-0.4,0-0.8,0.1-1.1,0.3c-0.3,0.2-0.5,0.5-0.7,0.8c-0.2,0.4-0.2,0.8-0.2,1.3c0,0.7,0.2,1.3,0.5,1.7
	C148.7,380.1,149.2,380.3,149.8,380.3z"/>
<path class="st6" d="M156.9,382.1c-0.3,0-0.6-0.1-0.7-0.3c-0.2-0.2-0.3-0.4-0.3-0.8v-6c0-0.3,0.1-0.6,0.3-0.8
	c0.2-0.2,0.4-0.3,0.7-0.3c0.3,0,0.5,0.1,0.7,0.3c0.2,0.2,0.3,0.4,0.3,0.8v1.1l-0.2-0.4c0.2-0.6,0.6-1,1.1-1.3
	c0.5-0.3,1.1-0.4,1.7-0.4c0.6,0,1.1,0.1,1.6,0.4c0.4,0.2,0.7,0.6,0.9,1.1c0.2,0.5,0.3,1.1,0.3,1.8v3.9c0,0.3-0.1,0.6-0.3,0.8
	c-0.2,0.2-0.4,0.3-0.7,0.3c-0.3,0-0.6-0.1-0.8-0.3c-0.2-0.2-0.3-0.4-0.3-0.8v-3.8c0-0.6-0.1-1.1-0.4-1.3c-0.2-0.3-0.6-0.4-1.1-0.4
	c-0.6,0-1.1,0.2-1.4,0.6c-0.3,0.4-0.5,0.8-0.5,1.5v3.5C157.9,381.8,157.5,382.1,156.9,382.1z"/>
<path class="st6" d="M170.8,382.1c-0.3,0-0.6-0.1-0.8-0.3c-0.2-0.2-0.3-0.5-0.3-0.8v-9.4c0-0.3,0.1-0.6,0.3-0.8
	c0.2-0.2,0.4-0.3,0.8-0.3c0.3,0,0.6,0.1,0.8,0.3c0.2,0.2,0.3,0.4,0.3,0.8v9.4c0,0.3-0.1,0.6-0.3,0.8
	C171.4,382,171.1,382.1,170.8,382.1z"/>
<path class="st6" d="M175.1,382.1c-0.3,0-0.6-0.1-0.7-0.3c-0.2-0.2-0.3-0.4-0.3-0.8v-6c0-0.3,0.1-0.6,0.3-0.8
	c0.2-0.2,0.4-0.3,0.7-0.3c0.3,0,0.5,0.1,0.7,0.3c0.2,0.2,0.3,0.4,0.3,0.8v1.1l-0.2-0.4c0.2-0.6,0.6-1,1.1-1.3
	c0.5-0.3,1.1-0.4,1.7-0.4s1.1,0.1,1.6,0.4c0.4,0.2,0.7,0.6,0.9,1.1c0.2,0.5,0.3,1.1,0.3,1.8v3.9c0,0.3-0.1,0.6-0.3,0.8
	c-0.2,0.2-0.4,0.3-0.7,0.3c-0.3,0-0.6-0.1-0.8-0.3c-0.2-0.2-0.3-0.4-0.3-0.8v-3.8c0-0.6-0.1-1.1-0.4-1.3c-0.2-0.3-0.6-0.4-1.1-0.4
	c-0.6,0-1.1,0.2-1.4,0.6c-0.3,0.4-0.5,0.8-0.5,1.5v3.5C176.1,381.8,175.8,382.1,175.1,382.1z"/>
<path class="st0" d="M188.4,395.4h-62.6c-5.5,0-10-4.5-10-10V369c0-5.5,4.5-10,10-10h62.6c5.5,0,10,4.5,10,10v16.4
	C198.4,390.9,193.9,395.4,188.4,395.4z M125.8,360.6c-4.6,0-8.4,3.8-8.4,8.4v16.4c0,4.6,3.8,8.4,8.4,8.4h62.6c4.6,0,8.4-3.8,8.4-8.4
	V369c0-4.6-3.8-8.4-8.4-8.4H125.8z"/>
<path class="st0" d="M178.8,326.2c1.1,1.9,0.4,4.3-1.4,5.3c-1.9,1.1-4.3,0.4-5.3-1.4c-1.1-1.9-0.4-4.3,1.4-5.3
	C175.3,323.7,177.7,324.4,178.8,326.2z"/>
<path class="st0" d="M161,326.2c1.1,1.9,0.4,4.3-1.4,5.3c-1.9,1.1-4.3,0.4-5.3-1.4c-1.1-1.9-0.4-4.3,1.4-5.3
	C157.5,323.7,159.9,324.4,161,326.2z"/>
<path class="st0" d="M195.1,331.6c-1.9,1.1-4.3,0.4-5.3-1.4c-1.1-1.9-0.4-4.3,1.4-5.3c1.9-1.1,4.3-0.4,5.3,1.4
	C197.6,328.1,196.9,330.5,195.1,331.6z"/>
<path class="st0" d="M125.5,326.2c1.1,1.9,0.4,4.3-1.4,5.3c-1.9,1.1-4.3,0.4-5.3-1.4c-1.1-1.9-0.4-4.3,1.4-5.3
	C122.1,323.7,124.4,324.4,125.5,326.2z"/>
<path class="st0" d="M143.3,326.2c1.1,1.9,0.4,4.3-1.4,5.3c-1.9,1.1-4.3,0.4-5.3-1.4c-1.1-1.9-0.4-4.3,1.4-5.3
	C139.8,323.7,142.2,324.4,143.3,326.2z"/>
<path class="st1" d="M376.6,288.4l-25,48l-76-7.3c0,0,0,0,0,0c-6.1-2.6-14.7-2.3-19-3.9c-9.7-3.5-25.7-7.9-34.8-10.4
	c-3.5-0.9-7,1.3-7.6,4.9c-0.4,2.5,0.7,5,2.9,6.3l14,8.3c-8.1,2.5-5.1,11-5.1,11c-5.5,3.1-1.9,10.6-1.9,10.6c-2.5,1.2-3,3.5-2.7,5.7
	c0.4,3.5,2.8,6.4,6,7.8l20.2,8.6c0.5,0.2,1,0.3,1.6,0.3c1.7,0,3.3-1.1,3.8-2.8c0.5-1.7-0.1-3.5-1.6-4.4l-0.5-0.3l108.2,23.9
	c12.8,2.6,25.8-3.9,31.5-15.6l32.2-65.9L376.6,288.4z"/>
<path class="st0" d="M364.7,396.3c-1.9,0-3.9-0.2-5.8-0.6l-105.5-23.3c0.5,1.1,0.7,2.3,0.3,3.5c-0.6,2-2.5,3.4-4.6,3.4
	c-0.7,0-1.3-0.1-1.9-0.4l-20.2-8.6c-3.6-1.5-6.1-4.8-6.5-8.5c-0.3-2.8,0.5-4.9,2.5-6.2c-1.2-2.9-1.9-8,2-10.6
	c-0.3-1.3-0.9-4.5,0.5-7.3c0.8-1.5,2-2.7,3.7-3.5l-12.5-7.4c-2.5-1.5-3.8-4.3-3.3-7.1c0.3-1.9,1.5-3.6,3.1-4.7
	c1.6-1.1,3.7-1.4,5.6-0.9c15.8,4.3,27.6,7.8,34.8,10.4c1.8,0.6,4.4,1,7.1,1.3c3.8,0.5,8.2,1,11.8,2.6l75.3,7.2l24.7-47.5
	c0.1-0.2,0.3-0.3,0.5-0.4c0.2-0.1,0.4,0,0.6,0.1l46.2,25c0.4,0.2,0.5,0.7,0.4,1.1l-32.2,65.9C386.3,390,375.9,396.3,364.7,396.3z
	 M250.9,370.1c0.1,0,0.1,0,0.2,0l108.2,23.9c12.4,2.5,25-3.8,30.6-15.2l31.9-65.2L377,289.6l-24.6,47.3c-0.2,0.3-0.5,0.5-0.8,0.4
	l-76-7.3c-0.1,0-0.2,0-0.3-0.1c-3.4-1.5-7.7-2-11.5-2.5c-2.8-0.4-5.5-0.7-7.5-1.4c-7.2-2.6-18.9-6.1-34.7-10.3
	c-1.5-0.4-3-0.2-4.2,0.7c-1.3,0.8-2.1,2.1-2.4,3.6c-0.4,2.2,0.6,4.3,2.5,5.4l14,8.3c0.3,0.2,0.4,0.5,0.4,0.8c0,0.3-0.3,0.6-0.6,0.7
	c-2.1,0.6-3.5,1.8-4.3,3.3c-1.5,2.9-0.3,6.6-0.2,6.6c0.1,0.4,0,0.8-0.4,1c-4.8,2.6-1.7,9.2-1.6,9.5c0.2,0.4,0,0.9-0.4,1.1
	c-1.8,0.9-2.6,2.5-2.3,4.9c0.4,3.1,2.5,5.9,5.5,7.2l20.2,8.6c0.4,0.2,0.8,0.3,1.2,0.3c1.4,0,2.6-0.9,3-2.2c0.4-1.3-0.1-2.7-1.3-3.5
	l-0.5-0.3c-0.3-0.2-0.5-0.7-0.3-1C250.3,370.3,250.6,370.1,250.9,370.1z"/>
<path class="st0" d="M351.6,337.3c-0.4,0-0.8-0.3-0.8-0.8c0-0.5,0.3-0.9,0.8-0.9l15.1-1.4c0.5,0,0.9,0.3,0.9,0.8
	c0,0.5-0.3,0.9-0.8,0.9L351.6,337.3C351.7,337.3,351.7,337.3,351.6,337.3z"/>
<path class="st0" d="M250.9,371.8c-0.1,0-0.2,0-0.3-0.1l-12.9-5.4c-0.4-0.2-0.6-0.7-0.4-1.1c0.2-0.4,0.7-0.6,1.1-0.4l12.9,5.4
	c0.4,0.2,0.6,0.7,0.4,1.1C251.5,371.6,251.2,371.8,250.9,371.8z"/>
<path class="st0" d="M233.6,348.9c-0.1,0-0.2,0-0.3,0l-7.5-2.6c-0.4-0.2-0.7-0.6-0.5-1.1c0.2-0.4,0.6-0.7,1.1-0.5l7.5,2.6
	c0.4,0.2,0.7,0.6,0.5,1.1C234.3,348.7,233.9,348.9,233.6,348.9z"/>
<path class="st0" d="M230.1,358.3c-0.1,0-0.1,0-0.2,0l-6-1.5c-0.4-0.1-0.7-0.6-0.6-1c0.1-0.4,0.6-0.7,1-0.6l6,1.5
	c0.4,0.1,0.7,0.6,0.6,1C230.8,358.1,230.5,358.3,230.1,358.3z"/>
<path class="st0" d="M239.9,337.8c-0.1,0-0.2,0-0.2,0l-8.8-2.6c-0.4-0.1-0.7-0.6-0.6-1c0.1-0.4,0.6-0.7,1-0.6l8.8,2.6
	c0.4,0.1,0.7,0.6,0.6,1C240.6,337.6,240.3,337.8,239.9,337.8z"/>
<path class="st2" d="M436.1,290.3c0,3.6-0.6,7.2-1.7,10.7l-11.5,36.3l-6.9-3.6l-23.4-12.3l-29-15.2l25.6-48.8l12.4-0.4
	c7.5-0.2,14.8,2,20.9,6.4C431.2,269.7,436.1,279.8,436.1,290.3z"/>
<g class="st7">
	<path class="st1" d="M421.1,322.6c0,4.4-2,8.4-5.2,11l-23.4-12.3c0.6-7.3,6.8-13,14.2-13C414.7,308.3,421.1,314.7,421.1,322.6z"/>
</g>
<path class="st0" d="M422.9,338.1c-0.1,0-0.3,0-0.4-0.1l-59.3-31.1c-0.4-0.2-0.6-0.7-0.4-1.1l18.6-35.6c0.2-0.4,0.7-0.6,1.1-0.4
	c0.4,0.2,0.6,0.7,0.4,1.1l-18.2,34.9l57.6,30.3l10.9-34.1c0.1-0.4,0.6-0.7,1-0.5c0.4,0.1,0.7,0.6,0.5,1l-11.2,35
	c-0.1,0.2-0.3,0.4-0.5,0.5C423.1,338,423,338.1,422.9,338.1z"/>
<path class="st2" d="M267.2,159.5c0,0-17.2-12.2-25.8-37.7c-5.9-17.7-9.2-38.6-8.7-53.8c20.2-1.1,43.5-7.7,56.7-12
	c10.2,9.5,28.5,25.3,46.4,34.8c-6.1,14.5-17.5,32.3-29.6,45.7C291.3,152.7,267.2,159.5,267.2,159.5z"/>
<path class="st1" d="M280.2,123.8c11.3,0,20.4-9.1,20.4-20.4S291.5,83,280.2,83s-20.4,9.1-20.4,20.4S269,123.8,280.2,123.8z"/>
<path class="st1" d="M270.6,102.8l4.3,6.7l15.9-10.1"/>
<path class="st0" d="M274.2,112.6l-5.5-8.6l3.7-2.4l3.1,4.8l14-8.9l2.4,3.7L274.2,112.6z"/>
<path class="st5" d="M447,389.7L441,394c-2.8,2-6.7,1.4-8.7-1.4l-4.3-6c-2-2.8-1.4-6.7,1.4-8.7l6-4.4c2.8-2,6.7-1.4,8.7,1.4l4.3,6
	C450.4,383.7,449.8,387.6,447,389.7z"/>
<path class="st5" d="M440.8,244.5l-2.1,3.7c-1,1.7-3.2,2.3-4.9,1.3l-3.7-2.1c-1.7-1-2.3-3.2-1.3-4.9l2.1-3.7c1-1.7,3.2-2.3,4.9-1.3
	l3.7,2.1C441.2,240.6,441.8,242.8,440.8,244.5z"/>
<path class="st5" d="M174.1,140.4l-2.1,3.7c-1,1.7-3.2,2.3-4.9,1.3l-3.7-2.1c-1.7-1-2.3-3.2-1.3-4.9l2.1-3.7c1-1.7,3.2-2.3,4.9-1.3
	l3.7,2.1C174.5,136.5,175.1,138.7,174.1,140.4z"/>
<path class="st5" d="M356.4,118.2l-2.1,3.7c-1,1.7-3.2,2.3-4.9,1.3l-3.7-2.1c-1.7-1-2.3-3.2-1.3-4.9l2.1-3.7c1-1.7,3.2-2.3,4.9-1.3
	l3.7,2.1C356.7,114.3,357.3,116.5,356.4,118.2z"/>
<g class="st7">
	<path class="st1" d="M408.5,284.3c1.8,0,3.3-1.5,3.3-3.3c0-1.8-1.5-3.3-3.3-3.3c-1.8,0-3.3,1.5-3.3,3.3
		C405.2,282.8,406.7,284.3,408.5,284.3z"/>
</g>
<g class="st7">
	<path class="st1" d="M380.9,299.4c2.4,0,4.3-1.9,4.3-4.3c0-2.4-1.9-4.3-4.3-4.3c-2.4,0-4.3,1.9-4.3,4.3
		C376.6,297.5,378.6,299.4,380.9,299.4z"/>
</g>
<g class="st7">
	<path class="st1" d="M327.2,288.7c1.8,0,3.3-1.5,3.3-3.3c0-1.8-1.5-3.3-3.3-3.3c-1.8,0-3.3,1.5-3.3,3.3
		C323.8,287.2,325.3,288.7,327.2,288.7z"/>
</g>
<g class="st7">
	<path class="st1" d="M341,317.2c2.4,0,4.4-2,4.4-4.4c0-2.4-2-4.4-4.4-4.4c-2.4,0-4.4,2-4.4,4.4C336.6,315.2,338.6,317.2,341,317.2z
		"/>
</g>
<g class="st7">
	<path class="st1" d="M312.5,320.4c3.3,0,6-2.7,6-6c0-3.3-2.7-6-6-6s-6,2.7-6,6C306.5,317.7,309.2,320.4,312.5,320.4z"/>
</g>
<g class="st7">
	<path class="st1" d="M282.3,279.7c1.9,0,3.4-1.5,3.4-3.4c0-1.9-1.5-3.4-3.4-3.4c-1.9,0-3.4,1.5-3.4,3.4
		C279,278.2,280.5,279.7,282.3,279.7z"/>
</g>
<g class="st7">
	<path class="st1" d="M285.2,303.7c1.8,0,3.3-1.5,3.3-3.3c0-1.9-1.5-3.3-3.3-3.3c-1.9,0-3.3,1.5-3.3,3.3
		C281.8,302.2,283.3,303.7,285.2,303.7z"/>
</g>
<g class="st7">
	<path class="st1" d="M290.3,395.9c2.5,0,4.5-2,4.5-4.5s-2-4.5-4.5-4.5c-2.5,0-4.5,2-4.5,4.5S287.8,395.9,290.3,395.9z"/>
</g>
<g class="st7">
	<path class="st1" d="M317,400.5c2.5,0,4.5-2,4.5-4.5c0-2.5-2-4.5-4.5-4.5c-2.5,0-4.5,2-4.5,4.5C312.5,398.4,314.5,400.5,317,400.5z
		"/>
</g>
<g class="st7">
	<path class="st1" d="M341.1,364.3c3.6,0,6.5-2.9,6.5-6.5c0-3.6-2.9-6.5-6.5-6.5c-3.6,0-6.5,2.9-6.5,6.5
		C334.5,361.3,337.5,364.3,341.1,364.3z"/>
</g>
<g class="st7">
	<path class="st1" d="M313.6,275.9c2.7,0,4.9-2.2,4.9-4.9s-2.2-4.9-4.9-4.9s-4.9,2.2-4.9,4.9S310.9,275.9,313.6,275.9z"/>
</g>
</svg>
