<?xml version="1.0" encoding="UTF-8"?>
<svg id="Layer_2" data-name="Layer 2" xmlns="http://www.w3.org/2000/svg" viewBox="0 0 876.28 849.95">
  <defs>
    <style>
      .cls-1 {
        fill: #d6d7d9;
      }

      .cls-1, .cls-2, .cls-3, .cls-4 {
        stroke-width: 0px;
      }

      .cls-2 {
        fill: #009245;
      }

      .cls-3 {
        fill: #03e8ac;
      }

      .cls-4 {
        fill: #363634;
      }
    </style>
  </defs>
  <g id="Layer_2-2" data-name="Layer 2">
    <g>
      <g>
        <path class="cls-2" d="M781.58,569.5c-10.97,8.39-147.77,7.74-147.77,7.74l1.94,272.71h-332.97l21.5-261.52s-69.69,42.15-104.1,38.72c-34.42-3.44-61.95-9.47-74.85-42.17-10.34-26.2-30.09-138.62-37.52-182.23l67.04-35.45c12.82,31.61,51.86,123.31,52.42,126.69.66,3.88,94.86-70.98,115.51-75.5,20.65-4.51,86.48-14.19,86.48-14.19,0,0,26.24,44.31,55.92,36.13,29.69-8.18,33.55-36.13,33.55-36.13l192.52,74.85s1.45-127.63,2.67-171.99l69.41,9.39c5.87,44.76,15.96,122.32,20.83,162.6,7.1,58.72-11.62,81.94-22.59,90.33v.02Z"/>
        <path class="cls-4" d="M105.55,407.35l-.7-4.09c-1.26-7.39-2.17-12.81-2.61-15.5-12.88-3.57-70.89-20.06-81.25-30.85-7.34-7.64-7.82-14.77-6.44-19.41-4.46-1.38-11.24-4.47-12.02-10.7-.62-5.01.37-9.06,1.19-11.36-1.71-2.02-4.12-5.56-3.66-9.14.2-1.56,1.03-3.75,3.82-5.3,7.94-4.39,96.87,4.88,105.72,6.11,4.48.62,7.62,1.42,9.8,2.05-.04-.24-.08-.5-.12-.76-1.07-7.1-1.25-12.51,1.36-15.82,1.27-1.6,3.1-2.54,5.32-2.72l.54-.05c5.17-.44,13.82-1.18,17.64,6.45.59,1.18,2,3.87,3.78,7.27,7.26,13.88,22.37,42.77,26.06,53.31.52,1.48,1.72,4.53,3.66,9.33l1.02,2.51-73.09,38.65-.02.02ZM6.73,306.3c-.67.39-.7.66-.72.78-.16,1.25,1.61,3.95,3.3,5.58l1.64,1.59-1.09,2.01s-2.09,4.06-1.38,9.81c.44,3.51,7.51,5.87,10.87,6.46l4.95.87-3.11,3.94c-.17.22-4.56,6.39,4.12,15.42,8.34,8.69,60.83,24.41,80.36,29.73l1.86.51.31,1.9s.82,4.94,2.23,13.28l60.98-32.24c-1.41-3.5-2.29-5.78-2.75-7.09-3.55-10.13-18.52-38.75-25.71-52.51-1.87-3.57-3.21-6.14-3.83-7.37-1.85-3.7-6.04-3.65-11.76-3.15l-.55.05c-.79.06-1,.33-1.11.47-1.02,1.29-1.06,5.05-.13,11.2.14.94.28,1.71.39,2.35.38,2.14.71,3.99-.86,5.37-1.56,1.38-3.33.83-5.37.2-1.95-.61-5.22-1.63-10.6-2.37-18.1-2.5-95.15-9.34-102.05-6.77v-.02Z"/>
        <path class="cls-4" d="M786.82,320.07l-75.97-10.28.07-2.69c.14-4.93.34-11.37.56-14.02.75-9,5.91-30.1,11.37-52.44,4-16.36,8.14-33.28,10.18-44.23,4.6-24.67,7.42-32,12.57-32.69,4.49-.59,7.13,4.92,8.14,6.99,5.32,11,9.96,32.19,11.63,40.42,4.47-1.26,12.97-3.02,23.36-2.1,6.3.56,17.94.14,29.19-.26,18.32-.66,29.78-.95,34.41.54,6.86,2.2,8.94,6.73,9.57,9.52,3.57,1.34,11,4.62,13.43,9.49,2.22,4.44.22,8.31-2.4,10.68,1.43,3.68,3.14,10.19-1.03,13.4-3.78,2.91-52.81,15.59-74.3,21.06l-15.52,10.43c.58,4.37,2.13,16.22,4.24,32.31l.51,3.89v-.02ZM717,304.57l62.85,8.5c-2.4-18.33-3.97-30.25-3.97-30.26l-.24-1.84,19.47-13.09.5-.13c26.02-6.61,68.57-17.88,72.67-20.16.69-.71-.01-4.76-1.77-8.29l-1.3-2.63,2.58-1.36c.8-.44,3.31-2.04,2.17-4.32-1.38-2.77-7.67-5.81-11.7-7.09l-2.19-.7.1-2.3c0-.37-.14-4.12-5.67-5.89-3.97-1.27-19.05-.73-32.36-.26-11.96.43-23.26.83-29.94.24-13.67-1.21-23.91,2.77-24.01,2.81l-3.38,1.34-.68-3.57c-.05-.29-5.59-29.44-11.8-42.26-.95-1.96-1.65-2.91-2.05-3.35-1.9,2.29-4.37,11.54-7.35,27.54-2.07,11.11-6.23,28.11-10.25,44.55-5.17,21.13-10.51,42.99-11.22,51.51-.1,1.23-.26,4.15-.46,11h0Z"/>
        <path class="cls-4" d="M220.07,565.07c-.25,0-.51-.03-.77-.1-1.6-.42-2.56-2.06-2.13-3.67,6.87-26.01,7.1-61.75,7.1-66.7l-52.2-126.14c-.63-1.53.09-3.29,1.62-3.92s3.29.09,3.92,1.62l52.65,127.22v.58c.02,1.63.27,40.21-7.29,68.86-.36,1.34-1.57,2.23-2.9,2.23v.02Z"/>
        <path class="cls-4" d="M122,485.2c-1.43,0-2.69-1.02-2.95-2.47l-14.19-79.44c-.29-1.63.79-3.19,2.43-3.48,1.62-.29,3.19.79,3.48,2.43l14.19,79.44c.29,1.63-.79,3.19-2.43,3.48-.18.03-.36.05-.53.05h0Z"/>
        <path class="cls-4" d="M735.29,510.04c-1.05,0-2.06-.55-2.61-1.52-6.69-11.84-23.28-26.98-23.45-27.13l-1-.91.02-1.36,2.67-171.99c.03-1.64,1.36-2.95,3-2.95h.05c1.66.03,2.98,1.39,2.95,3.05l-2.65,170.65c3.83,3.58,17.38,16.63,23.63,27.69.82,1.44.31,3.27-1.13,4.09-.47.26-.97.39-1.47.39h-.01Z"/>
        <path class="cls-4" d="M799.82,447.15c-1.49,0-2.78-1.1-2.97-2.62l-16.49-127.58c-.21-1.64.95-3.15,2.59-3.36,1.65-.21,3.15.95,3.36,2.59l16.49,127.58c.21,1.64-.95,3.15-2.59,3.36-.13.02-.26.02-.39.02h0Z"/>
        <path class="cls-4" d="M129.44,345.5c-1.14,0-2.24-.66-2.74-1.77-7.64-16.92-10.28-35.36-10.38-36.14-.23-1.64.92-3.16,2.56-3.38,1.63-.23,3.16.91,3.39,2.56.03.18,2.63,18.38,9.91,34.5.68,1.51,0,3.29-1.5,3.97-.4.18-.82.27-1.23.27h0Z"/>
        <path class="cls-4" d="M107.82,332.01c-.14,0-.28,0-.42-.03l-100.58-14.18c-1.64-.23-2.78-1.75-2.55-3.39.23-1.64,1.74-2.78,3.39-2.55l100.58,14.18c1.64.23,2.78,1.75,2.55,3.39-.21,1.5-1.5,2.58-2.97,2.58Z"/>
        <path class="cls-4" d="M97.61,351.43c-.16,0-.33-.01-.49-.04l-78.76-12.95c-1.63-.27-2.74-1.81-2.47-3.45s1.82-2.75,3.45-2.47l78.76,12.95c1.63.27,2.74,1.81,2.47,3.45-.24,1.47-1.51,2.51-2.96,2.51h0Z"/>
        <path class="cls-4" d="M778.44,234.36c-1.49,0-2.78-1.11-2.97-2.62-.21-1.64.95-3.15,2.59-3.36l80.71-10.32c1.64-.21,3.15.95,3.36,2.59.21,1.64-.95,3.15-2.59,3.36l-80.71,10.32c-.13.02-.26.02-.38.02h-.01Z"/>
        <path class="cls-4" d="M791.57,251.08c-1.46,0-2.74-1.07-2.96-2.55-.25-1.64.88-3.17,2.52-3.41l75.35-11.33c1.64-.24,3.17.88,3.41,2.52.25,1.64-.88,3.17-2.52,3.41l-75.35,11.33c-.15.02-.3.03-.45.03h0Z"/>
        <path class="cls-4" d="M764.96,251.08c-1.58,0-2.9-1.23-2.99-2.83l-1.88-33.07c-.09-1.65,1.17-3.07,2.83-3.17,1.64-.08,3.07,1.17,3.17,2.83l1.88,33.07c.09,1.65-1.17,3.07-2.83,3.17h-.18Z"/>
        <path class="cls-4" d="M319.22,653c-.1,0-.19,0-.29-.01-1.65-.16-2.86-1.63-2.7-3.28l15.23-157.52c.16-1.65,1.61-2.85,3.28-2.7,1.65.16,2.86,1.63,2.7,3.28l-15.23,157.52c-.15,1.55-1.46,2.71-2.98,2.71h0Z"/>
        <path class="cls-4" d="M634.27,645.44c-1.59,0-2.92-1.25-3-2.86l-6.34-135.4c-.08-1.66,1.2-3.06,2.86-3.14,1.68-.06,3.06,1.2,3.14,2.86l6.34,135.4c.08,1.66-1.2,3.06-2.86,3.14h-.14Z"/>
        <path class="cls-4" d="M485.93,468.23c-21.61,0-37.17-8.65-46.82-16.48-11.93-9.68-17.52-20.01-17.75-20.44-.78-1.46-.23-3.28,1.24-4.06,1.46-.78,3.28-.23,4.06,1.23h0c.05.1,5.36,9.85,16.43,18.76,14.71,11.85,32.14,16.71,51.8,14.47,1.64-.2,3.13.99,3.32,2.64s-.99,3.13-2.64,3.32c-3.33.38-6.54.56-9.63.56h0Z"/>
        <path class="cls-4" d="M395.95,724.22c-1.17,0-2.28-.69-2.76-1.83-.65-1.53.06-3.29,1.59-3.93,62.5-26.55,110.45-69.18,139.66-100.26,31.66-33.68,48.69-61.36,48.85-61.63.86-1.42,2.71-1.86,4.12-1s1.86,2.71,1,4.12c-.17.28-17.53,28.48-49.6,62.61-29.61,31.5-78.22,74.72-141.69,101.67-.38.16-.78.24-1.17.24h0Z"/>
        <path class="cls-4" d="M541.61,653c-.47,0-.95-.11-1.4-.35-1.46-.77-2.02-2.59-1.25-4.05l37.76-71.43c.77-1.46,2.59-2.02,4.05-1.25,1.46.77,2.02,2.59,1.25,4.05l-37.76,71.43c-.54,1.02-1.58,1.6-2.66,1.6h.01Z"/>
        <path class="cls-4" d="M552.4,808.38h-233.18c-1.66,0-3-1.34-3-3s1.34-3,3-3h233.18c1.66,0,3,1.34,3,3s-1.34,3-3,3Z"/>
      </g>
      <g>
        <path class="cls-4" d="M826.54,87.21c-1.66,0-3-1.34-3-3v-38.01c0-22.17-18.04-40.2-40.2-40.2s-40.2,18.04-40.2,40.2v38.01c0,1.66-1.34,3-3,3s-3-1.34-3-3v-38.01c0-25.48,20.73-46.2,46.2-46.2s46.2,20.73,46.2,46.2v38.01c0,1.66-1.34,3-3,3Z"/>
        <rect class="cls-2" x="711.49" y="84.21" width="143.69" height="130.8" rx="14.47" ry="14.47"/>
        <path class="cls-4" d="M806.13,133.98c0-12.59-10.21-22.8-22.8-22.8s-22.8,10.21-22.8,22.8c0,10,6.44,18.47,15.4,21.54v25.12c0,4.09,3.31,7.4,7.4,7.4s7.4-3.31,7.4-7.4v-25.12c8.95-3.08,15.4-11.55,15.4-21.54h0Z"/>
      </g>
      <g>
        <path class="cls-2" d="M100.66,333.25c42.19,0,76.39-34.21,76.39-76.39,0-35.77-24.58-65.79-57.76-74.11-5.96-1.5-12.2-2.29-18.63-2.29s-12.67.79-18.63,2.29c-33.18,8.31-57.76,38.34-57.76,74.11,0,42.18,34.21,76.39,76.39,76.39ZM100.66,216.48c22.3,0,40.38,18.08,40.38,40.38s-18.08,40.37-40.38,40.37-40.37-18.08-40.37-40.37,18.08-40.38,40.37-40.38Z"/>
        <path class="cls-4" d="M82.03,85.78v-16.11h-19.68v-21.08h19.68v-16.11h-19.68V11.39h56.94v171.37c-5.96-1.5-12.2-2.29-18.63-2.29s-12.67.79-18.63,2.29v-75.89h-19.68v-21.08h19.68Z"/>
      </g>
      <g>
        <path class="cls-4" d="M399.27,334.14c-4.8,0-12.94-.85-18.93-5.9-4.58-3.85-7.03-9.35-7.3-16.33-.29-7.64,1.78-13.27,6.17-16.73,7.38-5.83,18.33-2.87,18.8-2.74,1.6.45,2.53,2.1,2.08,3.7-.45,1.59-2.1,2.53-3.69,2.09-.16-.04-8.54-2.25-13.49,1.68-2.79,2.21-4.09,6.18-3.87,11.78.2,5.22,1.93,9.24,5.15,11.96,6.8,5.75,18.19,4.35,18.3,4.34,1.63-.21,3.15.95,3.36,2.58.21,1.64-.94,3.15-2.58,3.36-.18.02-1.71.22-4,.22h0Z"/>
        <path class="cls-4" d="M551.76,333.08c-1.98,0-3.28-.15-3.45-.17-1.65-.2-2.82-1.69-2.63-3.33.2-1.65,1.69-2.82,3.33-2.63.11.01,11.51,1.25,18.24-4.59,3.18-2.76,4.86-6.81,4.99-12.03.14-5.6-1.22-9.55-4.04-11.73-5.02-3.87-13.43-1.51-13.51-1.49-1.59.46-3.25-.46-3.72-2.04-.46-1.59.44-3.25,2.03-3.71.46-.14,11.38-3.25,18.83,2.48,4.43,3.41,6.59,9.01,6.4,16.65-.17,6.99-2.55,12.52-7.08,16.43-6.16,5.34-14.7,6.17-19.41,6.17h.02Z"/>
        <path class="cls-4" d="M520.04,410.32c-1.46,0-2.74-1.07-2.96-2.55l-3.95-26.26c-.25-1.64.88-3.17,2.52-3.41s3.17.88,3.41,2.52l3.95,26.26c.25,1.64-.88,3.17-2.52,3.41-.15.02-.3.03-.45.03h0Z"/>
        <path class="cls-4" d="M429.42,407.03c-.13,0-.26,0-.39-.03-1.64-.21-2.8-1.72-2.59-3.36l2.81-21.49c.21-1.64,1.72-2.81,3.36-2.59,1.64.21,2.8,1.72,2.59,3.36l-2.81,21.49c-.2,1.51-1.49,2.61-2.97,2.61h0Z"/>
        <g>
          <path class="cls-4" d="M472.67,342.98h-.1c-9.97-.33-17.34-3.96-20.85-6.1-1.55-.95-2.51-2.47-2.64-4.18-.12-1.67.58-3.26,1.93-4.37,6.96-5.73,15.1-18.39,7.36-27.98-7.87-9.74-22.31-3.72-22.46-3.66-1.52.65-3.29-.06-3.94-1.58s.06-3.29,1.58-3.94c.76-.33,18.79-7.82,29.48,5.41,9.09,11.25,3.07,26.54-7.36,35.66,3.26,1.85,9.23,4.47,17.09,4.73,1.66.05,2.95,1.44,2.9,3.1-.05,1.62-1.39,2.9-3,2.9h0Z"/>
          <path class="cls-4" d="M515.62,301.66c-.74,0-1.48-.27-2.06-.82-.5-.47-11.86-10.96-23.94-4.7-1.47.76-3.28.18-4.04-1.29-.76-1.47-.18-3.28,1.29-4.04,15.92-8.23,30.22,5.11,30.83,5.68,1.2,1.14,1.25,3.04.11,4.24-.59.62-1.38.93-2.17.93h-.02Z"/>
        </g>
        <path class="cls-4" d="M470.72,398.07c-6.19,0-12.39-.84-18.44-2.54-24.63-6.89-43.23-26.7-48.54-51.72l-4.99-23.51c-.34-1.62.69-3.21,2.31-3.56s3.21.69,3.56,2.31l4.99,23.51c4.85,22.82,21.81,40.9,44.29,47.19,11.81,3.3,24.22,3.07,35.9-.68l8.83-2.83c20.76-6.66,36.76-23.99,41.74-45.21l5.4-23c.38-1.61,2-2.61,3.61-2.24,1.61.38,2.61,1.99,2.24,3.61l-5.4,23c-5.46,23.27-22.99,42.26-45.75,49.56l-8.83,2.83c-6.81,2.18-13.85,3.28-20.9,3.28h-.02Z"/>
        <ellipse class="cls-4" cx="499.24" cy="311.29" rx="6.27" ry="7.42"/>
        <ellipse class="cls-4" cx="438.5" cy="311.29" rx="6.27" ry="7.42"/>
        <path class="cls-4" d="M551.98,301.66c-1.46,0-2.74-1.07-2.96-2.56-.02-.1-1.81-11.09-11.55-22.78-12.92-15.51-33.98-25.27-60.92-28.22-27.15-2.98-48.1,3.35-62.25,18.81-10.59,11.57-13.26,24.26-13.29,24.38-.33,1.62-1.91,2.67-3.53,2.35-1.62-.33-2.67-1.9-2.35-3.52.12-.58,2.94-14.23,14.54-27.03,10.66-11.77,31.03-24.96,67.54-20.95,36.25,3.98,55.42,18.86,65.12,30.65,10.65,12.94,12.54,24.93,12.62,25.43.25,1.64-.88,3.17-2.52,3.41-.15.02-.3.03-.45.03h0Z"/>
        <path class="cls-4" d="M467.15,365.05c-9.37,0-15.33-4.09-15.7-4.35-1.35-.96-1.68-2.83-.72-4.18.95-1.35,2.82-1.67,4.17-.73.49.33,11.42,7.62,27.07-.75,1.46-.78,3.28-.23,4.06,1.23.78,1.46.23,3.28-1.23,4.06-6.64,3.56-12.64,4.73-17.66,4.73h0Z"/>
      </g>
      <path class="cls-4" d="M402.88,278.13s-28.84-2.13-33.6-21.27,12.16-30.66,12.16-30.66c0,0-8.46-14.4-4.76-24.98,3.7-10.58,12.76-13.18,12.76-13.18,0,0,10.51-32.92,27.43-38.43s27.9,0,27.9,0c0,0,26.58-15.03,41.39-5.51s15.77,14.28,15.77,14.28c0,0,30.24-7.4,41.35,4.76,11.11,12.16,8.71,19.61,8.71,19.61,0,0,16.15,4.72,19.85,15.83,3.7,11.11,0,16.44,0,16.44,0,0,15.87,4.71,12.16,22.17-3.7,17.45-11.64,19.67-11.64,19.67,0,0,1.59,11-7.4,17.88s-20.64,5.83-20.64,5.83c0,0-20.61-18.52-57.1-20.11-36.49-1.59-84.34,17.67-84.34,17.67h0Z"/>
    </g>
    <g>
      <g>
        <path class="cls-4" d="M284.66,784.91H107.09c-28.98,0-52.56-23.58-52.56-52.56v-337.29c0-1.66,1.34-3,3-3s3,1.34,3,3v337.29c0,25.67,20.89,46.56,46.56,46.56h177.57c1.66,0,3,1.34,3,3s-1.34,3-3,3Z"/>
        <path class="cls-4" d="M809.6,784.91h-150.5c-1.66,0-3-1.34-3-3s1.34-3,3-3h150.5c25.67,0,46.56-20.89,46.56-46.56v-441.68c0-1.66,1.34-3,3-3s3,1.34,3,3v441.68c0,28.98-23.58,52.56-52.56,52.56Z"/>
        <path class="cls-4" d="M696.79,38.16H162.48c-1.66,0-3-1.34-3-3s1.34-3,3-3h534.31c1.66,0,3,1.34,3,3s-1.34,3-3,3Z"/>
      </g>
      <path class="cls-4" d="M696.79,100.07H162.48c-1.66,0-3-1.34-3-3s1.34-3,3-3h534.31c1.66,0,3,1.34,3,3s-1.34,3-3,3Z"/>
      <circle class="cls-3" cx="188.8" cy="65.17" r="9.65"/>
      <circle class="cls-4" cx="227.27" cy="65.17" r="9.65"/>
      <circle class="cls-4" cx="265.75" cy="65.17" r="9.65"/>
    </g>
    <path class="cls-4" d="M312.97,365.03h-111.91c-1.66,0-3-1.34-3-3s1.34-3,3-3h111.91c10.18,0,18.47-8.29,18.47-18.47v-163.64c0-10.18-8.29-18.47-18.47-18.47h-119.15c-1.66,0-3-1.34-3-3s1.34-3,3-3h119.15c13.49,0,24.47,10.98,24.47,24.47v163.64c0,13.49-10.98,24.47-24.47,24.47Z"/>
    <rect class="cls-1" x="209.41" y="178.31" width="100.8" height="113.79" rx="13.53" ry="13.53"/>
    <rect class="cls-1" x="88.92" y="700.72" width="138.35" height="41.01" rx="20.15" ry="20.15"/>
    <g>
      <path class="cls-4" d="M855.18,682.21h-141.26c-1.66,0-3-1.34-3-3s1.34-3,3-3h141.26c1.66,0,3,1.34,3,3s-1.34,3-3,3Z"/>
      <path class="cls-4" d="M791.58,724.22h-98.94c-1.66,0-3-1.34-3-3s1.34-3,3-3h98.94c1.66,0,3,1.34,3,3s-1.34,3-3,3Z"/>
    </g>
  </g>
</svg>