<?xml version="1.0" encoding="UTF-8"?>
<svg id="Layer_2" data-name="Layer 2" xmlns="http://www.w3.org/2000/svg" viewBox="0 0 814.7 830.95">
  <defs>
    <style>
      .cls-1 {
        fill: #009245;
      }

      .cls-1, .cls-2 {
        stroke-width: 0px;
      }

      .cls-2 {
        fill: #363634;
      }
    </style>
  </defs>
  <g id="Layer_2-2" data-name="Layer 2">
    <g>
      <path class="cls-1" d="M0,830.94s9.98-124.7,24.63-245.13c-7.91-44.55-11.15-88.96-6.66-119.09,12.31-82.48,46.89-93.67,46.89-93.67,1.87-3.55,3.75-6.04,5.63-7.36,35.24-24.67,103.67-51.11,103.67-51.11,0,0-.58-22.92,10.59-22.92s31.71,8.81,54.63,7.05c22.9-1.76,47-11.15,49.93-4.11,2.92,7.04,5.88,19.98,5.88,19.98,0,0,80.18,63.44,95.16,84.59,1.78,2.51,4.04,10.52,6.62,22.69l-52.38,154.45c.54-2.12,10.08-39.08,8.56-52-1.56-13.32-13.32,2.74-23.5,23.88-10.18,21.15-36.04,48.56-36.04,48.56-14.87,8.23-49.73,21.16-49.73,21.16l8.41,62.06s39.15-8.77,61.84-13.47c-2.75,12.3,6.59,24.34,19.56,24.34h102.82c9.9,77.55,17.28,140.11,17.28,140.11H0Z"/>
      <path class="cls-2" d="M628.32,381.61h-203.35c-8.57,0-16.2,5.47-18.95,13.6l-9.04,26.64-52.4,154.52v.03s38.73-6.29,61.45-13.73c22.71-7.44,27.81-9.01,30.15-1.18,2.35,7.83-19.58,23.88-19.58,23.88,0,0,3.52,5.89.39,13.33-3.14,7.43-11.75,10.17-11.75,10.17,0,0,.39,11.36-3.14,19.19-3.52,7.84-12.52,9.79-12.52,9.79,0,0-4.71,15.28-8.23,17.24-3.52,1.95-42.3,7.05-52.87,8.62-2.4.36-7.65,1.39-14.33,2.77-2.75,12.3,6.59,24.34,19.56,24.34h219.45c8.99,0,16.88-5.98,19.29-14.63l75.17-269.17c3.57-12.77-6.04-25.41-19.29-25.41h-.01ZM513.38,421.94l-11.45,38.34c-1.13,3.82-4.65,6.44-8.65,6.44h-64.33c-6.11,0-10.46-5.95-8.6-11.77l12.26-38.35c1.19-3.74,4.66-6.28,8.6-6.28h63.53c6.04,0,10.38,5.82,8.65,11.61h0Z"/>
      <path class="cls-2" d="M249.78,683.6l-9.18-67.68,2.25-.84c.34-.13,34.17-12.71,48.91-20.74,2.97-3.2,25.93-28.23,35.19-47.46,4.12-8.55,8.26-15.86,12-21.14,4.92-6.96,8.64-9.8,12.1-9.23,2.85.48,4.56,2.98,5.09,7.44,1.28,10.86-4.49,36.38-7.53,48.72,10.85-1.89,38.79-7.05,56.49-12.85,17.35-5.69,24.54-8.04,29.4-5.5,2.84,1.48,3.96,4.31,4.56,6.32,2.48,8.26-11.89,20.46-18.77,25.73.97,2.84,1.87,7.79-.53,13.5-2.64,6.24-8.39,9.61-11.5,11.04-.06,3.83-.55,12.06-3.41,18.4-3.12,6.94-9.72,9.92-12.88,10.99-2,6.23-5.49,15.39-9.15,17.43-2.8,1.56-18.05,3.92-45.21,7.73-3.63.51-6.67.94-8.68,1.23-2.12.31-6.76,1.21-14.17,2.74-22.4,4.65-61.4,13.37-61.79,13.46l-3.19.71h0ZM247.19,619.86l7.66,56.46c9.81-2.19,40-8.89,58.69-12.77,7.52-1.55,12.27-2.47,14.5-2.8,2.03-.3,5.08-.73,8.73-1.24,11.92-1.67,39.76-5.58,43.12-7.03,1.44-1.11,4.61-8.3,6.82-15.49l.52-1.68,1.71-.37c.06-.01,7.59-1.78,10.43-8.09,3.2-7.09,2.88-17.75,2.88-17.86l-.08-2.27,2.16-.69c.06-.02,7.35-2.46,9.89-8.49,2.46-5.86-.1-10.44-.21-10.64l-1.34-2.33,2.15-1.61c9.56-7.01,19.5-17.19,18.48-20.6-.6-2.01-1.2-2.52-1.59-2.72-2.62-1.37-11.42,1.52-24.75,5.88-22.68,7.43-60.32,13.58-61.91,13.84l-3.48.56v-4.81l.31-.31c4.52-17.74,9.33-41.26,8.29-50.17-.12-1.01-.28-1.63-.42-2.01-2.33,1.33-8.69,8.75-17.4,26.84-10.26,21.32-35.48,48.18-36.55,49.31l-.32.34-.41.23c-12.88,7.12-39.86,17.47-47.89,20.5v.02Z"/>
      <path class="cls-2" d="M350.02,606.01c-1.33,0-2.54-.89-2.9-2.23-.42-1.6.53-3.24,2.13-3.67l66.58-17.62c1.6-.43,3.24.53,3.67,2.13s-.53,3.24-2.13,3.67l-66.58,17.62c-.26.07-.52.1-.77.1Z"/>
      <path class="cls-2" d="M355.11,631.47c-1.2,0-2.33-.72-2.79-1.91-.6-1.54.16-3.28,1.7-3.89l50.13-19.58c1.54-.6,3.28.16,3.89,1.7.6,1.54-.16,3.28-1.7,3.89l-50.13,19.58c-.36.14-.73.21-1.09.21h-.01Z"/>
      <path class="cls-2" d="M363.34,649.09c-1.28,0-2.46-.82-2.86-2.1-.5-1.58.38-3.26,1.96-3.76l26.24-8.22c1.58-.5,3.26.38,3.76,1.97.5,1.58-.38,3.26-1.96,3.76l-26.24,8.22c-.3.09-.6.14-.9.14h0Z"/>
      <path class="cls-2" d="M101.16,705.99c-5.04,0-8.88-.38-11.15-1.22-14.52-5.41-42.87-28.94-69.56-125.7-.44-1.6.5-3.25,2.09-3.69s3.25.5,3.69,2.09c26.96,97.7,55.05,117.63,65.88,121.67,14.42,5.38,115.53-13.24,156.86-21.57l-7.75-57.15-92.38-18.22-.2-2.24c-.12-1.38-12.64-138.87-23.93-181.98-4.49-17.15-15.83-29.4-33.69-36.43-13.58-5.35-26.04-5.51-26.16-5.51-1.66-.01-2.99-1.37-2.98-3.02,0-1.65,1.35-2.98,3-2.98h.02c.55,0,13.53.15,28.13,5.85,19.57,7.64,32.53,21.67,37.48,40.57,10.75,41.06,22.18,162.07,23.89,180.72l92.18,18.18,9.09,66.97-2.75.56c-12.92,2.63-114.63,23.09-151.75,23.09h0Z"/>
      <path class="cls-2" d="M97.84,631.47c-.78,0-1.55-.3-2.14-.89-1.16-1.18-1.15-3.08.03-4.24,23.87-23.53,54.05-29.35,55.33-29.58,1.63-.3,3.19.77,3.5,2.4.3,1.63-.77,3.19-2.4,3.5h0c-.29.06-29.69,5.76-52.21,27.96-.58.58-1.35.86-2.11.86h0Z"/>
      <g>
        <path class="cls-2" d="M256.02,366.3c-.13,0-.26,0-.39-.03-43.66-5.72-82.07-47.9-83.68-49.69-1.11-1.23-1.01-3.13.22-4.24s3.13-1.01,4.24.22c.38.42,38.56,42.33,80,47.75,1.64.22,2.8,1.72,2.58,3.36-.2,1.51-1.49,2.61-2.97,2.61v.02Z"/>
        <path class="cls-2" d="M259.93,340.62c-1.32,0-2.53-.88-2.89-2.22-.43-1.6.52-3.25,2.12-3.68,19.18-5.16,33.62-21.92,33.77-22.09,1.07-1.26,2.97-1.41,4.23-.34s1.42,2.96.34,4.23c-.63.75-15.76,18.34-36.78,24-.26.07-.52.1-.78.1h0Z"/>
        <path class="cls-2" d="M194.42,581.27c-.9,0-1.79-.4-2.38-1.17-1.01-1.31-.76-3.2.55-4.21l160.7-123.46c1.31-1.01,3.2-.76,4.21.55,1.01,1.31.76,3.2-.55,4.21l-160.7,123.46c-.54.42-1.19.62-1.83.62h0Z"/>
        <path class="cls-2" d="M220.52,780.56H23.34c-1.66,0-3-1.34-3-3s1.34-3,3-3h197.18c1.66,0,3,1.34,3,3s-1.34,3-3,3h0Z"/>
        <path class="cls-2" d="M66,803.1H29.46c-1.66,0-3-1.34-3-3s1.34-3,3-3h36.54c1.66,0,3,1.34,3,3s-1.34,3-3,3Z"/>
        <path class="cls-2" d="M350.02,793.39c-.68,0-1.36-.23-1.92-.7-1.27-1.06-1.44-2.96-.37-4.23l74.09-88.43c1.06-1.27,2.96-1.44,4.23-.37,1.27,1.06,1.44,2.96.37,4.23l-74.09,88.43c-.59.71-1.44,1.07-2.3,1.07h0Z"/>
      </g>
      <g>
        <path class="cls-2" d="M187.16,153.99l11.51,58.08s-4.35,8.21-12.2,5.14c-7.85-3.07-6.26-23.47-11.14-27.16s-16.96-11.25-24.28-10.31-7.31-5.82-9.52-13.49c-2.22-7.67-7.15-25.93-7.15-25.93l52.78,13.68h0Z"/>
        <g>
          <path class="cls-2" d="M251.77,298.09c-7.47,0-15.29-.66-22.75-2.46-29.12-7.01-36.46-41.5-36.76-42.96-.33-1.62.72-3.21,2.34-3.54,1.62-.33,3.21.72,3.54,2.34h0c.07.32,6.91,32.22,32.28,38.33,26.48,6.37,58.97-2.71,59.3-2.81,1.59-.45,3.25.47,3.71,2.06s-.47,3.25-2.06,3.71c-1.02.29-19.01,5.33-39.59,5.33h0Z"/>
          <path class="cls-2" d="M290.53,292.87c-1.39,0-2.63-.97-2.93-2.37-.34-1.62.69-3.21,2.31-3.56.33-.07,32.9-7.23,36.9-25.26,3.6-16.2-6.54-88.02-9.73-109.65-.24-1.64.89-3.16,2.53-3.41,1.64-.24,3.16.89,3.41,2.53,4.14,28.05,13.37,95.09,9.65,111.83-4.84,21.78-40.01,29.51-41.51,29.82-.21.04-.42.07-.63.07h0Z"/>
          <path class="cls-2" d="M187.02,294.21c-1.5,0-2.8-1.13-2.98-2.66-2.9-25.27-8.01-36.44-12.52-46.3-1.86-4.07-3.62-7.91-5.08-12.41-.4-1.22-1.57-2.02-2.89-1.95-7.39.44-17.65-.07-24.55-4.97-6.07-4.3-10.33-14.12-10.35-23.86-.02-9.43,3.76-17.33,10.64-22.26,14.27-10.21,32.67,3.5,37.97,7.94,1.55,1.3,2.61,3.12,2.99,5.12.65,3.43,2.06,10.31,4.22,17.83.45,1.57,1.49,2.86,2.93,3.63,1.44.77,3.08.92,4.63.42,2.97-.95,4.7-3.96,4-7.01l-5.79-25.5c-.37-1.62.65-3.22,2.26-3.59,1.62-.37,3.22.65,3.59,2.26l5.79,25.5c1.39,6.11-2.07,12.15-8.03,14.05-3.11.99-6.41.69-9.29-.85s-4.97-4.12-5.87-7.27c-2.22-7.75-3.68-14.84-4.35-18.37-.12-.65-.45-1.22-.95-1.64-4.46-3.74-19.86-15.36-30.62-7.66-7.1,5.08-8.14,13.06-8.13,17.37.02,7.8,3.31,15.78,7.82,18.98,5.78,4.1,15.47,4.19,20.73,3.88,4.03-.24,7.7,2.26,8.94,6.08,1.36,4.17,3.05,7.86,4.84,11.77,4.69,10.26,10.01,21.9,13.02,48.11.19,1.65-.99,3.13-2.64,3.32-.12.01-.23.02-.35.02l.02.02Z"/>
        </g>
        <g>
          <ellipse class="cls-2" cx="237.62" cy="194.22" rx="4.48" ry="8.09" transform="translate(-24.97 35.37) rotate(-8.09)"/>
          <ellipse class="cls-2" cx="298.12" cy="185.61" rx="4.48" ry="8.09" transform="translate(-23.15 43.8) rotate(-8.09)"/>
        </g>
        <g>
          <path class="cls-2" d="M271.86,264.65c-15.05,0-23.95-9.98-24.08-10.12-1.09-1.25-.95-3.15.3-4.23,1.25-1.08,3.14-.95,4.22.29.57.64,13.93,15.33,36.11,3.51,1.46-.78,3.28-.22,4.06,1.24s.23,3.28-1.24,4.06c-7.23,3.85-13.73,5.25-19.37,5.25Z"/>
          <g>
            <path class="cls-2" d="M275.16,240.05c-1.49,0-2.78-1.1-2.97-2.62-.21-1.64.95-3.15,2.59-3.36,9.37-1.21,15.88-5.92,18.93-8.61.03-.03.06-.06.06-.13,0-.09-.06-.14-.08-.15-12.86-10.46-22.06-29.9-13.75-45.33,7.9-14.68,24.18-12.87,31.69-9.86,1.54.62,2.29,2.36,1.67,3.9-.62,1.53-2.36,2.28-3.89,1.67h0c-.69-.27-16.85-6.47-24.18,7.13-7.6,14.13,3.48,30.7,12.25,37.83,1.42,1.15,2.25,2.86,2.29,4.68.04,1.81-.72,3.55-2.08,4.75-3.56,3.15-11.18,8.65-22.14,10.07-.13.02-.26.03-.39.03h0Z"/>
            <path class="cls-2" d="M225.11,192.29c-.7,0-1.4-.24-1.97-.73-1.25-1.08-1.39-2.97-.3-4.22.54-.62,13.39-15.18,29.89-8.58,1.54.61,2.29,2.36,1.67,3.9-.61,1.54-2.36,2.29-3.9,1.67-12.51-5-22.7,6.45-23.13,6.94-.59.68-1.43,1.03-2.26,1.03h0Z"/>
          </g>
        </g>
        <path class="cls-2" d="M145.82,181.02c-1.32,0-2.53-.88-2.89-2.21l-7.09-25.96c-.44-1.6.51-3.25,2.1-3.68,1.6-.44,3.25.51,3.68,2.1l7.09,25.96c.44,1.6-.51,3.25-2.1,3.68-.26.07-.53.11-.79.11Z"/>
        <g>
          <path class="cls-2" d="M163.91,219.27c-.45,0-.9-.1-1.33-.31-1.49-.73-2.1-2.53-1.36-4.02.78-1.58.92-3.67.38-5.87-.44-1.82-2.24-7.87-6.83-9.14-4.23-1.17-9.18.94-11.75,2.3-1.46.78-3.28.22-4.06-1.24s-.22-3.28,1.25-4.06c4.1-2.18,10.24-4.43,16.17-2.79,7.53,2.09,10.24,10.14,11.05,13.51.87,3.57.57,7.1-.83,9.94-.52,1.06-1.59,1.67-2.69,1.67h0Z"/>
          <path class="cls-2" d="M151.07,215.92c-1.48,0-2.77-1.09-2.97-2.6-.1-.78-.9-7.77,3.34-12.17,1.65-1.71,4.72-3.65,10-3.13,1.65.16,2.86,1.63,2.7,3.27-.16,1.65-1.62,2.86-3.28,2.7-2.35-.22-4.01.2-5.09,1.32-1.91,1.97-1.89,5.89-1.72,7.23.21,1.64-.95,3.14-2.59,3.35-.13.02-.26.03-.39.03h0Z"/>
        </g>
        <path class="cls-2" d="M240.81,213.55c-14.29,0-22.59-14.05-25.72-23.8l-43.73,4.68c-1.63.18-3.13-1.02-3.3-2.66-.18-1.65,1.02-3.13,2.66-3.3l48.83-5.23.63,2.53c.25,1.01,6.44,24.72,23.83,21.47,17.55-3.27,16.21-21.84,16.14-22.63l-.09-1.1.65-.9c.17-.23,4.23-5.7,13.95-4.95,8.41.65,13.52,2.26,13.73,2.33l2.28.73-.2,2.38c0,.07-.56,7.62,3.23,11.85,1.65,1.84,3.9,2.78,6.88,2.87,2.22.06,3.85-.57,5.13-2.01,3.86-4.33,3.38-14.44,2.87-17.97l-.54-3.7,15.97,1.2c1.65.12,2.89,1.56,2.77,3.22-.12,1.65-1.57,2.89-3.22,2.77l-8.7-.65c.27,5.06-.03,13.93-4.68,19.13-2.44,2.74-5.83,4.13-9.79,4.01-4.66-.14-8.43-1.78-11.2-4.89-3.85-4.32-4.64-10.38-4.75-13.78-2.08-.48-5.62-1.15-10.24-1.51-4.43-.34-6.9,1.04-7.99,1.9.23,8.89-3.8,24.38-21.1,27.61-1.49.28-2.93.41-4.3.41h0Z"/>
        <path class="cls-2" d="M134.38,140.31s-13.56-23.07,7.23-42.56c20.79-19.49,39.93-34.45,84.47-41.07,44.55-6.61,69.6,29.23,69.6,29.23,0,0,18.27-10.09,28.1,9.74,1.72,3.47,2.76,7.31,3.29,11.27,3.01,22.16-10.72,43.25-31.96,50.25-17.05,5.62-40,11.42-61.03,10.87-40.02-1.04-53.6-9.74-53.6-9.74l-46.11-17.99h0Z"/>
        <path class="cls-2" d="M202.98,208.68s15.71,64.26,50.95,64.89,25.58-8.51,32.1-10.34,8.87-.78,10.44,1.83,1,1.08,14.07-3.38,20.01-11.76,20.01-11.76c0,0,2.65,17.49-3.05,22.45-5.71,4.96-37.81,24.27-70.44,23.49s-43.33-7.83-50.38-19.84-15.14-31.84-18.79-33.67-16.85-7.2-16.85-7.2l-4.51-8.2,14.05-12.01,22.39-6.26h.01Z"/>
      </g>
      <path class="cls-2" d="M229.57,302.23c-.09,0-.19,0-.29-.01-.91-.09-22.44-2.15-37.21-7.08-4.05-1.35-7.24-1.37-9.47-.07-2.64,1.55-3.26,4.66-3.27,4.69-.31,1.62-1.87,2.69-3.48,2.4-1.62-.29-2.7-1.82-2.43-3.44.04-.23,1.04-5.77,6.04-8.77,3.8-2.28,8.68-2.45,14.5-.51,14.11,4.71,35.66,6.77,35.88,6.8,1.65.16,2.86,1.62,2.71,3.27-.15,1.55-1.45,2.72-2.98,2.72h0Z"/>
    </g>
    <g>
      <path class="cls-2" d="M732.06,248.58h-259.92c-35.73,0-67.44-20.97-80.77-53.43-6.67-16.24-6.4-30.25.82-41.62,19.04-30.02,48.68-23.84,60.47-19.83-1.7-14.05-3.74-53.22,19.83-86.01,18.26-25.39,47.69-40.93,87.47-46.18,37.91-5,68.35,2.44,90.5,22.13,31.92,28.36,37.05,73.27,37.85,88.97,5.36-3.24,14.95-8.06,27.07-9.96,17.25-2.71,42.96.25,67.52,29.67,10.85,13,17,27.2,18.27,42.22,1.61,19-4.69,37.29-17.73,51.48-13.18,14.34-31.91,22.57-51.38,22.57h0ZM432.88,136.12c-11.49,0-25.24,4.25-35.62,20.62-6.11,9.64-6.22,21.79-.33,36.13,12.4,30.2,41.93,49.71,75.22,49.71h259.92c17.8,0,34.92-7.52,46.96-20.63,11.89-12.94,17.64-29.6,16.17-46.91-1.17-13.76-6.85-26.84-16.9-38.88-18.28-21.89-39.12-31.18-61.99-27.59-17.09,2.68-28.89,11.83-29.01,11.92l-4.93,3.88.08-6.27c0-.57.3-57.76-36.01-90-20.78-18.46-49.62-25.4-85.7-20.64-38.06,5.02-66.1,19.72-83.35,43.69-27.16,37.73-18.15,86.19-18.05,86.67l1.16,5.98-5.45-2.72c-.75-.37-10.25-4.96-22.17-4.96h0Z"/>
      <g>
        <path class="cls-2" d="M634.61,175.45c-1.66,0-3-1.34-3-3v-44.65c0-26.33-21.42-47.75-47.75-47.75s-47.75,21.42-47.75,47.75v44.65c0,1.66-1.34,3-3,3s-3-1.34-3-3v-44.65c0-29.64,24.11-53.75,53.75-53.75s53.75,24.11,53.75,53.75v44.65c0,1.66-1.34,3-3,3Z"/>
        <rect class="cls-1" x="499.47" y="172.45" width="168.79" height="153.65" rx="14.47" ry="14.47"/>
        <path class="cls-2" d="M610.64,230.91c0-14.79-11.99-26.78-26.78-26.78s-26.78,11.99-26.78,26.78c0,11.74,7.57,21.69,18.08,25.31v29.51c0,4.8,3.89,8.69,8.69,8.69s8.69-3.89,8.69-8.69v-29.51c10.52-3.61,18.08-13.56,18.08-25.31h.02Z"/>
      </g>
    </g>
    <path class="cls-2" d="M792.02,791.61h-272.88c-12.5,0-22.68-10.17-22.68-22.68v-59.06c0-1.66,1.34-3,3-3s3,1.34,3,3v59.06c0,9.2,7.48,16.68,16.68,16.68h272.88c9.2,0,16.68-7.48,16.68-16.68v-396.07c0-9.2-7.48-16.68-16.68-16.68h-234.94c-1.66,0-3-1.34-3-3s1.34-3,3-3h234.94c12.5,0,22.68,10.17,22.68,22.68v396.07c0,12.5-10.17,22.68-22.68,22.68Z"/>
    <g>
      <path class="cls-2" d="M753.49,391.85h-55.15c-1.66,0-3-1.34-3-3s1.34-3,3-3h55.15c1.66,0,3,1.34,3,3s-1.34,3-3,3Z"/>
      <path class="cls-2" d="M753.49,421.57h-55.15c-1.66,0-3-1.34-3-3s1.34-3,3-3h55.15c1.66,0,3,1.34,3,3s-1.34,3-3,3Z"/>
      <path class="cls-2" d="M753.49,451.29h-55.15c-1.66,0-3-1.34-3-3s1.34-3,3-3h55.15c1.66,0,3,1.34,3,3s-1.34,3-3,3Z"/>
      <path class="cls-2" d="M753.49,481.02h-97.28c-1.66,0-3-1.34-3-3s1.34-3,3-3h97.28c1.66,0,3,1.34,3,3s-1.34,3-3,3Z"/>
      <path class="cls-1" d="M753.49,510.74h-97.28c-1.66,0-3-1.34-3-3s1.34-3,3-3h97.28c1.66,0,3,1.34,3,3s-1.34,3-3,3Z"/>
      <path class="cls-1" d="M704.85,540.46h-55.15c-1.66,0-3-1.34-3-3s1.34-3,3-3h55.15c1.66,0,3,1.34,3,3s-1.34,3-3,3Z"/>
      <path class="cls-2" d="M704.85,570.19h-55.15c-1.66,0-3-1.34-3-3s1.34-3,3-3h55.15c1.66,0,3,1.34,3,3s-1.34,3-3,3Z"/>
      <path class="cls-2" d="M704.85,599.91h-55.15c-1.66,0-3-1.34-3-3s1.34-3,3-3h55.15c1.66,0,3,1.34,3,3s-1.34,3-3,3Z"/>
      <path class="cls-1" d="M753.49,629.63h-55.15c-1.66,0-3-1.34-3-3s1.34-3,3-3h55.15c1.66,0,3,1.34,3,3s-1.34,3-3,3Z"/>
      <path class="cls-2" d="M675.94,659.36h-55.15c-1.66,0-3-1.34-3-3s1.34-3,3-3h55.15c1.66,0,3,1.34,3,3s-1.34,3-3,3Z"/>
      <path class="cls-1" d="M648.37,689.08h-55.15c-1.66,0-3-1.34-3-3s1.34-3,3-3h55.15c1.66,0,3,1.34,3,3s-1.34,3-3,3Z"/>
      <path class="cls-2" d="M774.17,718.81h-55.15c-1.66,0-3-1.34-3-3s1.34-3,3-3h55.15c1.66,0,3,1.34,3,3s-1.34,3-3,3Z"/>
      <path class="cls-2" d="M710.73,748.53h-153.65c-1.66,0-3-1.34-3-3s1.34-3,3-3h153.65c1.66,0,3,1.34,3,3s-1.34,3-3,3Z"/>
    </g>
    <path class="cls-2" d="M97.84,306.43h-63.88c-9.46,0-18.18-4.31-23.93-11.82-5.72-7.47-7.6-16.96-5.15-26.03.06-.23.13-.46.19-.69,4.83-16.89,22.89-19.78,34.57-18.82-1-10.13-.31-35.99,30-48.24,38-15.36,57.5,18.07,57.69,18.41.82,1.44.31,3.27-1.13,4.09s-3.27.31-4.09-1.13c-.68-1.19-17.17-29.17-50.23-15.81-33.08,13.37-26.1,44.15-25.78,45.45l1.08,4.48-4.53-.82c-1.08-.19-26.51-4.52-31.81,14.04l-.17.6c-1.96,7.25-.46,14.83,4.12,20.81,4.61,6.02,11.59,9.47,19.17,9.47h63.88c1.66,0,3,1.34,3,3s-1.34,3-3,3h0Z"/>
    <path class="cls-2" d="M481.02,362.11c-.19,0-.38-.02-.57-.05-1.63-.31-2.69-1.88-2.38-3.51.03-.15,2.77-16.64-13.62-36.6-16.14-19.65-46.73-11.36-47.04-11.27l-3.3.92-.48-3.39c-.16-1.12-4.32-27.72-30.76-31.68-26.96-4.04-49.73,24.27-49.96,24.55-1.03,1.3-2.92,1.52-4.21.49-1.3-1.03-1.52-2.91-.5-4.21,1.01-1.28,25.12-31.33,55.56-26.77,25.05,3.75,32.99,25.34,35.12,33.58,8.9-1.8,34.64-4.99,50.21,13.96,18.3,22.28,15.03,40.76,14.88,41.53-.27,1.44-1.53,2.44-2.94,2.44h-.01Z"/>
  </g>
</svg>