<?xml version="1.0" encoding="UTF-8"?>
<svg id="Layer_2" data-name="Layer 2" xmlns="http://www.w3.org/2000/svg" viewBox="0 0 827.94 822.69">
  <defs>
    <style>
      .cls-1 {
        fill: #d6d7d9;
      }

      .cls-1, .cls-2, .cls-3 {
        stroke-width: 0px;
      }

      .cls-2 {
        fill: #009245;
      }

      .cls-3 {
        fill: #363634;
      }
    </style>
  </defs>
  <g id="Layer_2-2" data-name="Layer 2">
    <g>
      <g>
        <path class="cls-2" d="M776.47,736.51c-4.23,27.49-54.98,42.28-76.83,48.63-21.71,6.29-177.58,15.58-179.64,15.7-2.95,1.28-6.21,2.59-9.63,3.82-.61.22-1.23.44-1.85.65-.14.04-.28.09-.41.14-.64.21-1.28.42-1.91.63-.61.2-1.21.39-1.82.57-.1.03-.21.06-.31.09-.72.22-1.44.42-2.15.63-.39.11-.78.21-1.17.32-1.42.38-2.84.72-4.26,1.02-1.45.31-2.9.58-4.33.8-.12.02-.24.04-.36.06-.6.09-1.2.17-1.79.25-1.08.13-2.13.23-3.18.29-21.42,1.36-25.53-5.71-26.22-5.71-.14,0-1.16.22-2.78.55,1.03,1.52,1.65,3.35,1.65,5.31,0,2.6-1.06,4.96-2.76,6.67-1.71,1.7-4.06,2.75-6.66,2.75h320.19s38.3-205.2,39.68-285.23c.04-2.4.06-4.73.08-7-4.04,70.91-29.97,185.97-33.51,209.06h-.03ZM781.16,437.32c-17.79-11.63-126.31-59.74-126.31-59.74,0,0-77.86,84.74-113.8,91.08-35.95,6.35-30.3-52.78-30.3-52.78,0,0-25.5,9.4-51.3,24.44h0s-4.31,58.42-11.08,86.37c0,.02-.02.05-.02.06-1.51,6.19-3.14,10.89-4.87,13.09-7.46,13.4-38.47,36.65-42.71,67.67-4.22,31.01,6.07,73.3,9.03,90.22,2.95,16.91,6.75,69.72,6.75,69.72,13.4-8.73,28.11-17.09,30.81-17.56,5.25-.9,20.3,2.51,35.35,4.79,15.05,2.28,31.24,2.96,31.24,2.96l143.64-64.16s38.53-206.51,71.66-230.48c31.13-22.53,68.49-28.24,78.72,19.71-4.09-31.89-14.03-37.07-26.81-45.42v.03Z"/>
        <path class="cls-3" d="M481.53,813.28c-13.8,0-19.41-3.77-21.72-5.69-.09.02-.18.04-.28.06l-3.06.63-1.13-1.64c-1.21-1.76-3.19-2.8-5.3-2.8h-43.51l-.86-1.52c-1.3-2.29-1.87-4.97-2.13-6.95-4.23-.47-11.45-2.09-13.08-7.67-.36-1.25-.1-2.61.79-4.03,5.7-9.12,49.91-35.72,55.61-36.71,4.18-.72,12.48.73,22.99,2.56,4.33.75,8.8,1.54,13.32,2.22,12.97,1.97,26.97,2.74,30.22,2.9l141.55-63.23c3.88-20.51,40.01-207.27,72.56-230.81,21.37-15.46,42.42-20.95,57.77-15.05,12.9,4.96,21.53,17.26,25.65,36.56l.04.24c1.51,11.74,2.17,26.48,2.04,45.06v.19c-3.08,53.93-18.48,131.85-27.68,178.41-2.8,14.19-5.02,25.4-5.87,30.93-4.53,29.43-56.69,44.59-78.96,51.06-21.43,6.21-169.67,15.18-179.78,15.78-3.18,1.37-6.32,2.6-9.33,3.68-.4.15-.82.29-1.25.44l-1.08.37c-.64.21-1.29.43-1.96.64-.63.2-1.24.4-1.85.58l-.4.12c-.66.2-1.39.41-2.12.62l-1.16.32c-1.53.4-3,.75-4.44,1.07-1.69.35-3.16.63-4.52.84l-.37.06c-.61.09-1.24.18-1.86.26-1.21.15-2.31.25-3.37.31-1.95.12-3.76.18-5.46.18h0ZM460.59,801.39c1.23,0,1.99.67,2.55,1.16,4.28,3.75,12.18,5.28,23.48,4.56.95-.06,1.94-.15,3.02-.28.54-.07,1.11-.15,1.68-.23l.29-.04c1.33-.2,2.69-.46,4.25-.78,1.34-.3,2.74-.63,4.12-.99l1.1-.3c.72-.2,1.42-.41,2.13-.62l1.01,2.83-.87-2.87.23-.07c.51-.15,1.09-.34,1.67-.52.67-.21,1.29-.42,1.91-.62.18-.06.32-.11.45-.15l.54-.19c.4-.14.8-.28,1.19-.42,3.06-1.09,6.24-2.36,9.47-3.75l.49-.21.53-.03c33.07-1.92,160.37-10.19,178.98-15.58,21.17-6.15,70.75-20.56,74.7-46.21.87-5.66,2.98-16.37,5.91-31.19,9.17-46.38,24.51-124,27.57-177.51.13-18.23-.51-32.67-1.98-44.11-3.68-17.12-11.05-27.92-21.91-32.1-13.42-5.16-32.4.06-52.1,14.31-9.04,6.54-24.55,33.1-47.09,122.5-13.59,53.91-23.28,105.58-23.37,106.09l-.29,1.55-145.72,65.09-.71-.03c-.16,0-16.52-.71-31.56-2.99-4.59-.7-9.09-1.48-13.45-2.24-9.14-1.6-17.79-3.1-20.93-2.56-5.33,1.23-47.08,27.04-51.39,33.69,1.34,1.82,6.47,2.92,9.91,3l2.93.07v2.93c0,.9.19,3.25.89,5.29h39.82c3.4,0,6.61,1.39,8.94,3.8,1.04-.21,1.27-.25,1.62-.25v-.03Z"/>
        <path class="cls-3" d="M812.98,527.58l-6-.19c.13-18.32-.52-32.8-1.99-44.26l5.91-1.01c.68,3.15,1.24,6.58,1.67,10.17,1.08,8.97,1.22,20.85.4,35.3h.01Z"/>
        <g>
          <path class="cls-3" d="M421.83,803.84c-.71,0-1.41-.25-1.98-.75-1.24-1.1-1.36-2.99-.27-4.23,12.23-13.87,37.78-23.11,38.86-23.5,1.56-.56,3.28.26,3.83,1.82s-.25,3.28-1.81,3.83c-.25.09-25.18,9.11-36.38,21.81-.59.67-1.42,1.02-2.25,1.02h0Z"/>
          <path class="cls-3" d="M406.33,795.55c-.72,0-1.45-.26-2.02-.78-1.22-1.12-1.31-3.01-.19-4.24,14.65-16.04,37.28-25.44,38.24-25.83,1.53-.63,3.28.1,3.91,1.64.63,1.53-.1,3.28-1.64,3.91-.22.09-22.36,9.3-36.09,24.33-.59.65-1.4.98-2.22.98h.01Z"/>
        </g>
        <path class="cls-3" d="M416.55,770.47c-1.56,0-2.88-1.21-2.99-2.79-.04-.53-3.81-52.85-6.71-69.43-.47-2.68-1.12-6.01-1.88-9.86-4.03-20.47-10.78-54.74-7.16-81.28,3.07-22.48,19.5-40.9,31.5-54.35,5.07-5.68,9.45-10.58,11.56-14.37,7.1-12.74,12.57-53.5,12.62-53.91.22-1.64,1.73-2.8,3.37-2.58s2.8,1.73,2.58,3.37c-.23,1.72-5.67,42.31-13.33,56.04-2.43,4.36-7.01,9.5-12.32,15.44-11.49,12.87-27.22,30.5-30.03,51.17-3.48,25.55,3.14,59.2,7.1,79.31.77,3.89,1.43,7.25,1.91,9.99,2.95,16.87,6.63,67.87,6.78,70.03.12,1.65-1.12,3.09-2.78,3.21h-.22,0Z"/>
        <path class="cls-3" d="M385.99,735.28c-.99,0-1.95-.48-2.52-1.37-13.38-20.74-43.87-32.36-44.17-32.48-1.55-.58-2.34-2.31-1.76-3.86s2.31-2.34,3.86-1.76c1.33.5,32.64,12.42,47.11,34.85.9,1.39.5,3.25-.89,4.15-.5.32-1.07.48-1.62.48h0Z"/>
        <path class="cls-3" d="M719.37,712.02c-.46,0-.93-.11-1.37-.33-23.85-12.27-60.28-15.16-60.64-15.19-1.65-.13-2.89-1.57-2.76-3.22.12-1.65,1.56-2.89,3.22-2.76,1.54.12,38.01,3.02,62.93,15.83,1.47.76,2.05,2.57,1.3,4.04-.53,1.03-1.58,1.63-2.67,1.63h0Z"/>
        <path class="cls-3" d="M338.87,696.51c-.71,0-1.42-.25-1.99-.75-1.24-1.1-1.36-2.99-.26-4.23l23.83-26.96c3.33-12.29,40.85-150,54.63-174.8,14.17-25.5,41.19-50.59,42.33-51.65,1.22-1.12,3.12-1.05,4.24.17s1.05,3.12-.17,4.24c-.27.25-27.46,25.5-41.16,50.15-13.76,24.77-53.86,172.64-54.26,174.13l-.18.68-24.76,28.01c-.59.67-1.42,1.01-2.25,1.01Z"/>
        <path class="cls-3" d="M365.81,799.35c-.91,0-1.81-.41-2.4-1.2-1-1.32-.73-3.21.59-4.2l50.49-37.99c1.32-1,3.2-.73,4.2.59s.73,3.21-.59,4.2l-50.49,37.99c-.54.41-1.17.6-1.8.6h0Z"/>
      </g>
      <path class="cls-3" d="M10.65,581.8l60.05,217.33c3.35,12.15,14.41,20.56,27.01,20.56h352.33c2.6,0,4.95-1.06,6.66-2.76,1.71-1.71,2.76-4.06,2.76-6.67,0-1.96-.61-3.8-1.65-5.31-1.7-2.47-4.55-4.1-7.77-4.1h-85.39c1.83-5.24,2.14-11.11.43-16.99l-24.73-85.23-38.32-132.09c-3.47-11.97-14.45-20.21-26.92-20.21H37.67c-18.52,0-31.95,17.64-27.02,35.49v-.02ZM151.18,623.46c10.79-1.8,21.47,8.29,23.85,22.55,2.4,14.26-4.41,27.28-15.2,29.1-10.79,1.8-21.48-8.29-23.86-22.55-2.4-14.26,4.42-27.28,15.2-29.1h0Z"/>
      <path class="cls-3" d="M468.12,822.69H43.15c-1.66,0-3-1.34-3-3s1.34-3,3-3h424.97c1.66,0,3,1.34,3,3s-1.34,3-3,3Z"/>
      <g>
        <path class="cls-3" d="M451.86,257.2s9.91,39.52,9.46,78.8c-.45,39.28-8.79,54.91-8.79,54.91l25.17.38,13.92-16.53,1.9,14.46,33.78,1.38,2.94-17.71s-38.39-9.09-45.31-33.26c-7.24-25.3-22.85-73.77-23.5-76.72s-9.57-5.7-9.57-5.7h0Z"/>
        <path class="cls-3" d="M636.97,344.76c-2.53-7.88-4.64-14.72-5.5-17.96-.17-.61-.32-1.21-.47-1.8-6.8-27.11-7.95-49.68-7.95-49.68,0,0,18.34-3.11,18.46-18.84.13-15.74-15.74-25.78-26.75-19.57-10.99,6.21-.7,18.64-24.15,23.68-23.46,5.03-49.81-2.88-64.27-16.09-12.14-11.09-21.57-23.69-24.27-27.44-.36-.49-1.09-.44-1.38.09-2.33,4.29-12.25,19.24-41.85,30.08-.38.13-.61.52-.54.92.49,2.52,2.36,11.8,5.27,24.07l-2-.84s-22.38-14.88-25.35-43.65c-2.98-28.76,23.05-59.79,54.21-58.89,0,0,62.68-75.29,139.55-13.78,76.85,61.52,7,189.72,7,189.72v-.02Z"/>
        <path class="cls-3" d="M534.97,376.02c-23.58,0-40.84-10.84-51.43-32.36-6.89-13.97-13.85-34.75-20.68-61.75-.79-3.14-1.53-6.17-2.2-9.02-1.26-5.29-2.46-10.61-3.58-15.82-.35-1.62.69-3.21,2.31-3.56s3.21.69,3.56,2.31c1.1,5.16,2.3,10.44,3.55,15.68.67,2.83,1.4,5.83,2.18,8.94,6.72,26.59,13.54,46.97,20.24,60.57,11.55,23.47,31.14,32.57,59.89,27.81,1.63-.28,3.18.83,3.45,2.47.27,1.63-.83,3.18-2.47,3.45-5.18.86-10.13,1.29-14.82,1.29h0Z"/>
        <path class="cls-3" d="M651.8,382.74c-1.15,0-2.25-.67-2.75-1.79l-9.29-21.02c-2.91-6.82-4.75-11.47-5.64-14.26-.5-1.58.37-3.27,1.94-3.77,1.58-.5,3.27.37,3.77,1.94.82,2.58,2.65,7.19,5.43,13.7l9.27,20.98c.67,1.52-.02,3.29-1.53,3.96-.39.17-.81.26-1.21.26h.01Z"/>
        <path class="cls-3" d="M625.8,302.34c-1.45,0-2.73-1.06-2.96-2.53-2.25-14.32-2.76-23.94-2.78-24.34l-.13-2.66,2.63-.45c.64-.11,15.86-2.91,15.96-15.91.06-6.71-3.4-12.93-9.01-16.24-4.44-2.62-9.41-2.88-13.27-.7-3.26,1.84-4.01,4.26-5.03,7.61-1.77,5.77-3.98,12.95-19.96,16.39-1.62.35-3.22-.68-3.56-2.3-.35-1.62.68-3.22,2.3-3.56,12.54-2.69,13.91-7.14,15.49-12.28,1.16-3.77,2.47-8.05,7.82-11.07,5.75-3.25,12.96-2.97,19.27.75,7.45,4.39,12.04,12.61,11.96,21.45-.1,12.8-10.84,19.06-18.29,21.17.29,3.74,1,11.41,2.54,21.21.26,1.64-.86,3.17-2.5,3.43-.16.02-.32.04-.47.04h0Z"/>
        <path class="cls-3" d="M549.29,374.78c-1.42,0-2.68-1.01-2.95-2.46-.3-1.63.78-3.19,2.41-3.49,22.33-4.1,39.04-14.51,49.67-30.93,7.96-12.31,9.36-23.6,9.37-23.72.19-1.64,1.67-2.83,3.32-2.64,1.64.19,2.83,1.67,2.64,3.31-.06.51-1.5,12.58-10.13,26.04-7.94,12.38-23.71,28.31-53.78,33.83-.18.03-.37.05-.55.05h0Z"/>
        <g>
          <g>
            <ellipse class="cls-3" cx="544.62" cy="282.45" rx="3.59" ry="6.48" transform="translate(-45.17 113.53) rotate(-11.43)"/>
            <ellipse class="cls-3" cx="496.62" cy="292.15" rx="3.59" ry="6.48" transform="translate(-48.05 104.21) rotate(-11.43)"/>
          </g>
          <g>
            <path class="cls-3" d="M523.85,344.93c-1.63,0-2.96-1.3-3-2.94-.04-1.66,1.28-3.03,2.94-3.06,19.65-.42,23.16-15.49,23.3-16.14.35-1.61,1.94-2.65,3.56-2.3,1.62.34,2.65,1.92,2.32,3.54-.04.2-4.51,20.38-29.05,20.9h-.07Z"/>
            <g>
              <path class="cls-3" d="M522.05,324.41c-5.62,0-10.16-1.41-12.75-2.45-1.52-.61-2.68-1.85-3.19-3.4s-.32-3.25.54-4.65c4.62-7.57,8.49-22.72-.77-31.12-8.84-8.01-18.96.71-19.38,1.09-1.24,1.1-3.14.97-4.23-.27-1.1-1.24-.98-3.14.27-4.23,5-4.41,17.16-10.29,27.38-1.03,10.51,9.52,8.95,26.69,2.13,38.24,3.11,1.18,8.91,2.69,15.77,1.21,1.62-.35,3.22.68,3.56,2.3.35,1.62-.68,3.22-2.3,3.56-2.47.53-4.83.75-7.02.75h-.01Z"/>
              <path class="cls-3" d="M531.36,275.47c-.83,0-1.66-.34-2.25-1.02-1.09-1.24-.97-3.14.27-4.23,11.02-9.69,24.98-1.93,25.57-1.6,1.44.82,1.94,2.65,1.12,4.09s-2.64,1.94-4.08,1.13c-.45-.25-10.87-5.95-18.65.88-.57.5-1.28.75-1.98.75Z"/>
            </g>
          </g>
        </g>
        <path class="cls-3" d="M526.55,411.69h-.11c-1.66-.06-2.95-1.45-2.89-3.11l1.33-36.01c.06-1.66,1.47-2.95,3.11-2.89,1.66.06,2.95,1.45,2.89,3.11l-1.33,36.01c-.06,1.62-1.39,2.89-3,2.89Z"/>
        <path class="cls-3" d="M486.45,429.26c-1.16,0-2.26-.67-2.75-1.8-.67-1.52.03-3.29,1.54-3.95l40.11-17.57c1.52-.67,3.29.03,3.95,1.54s-.03,3.29-1.54,3.95l-40.11,17.57c-.39.17-.8.25-1.2.25h0Z"/>
        <path class="cls-3" d="M535.75,471.05c-4.16,0-7.94-.83-11.32-2.5-13.81-6.8-15.31-24.7-15.37-25.46-.12-1.65,1.11-3.09,2.77-3.22,1.66-.11,3.09,1.11,3.22,2.76.01.18,1.33,15.29,12.06,20.54,9.1,4.46,23.14.76,40.59-10.69,52.59-34.51,71.1-63.13,71.28-63.41.89-1.4,2.74-1.81,4.14-.93,1.4.89,1.81,2.74.93,4.14-.77,1.21-19.39,30-73.05,65.21-13.74,9.02-25.54,13.54-35.25,13.54v.02Z"/>
      </g>
      <path class="cls-3" d="M561.98,152.51s-30.8-12.02-26.3-42.83c4.51-30.8,27.8-39.82,59.35-38.32s84.15,21.79,94.67,45.08,2.25,62.36-21.04,68.37-106.69-32.31-106.69-32.31h.01Z"/>
    </g>
    <path class="cls-3" d="M326.07,487.88H39.06c-21.54,0-39.06-17.52-39.06-39.06V39.06C0,17.52,17.52,0,39.06,0h749.82c21.54,0,39.06,17.52,39.06,39.06v443.69c0,1.66-1.34,3-3,3s-3-1.34-3-3V39.06c0-18.23-14.83-33.06-33.06-33.06H39.06C20.83,6,6,20.83,6,39.06v409.76c0,18.23,14.83,33.06,33.06,33.06h287.01c1.66,0,3,1.34,3,3s-1.34,3-3,3Z"/>
    <g>
      <circle class="cls-2" cx="62.03" cy="49.64" r="11.99"/>
      <circle class="cls-2" cx="113.05" cy="49.64" r="11.99"/>
      <circle class="cls-3" cx="164.08" cy="49.64" r="11.99"/>
    </g>
    <g>
      <path class="cls-3" d="M224.69,236.61c-1.66,0-3-1.34-3-3v-53.33c0-31.77-25.85-57.61-57.61-57.61s-57.61,25.85-57.61,57.61v53.33c0,1.66-1.34,3-3,3s-3-1.34-3-3v-53.33c0-35.08,28.54-63.61,63.61-63.61s63.61,28.54,63.61,63.61v53.33c0,1.66-1.34,3-3,3Z"/>
      <path class="cls-2" d="M264.88,247.8v113.49h-57.55c-6.22,0-11.27,5.05-11.27,11.27v44.57h-118.59c-7.84,0-14.19-6.36-14.19-14.19v-155.14c0-7.84,6.36-14.19,14.19-14.19h173.22c7.84,0,14.19,6.36,14.19,14.19h0Z"/>
      <path class="cls-3" d="M196.06,303.43c0-17.66-14.32-31.98-31.98-31.98s-31.98,14.32-31.98,31.98c0,14.02,9.04,25.91,21.6,30.23v35.25c0,5.73,4.65,10.38,10.38,10.38s10.38-4.65,10.38-10.38v-35.25c12.56-4.31,21.6-16.2,21.6-30.23h0Z"/>
    </g>
    <path class="cls-3" d="M413.9,443.45h-206.58c-7.87,0-14.27-6.4-14.27-14.27v-56.62c0-7.87,6.4-14.27,14.27-14.27h206.58c7.87,0,14.27,6.4,14.27,14.27v56.62c0,7.87-6.4,14.27-14.27,14.27h0ZM207.32,364.29c-4.56,0-8.27,3.71-8.27,8.27v56.62c0,4.56,3.71,8.27,8.27,8.27h206.58c4.56,0,8.27-3.71,8.27-8.27v-56.62c0-4.56-3.71-8.27-8.27-8.27h-206.58Z"/>
    <g>
      <path class="cls-3" d="M230.26,401.83l-9.93-2.74,1.98-5.75,9.72,3.99-.76-10.72h6.52l-.79,10.93,9.45-3.9,1.98,5.81-10.06,2.74,6.67,8.08-5.27,3.6-5.58-8.96-5.61,8.65-5.27-3.44,6.95-8.29h0Z"/>
      <path class="cls-3" d="M259.27,401.83l-9.93-2.74,1.98-5.75,9.72,3.99-.76-10.72h6.52l-.79,10.93,9.45-3.9,1.98,5.81-10.06,2.74,6.67,8.08-5.27,3.6-5.58-8.96-5.61,8.65-5.27-3.44,6.95-8.29h0Z"/>
      <path class="cls-3" d="M288.29,401.83l-9.93-2.74,1.98-5.75,9.72,3.99-.76-10.72h6.52l-.79,10.93,9.45-3.9,1.98,5.81-10.06,2.74,6.67,8.08-5.27,3.6-5.58-8.96-5.61,8.65-5.27-3.44,6.95-8.29h0Z"/>
      <path class="cls-1" d="M317.3,401.83l-9.93-2.74,1.98-5.75,9.72,3.99-.76-10.72h6.52l-.79,10.93,9.45-3.9,1.98,5.81-10.06,2.74,6.67,8.08-5.27,3.6-5.58-8.96-5.61,8.65-5.27-3.44,6.95-8.29h0Z"/>
      <path class="cls-1" d="M346.31,401.83l-9.93-2.74,1.98-5.75,9.72,3.99-.76-10.72h6.52l-.79,10.93,9.45-3.9,1.98,5.81-10.06,2.74,6.67,8.08-5.27,3.6-5.58-8.96-5.61,8.65-5.27-3.44,6.95-8.29h0Z"/>
      <path class="cls-1" d="M375.32,401.83l-9.93-2.74,1.98-5.75,9.72,3.99-.76-10.72h6.52l-.79,10.93,9.45-3.9,1.98,5.81-10.06,2.74,6.67,8.08-5.27,3.6-5.58-8.96-5.61,8.65-5.27-3.44,6.95-8.29h0Z"/>
    </g>
    <path class="cls-3" d="M471.82,82.13H3c-1.66,0-3-1.34-3-3s1.34-3,3-3h468.83c1.66,0,3,1.34,3,3s-1.34,3-3,3h-.01Z"/>
    <path class="cls-3" d="M824.94,82.13h-123.72c-1.66,0-3-1.34-3-3s1.34-3,3-3h123.72c1.66,0,3,1.34,3,3s-1.34,3-3,3Z"/>
    <g>
      <path class="cls-3" d="M343.04,243.41c-32.56,0-59.04-26.49-59.04-59.04s26.49-59.04,59.04-59.04,59.04,26.49,59.04,59.04-26.49,59.04-59.04,59.04ZM343.04,131.33c-29.25,0-53.04,23.79-53.04,53.04s23.79,53.04,53.04,53.04,53.04-23.79,53.04-53.04-23.79-53.04-53.04-53.04h0Z"/>
      <path class="cls-3" d="M343.04,243.41c-18.85,0-33.61-25.93-33.61-59.04s14.76-59.04,33.61-59.04,33.61,25.93,33.61,59.04-14.76,59.04-33.61,59.04ZM343.04,131.33c-14.97,0-27.61,24.29-27.61,53.04s12.64,53.04,27.61,53.04,27.61-24.29,27.61-53.04-12.64-53.04-27.61-53.04h0Z"/>
      <path class="cls-3" d="M343.04,243.41c-1.66,0-3-1.34-3-3v-112.08c0-1.66,1.34-3,3-3s3,1.34,3,3v112.08c0,1.66-1.34,3-3,3Z"/>
      <path class="cls-3" d="M343.04,243.41c-18.85,0-33.61-25.93-33.61-59.04s14.76-59.04,33.61-59.04,33.61,25.93,33.61,59.04-14.76,59.04-33.61,59.04ZM343.04,131.33c-14.97,0-27.61,24.29-27.61,53.04s12.64,53.04,27.61,53.04,27.61-24.29,27.61-53.04-12.64-53.04-27.61-53.04h0Z"/>
      <path class="cls-3" d="M343.04,243.41c-1.66,0-3-1.34-3-3v-112.08c0-1.66,1.34-3,3-3s3,1.34,3,3v112.08c0,1.66-1.34,3-3,3Z"/>
      <path class="cls-3" d="M343.04,174.96c-42.29,0-49.41-19.55-49.69-20.39-.53-1.57.31-3.27,1.88-3.8,1.55-.53,3.25.3,3.79,1.84.12.32,6.66,16.35,44.02,16.35s41.95-17.81,42.12-18.57c.38-1.6,1.97-2.62,3.58-2.26,1.6.36,2.63,1.92,2.29,3.53-.2.95-5.42,23.3-47.99,23.3Z"/>
      <path class="cls-3" d="M296.19,216.47c-.21,0-.43-.02-.65-.07-1.6-.36-2.63-1.92-2.29-3.53.2-.95,5.42-23.3,47.99-23.3s49.4,19.55,49.69,20.39c.53,1.57-.31,3.27-1.88,3.8-1.56.53-3.25-.3-3.79-1.84-.13-.33-6.67-16.35-44.02-16.35s-41.95,17.81-42.12,18.57c-.32,1.38-1.56,2.33-2.93,2.33Z"/>
    </g>
    <rect class="cls-1" x="713.89" y="167.52" width="71.02" height="71.02" rx="15.52" ry="15.52"/>
    <rect class="cls-1" x="713.89" y="263.82" width="71.02" height="71.02" rx="15.52" ry="15.52"/>
  </g>
</svg>