<?xml version="1.0" encoding="UTF-8"?>
<svg id="Layer_2" data-name="Layer 2" xmlns="http://www.w3.org/2000/svg" viewBox="0 0 675.05 228.55">
  <defs>
    <style>
      .cls-1 {
        fill: #009245;
        stroke-width: 0px;
      }
    </style>
  </defs>
  <g id="Layer_1-2" data-name="Layer 1">
    <path class="cls-1" d="M223.37,30.86c1.69,2.09,2.53,4.82,2.53,8.2,0,11.09-5.95,16.24-17.84,15.43l-8.44-.72c-9.49-.8-18.93-1.45-28.33-1.93-9.4-.48-19.25-.72-29.53-.72h-10.85c-1.93,23.79-3.94,45.49-6.03,65.09l41.47-.72c5.94,0,9.92,1.05,11.93,3.13,2.01,2.09,3.01,4.9,3.01,8.44,0,5.47-1.61,9.76-4.82,12.9-3.22,3.13-7.8,4.7-13.74,4.7h-41.23l-1.45,10.37c-3.38,26.52-10.57,45.41-21.58,56.66-11.01,11.25-26.16,16.88-45.44,16.88-10.93,0-20.97-2.37-30.14-7.11-9.16-4.74-15.91-10.49-20.25-17.24-1.77-2.73-2.65-6.03-2.65-9.88s.92-7.23,2.77-10.13c1.85-2.89,4.14-4.34,6.87-4.34,1.93,0,3.82.64,5.67,1.93,1.85,1.29,4.22,3.78,7.11,7.47,7.71,10.13,17.28,15.19,28.69,15.19,9.16,0,16.83-3.74,23.02-11.21,6.19-7.47,10.16-19.25,11.93-35.32l1.45-13.26h-11.57c-3.7,0-6.87-1.04-9.52-3.13-2.65-2.09-3.98-5.06-3.98-8.92,0-4.98,1.28-8.8,3.86-11.45,2.57-2.65,6.35-3.98,11.33-3.98,4.5,0,8.92-.08,13.26-.24,1.93-17.68,4.02-39.14,6.27-64.37-17.36,1.61-29.57,4.42-36.65,8.44-7.07,4.02-10.61,9.97-10.61,17.84,0,5.47,1.6,10.69,4.82,15.67.96,1.45,1.45,2.89,1.45,4.34,0,2.89-1.61,5.42-4.82,7.59-3.22,2.17-6.83,3.25-10.85,3.25-4.34,0-8.04-1.28-11.09-3.86-1.93-1.6-3.78-4.9-5.54-9.88-1.77-4.98-2.65-10.52-2.65-16.64,0-19.93,10.25-34.39,30.74-43.4,20.49-9,50.42-13.5,89.81-13.5,27.32,0,51.43,1.45,72.33,4.34,4.5.64,7.59,2.01,9.28,4.1Z"/>
    <path class="cls-1" d="M288.91,155.8c-5.62,1.12-10.71,1.82-15.28,2.11-1.28-12.37-5.66-22.78-13.13-31.22-7.48-8.44-17.33-12.66-29.54-12.66-9.97,0-19.04,2.7-27.24,8.08-8.2,5.39-14.63,12.86-19.29,22.42-4.66,9.56-6.99,20.45-6.99,32.67,0,9,1.77,17.36,5.3,25.07,3.54,7.72,8.72,13.9,15.55,18.56,6.83,4.67,15.07,7,24.72,7,11.41,0,21.61-4.06,30.61-12.18,9-8.11,15.03-18.92,18.09-32.43,5.06-.21,9.93-.69,14.62-1.46-.11-1.5-.16-3.02-.16-4.56,0-7.66.91-14.79,2.74-21.4ZM238.32,196c-3.78,4.18-8.24,6.27-13.39,6.27-4.66,0-8.72-2.33-12.17-6.99-3.46-4.66-5.18-11.41-5.18-20.25,0-11.25,2.12-19.97,6.39-26.16,4.25-6.19,9.6-9.28,16.03-9.28h1.2c-.48,2.57-.72,5.14-.72,7.71,0,6.11,1.33,11.9,3.98,17.36,2.65,5.47,6.47,9.89,11.45,13.26-1.29,7.88-3.82,13.9-7.59,18.08Z"/>
    <path class="cls-1" d="M417.56,155.74c-1.12-2.09-2.73-3.13-4.82-3.13-.96,0-2.09.16-3.37.48-2.37.62-4.66,1.18-6.87,1.68-3.87,8.44-6.15,17.4-6.86,26.89,5.83-.98,11.37-2.38,16.62-4.22,4.66-1.45,6.99-6.03,6.99-13.74,0-3.22-.56-5.87-1.69-7.96Z"/>
    <path class="cls-1" d="M382.37,157.91c-1.29-12.37-5.67-22.78-13.14-31.22-7.48-8.44-17.32-12.66-29.54-12.66-9.97,0-19.04,2.7-27.24,8.08-8.2,5.39-14.63,12.86-19.29,22.42-1.74,3.57-3.16,7.32-4.25,11.27-1.83,6.61-2.74,13.74-2.74,21.4,0,1.54.05,3.06.16,4.56.5,7.28,2.21,14.12,5.14,20.51,3.54,7.72,8.72,13.9,15.56,18.56,6.82,4.67,15.06,7,24.71,7,11.41,0,21.61-4.06,30.61-12.18,9-8.11,15.03-18.92,18.09-32.43,5.26-.22,10.34-.74,15.2-1.56.71-9.49,2.99-18.45,6.86-26.89-7.58,1.72-14.29,2.77-20.13,3.14ZM347.05,196c-3.78,4.18-8.24,6.27-13.38,6.27-4.67,0-8.73-2.33-12.18-6.99-3.46-4.66-5.18-11.41-5.18-20.25,0-11.25,2.13-19.97,6.39-26.16,4.25-6.19,9.6-9.28,16.03-9.28h1.2c-.48,2.57-.72,5.14-.72,7.71,0,6.11,1.33,11.9,3.98,17.36,2.65,5.47,6.47,9.89,11.45,13.26-1.29,7.88-3.82,13.9-7.59,18.08Z"/>
    <path class="cls-1" d="M540.4,175.75c-1.21-1.93-2.86-2.89-4.94-2.89-2.41,0-4.58,1.12-6.51,3.37-2.29,2.72-4.43,5.21-6.44,7.46-4.63,5.2-8.51,9.14-11.65,11.83-4.5,3.86-8.92,5.79-13.26,5.79-3.37,0-6.14-2.01-8.31-6.03-2.17-4.02-3.58-10.69-4.22-20.01,14.78-25.39,26.6-50.15,35.44-74.26,8.84-24.11,13.26-45.16,13.26-63.16,0-12.7-2.29-22.18-6.87-28.45s-10.33-9.4-17.24-9.4c-13.98,0-25.28,11.05-33.87,33.15-8.6,22.1-14.43,48.74-17.48,79.92-11.9,1.29-22.63,5.42-32.19,12.41-9.56,7-17.08,16-22.54,27.01-.38.76-.74,1.52-1.08,2.28-3.87,8.44-6.15,17.4-6.86,26.89-.18,2.18-.26,4.39-.26,6.63,0,11.73,3.18,21.25,9.53,28.57,6.34,7.31,14.42,10.97,24.23,10.97,6.75,0,12.65-1.45,17.72-4.34,5.06-2.9,10.97-8.6,17.72-17.12,6.42,14.31,15.75,21.46,27.96,21.46,7.72,0,15.51-2.86,23.39-8.56,3.62-2.63,7.11-5.51,10.47-8.63,3.92-3.66,7.67-7.65,11.23-11.99,3.05-3.53,4.58-8.51,4.58-14.94,0-3.38-.61-6.03-1.81-7.96ZM490.01,82.45c2.17-17.52,4.78-31.7,7.84-42.55,3.05-10.85,6.1-16.28,9.16-16.28,1.44,0,2.69,1.69,3.73,5.07,1.05,3.37,1.57,8.12,1.57,14.22,0,23.79-9,55.29-27,94.51.96-19.13,2.53-37.45,4.7-54.97ZM446.74,199.74c-3.06,2.49-6.11,3.74-9.17,3.74-8.03,0-12.05-5.87-12.05-17.6,0-11.09,2.93-21.18,8.8-30.26,5.86-9.08,13.22-14.99,22.06-17.72-.32,8.68-.48,14.95-.48,18.8,0,10.77.8,20.5,2.41,29.18-4.67,6.75-8.52,11.37-11.57,13.86Z"/>
    <path class="cls-1" d="M529.55,216.74c-4.74-7.39-7.11-17.2-7.11-29.41,0-7.23.92-16.51,2.77-27.85,1.85-11.33,4.22-21.9,7.11-31.7,1.45-5.14,3.38-8.68,5.79-10.61s6.27-2.89,11.57-2.89c8.2,0,12.3,2.73,12.3,8.2,0,4.02-1.53,13.34-4.58,27.97-3.86,17.68-5.79,29.65-5.79,35.92,0,4.82.64,8.52,1.93,11.09,1.28,2.57,3.45,3.86,6.51,3.86,2.89,0,6.51-2.01,10.85-6.03,4.34-4.02,10.13-10.37,17.36-19.05,1.93-2.25,4.1-3.38,6.51-3.38,2.09,0,3.74.96,4.94,2.89,1.21,1.93,1.81,4.58,1.81,7.96,0,6.43-1.53,11.41-4.58,14.95-15.91,19.45-30.78,29.17-44.6,29.17-10.45,0-18.04-3.7-22.78-11.09ZM539.07,93.66c-3.38-3.13-5.06-7.51-5.06-13.14s2.21-10.33,6.63-14.1c4.42-3.77,9.92-5.67,16.51-5.67,5.94,0,10.77,1.45,14.47,4.34,3.7,2.89,5.54,6.99,5.54,12.3,0,6.43-2.09,11.53-6.27,15.31-4.18,3.78-9.73,5.67-16.63,5.67s-11.81-1.57-15.19-4.7Z"/>
    <path class="cls-1" d="M673.24,182.98c1.21,1.93,1.81,4.58,1.81,7.96,0,5.79-1.37,10.77-4.1,14.95-4.5,6.91-10.41,12.3-17.72,16.15-7.32,3.86-16.03,5.79-26.16,5.79-15.43,0-27.41-4.62-35.92-13.86-8.52-9.24-12.78-21.74-12.78-37.49,0-11.09,2.33-21.42,6.99-30.98,4.66-9.56,11.13-17.15,19.41-22.78,8.28-5.62,17.64-8.44,28.09-8.44,9.32,0,16.79,2.77,22.42,8.32,5.62,5.54,8.44,13.06,8.44,22.54,0,11.09-3.98,20.61-11.93,28.57-7.96,7.96-21.5,14.27-40.62,18.93,3.86,7.39,10.37,11.09,19.53,11.09,6.59,0,12.01-1.53,16.27-4.58,4.26-3.05,9.2-8.2,14.83-15.43,1.93-2.41,4.1-3.62,6.51-3.62,2.09,0,3.74.96,4.94,2.89ZM613.69,148.27c-4.1,6.91-6.15,15.27-6.15,25.07v.48c9.48-2.25,16.96-5.62,22.42-10.13,5.46-4.5,8.2-9.72,8.2-15.67,0-3.05-.84-5.5-2.53-7.35-1.69-1.85-3.98-2.77-6.87-2.77-5.95,0-10.97,3.46-15.07,10.37Z"/>
  </g>
</svg>